<?xml version="1.0" encoding="UTF-8" standalone="no"?>
<!DOCTYPE svg PUBLIC "-//W3C//DTD SVG 1.1//EN" "http://www.w3.org/Graphics/SVG/1.1/DTD/svg11.dtd">
<svg xmlns="http://www.w3.org/2000/svg" version="1.1" viewBox="0.00 0.00 380.00 420.00">
<g stroke-width="2.00" fill="none" stroke-linecap="butt">
<path stroke="#c691ab" vector-effect="non-scaling-stroke" d="
  M 119.73 309.42
  Q 117.17 308.91 115.32 311.10
  C 109.97 317.42 109.54 323.91 109.43 331.98
  A 0.78 0.78 0.0 0 1 108.79 332.75
  C 100.41 334.44 92.19 336.88 89.61 345.98
  C 88.56 349.69 89.06 354.91 88.83 359.29
  C 88.54 364.93 90.97 367.44 95.91 369.91
  C 99.30 371.61 99.71 375.32 102.56 378.04
  C 105.21 380.56 108.29 381.50 111.67 380.20
  C 115.21 378.85 116.83 374.52 117.33 370.99
  Q 117.40 370.48 117.90 370.35
  Q 121.34 369.42 125.04 371.30"
/>
<path stroke="#e39bc0" vector-effect="non-scaling-stroke" d="
  M 125.04 371.30
  L 125.69 374.90"
/>
<path stroke="#c691ab" vector-effect="non-scaling-stroke" d="
  M 125.69 374.90
  Q 127.00 382.59 133.44 383.21
  C 137.90 383.65 141.10 381.73 142.07 377.25
  C 142.95 373.18 144.34 366.64 146.87 361.73
  Q 147.41 360.69 147.10 359.54
  Q 146.99 359.11 147.34 358.85
  Q 148.77 357.77 149.83 357.57
  C 157.76 356.12 161.26 352.36 167.34 348.57
  A 0.91 0.91 0.0 0 1 168.72 349.24
  C 169.89 359.18 174.39 370.11 184.33 374.12
  C 186.24 374.89 187.29 375.88 188.84 377.05
  C 191.00 378.70 193.65 379.54 196.01 381.05"
/>
<path stroke="#e39bc0" vector-effect="non-scaling-stroke" d="
  M 196.01 381.05
  C 194.72 385.53 193.53 391.80 195.84 394.66
  C 197.90 397.19 201.26 400.73 204.35 402.28
  C 207.67 403.94 211.40 403.94 214.88 404.62
  C 216.85 405.01 217.32 406.64 218.41 407.44
  C 222.52 410.48 227.83 411.95 231.99 408.23
  C 236.11 404.57 235.84 401.36 234.63 396.35
  Q 234.49 395.79 234.78 395.28
  Q 235.88 393.36 237.87 392.37
  A 1.06 1.06 0.0 0 1 238.84 392.39
  Q 247.13 396.89 254.11 390.32
  C 256.83 387.75 254.12 380.77 252.15 378.60
  A 2.75 2.72 32.9 0 1 251.56 375.91
  Q 252.61 372.65 251.86 368.94"
/>
<path stroke="#c691ab" vector-effect="non-scaling-stroke" d="
  M 251.86 368.94
  Q 251.31 365.55 247.98 363.73
  Q 247.53 363.49 247.89 363.11
  C 255.40 355.29 261.74 348.92 264.80 338.13
  A 0.66 0.65 -72.8 0 1 265.64 337.68
  C 271.62 339.68 277.91 340.22 281.91 334.40
  C 283.46 332.14 284.01 330.45 286.53 329.38
  C 289.33 328.19 291.57 327.54 292.41 323.98
  Q 293.59 318.92 291.54 314.16
  A 1.23 1.22 44.7 0 1 291.53 313.20
  C 292.43 311.01 293.32 308.96 293.47 306.70
  C 293.88 300.61 290.23 295.53 283.85 295.26
  Q 281.39 295.15 280.68 294.66
  Q 273.94 289.92 266.27 292.32
  C 264.37 292.91 262.73 294.20 261.03 295.36
  Q 260.61 295.65 260.13 295.46
  Q 257.51 294.41 256.51 293.72
  C 245.43 286.13 232.96 278.78 223.62 269.39
  Q 222.46 268.23 221.51 265.38
  Q 221.35 264.91 221.84 264.86
  C 234.97 263.43 247.54 265.39 259.47 270.88
  C 263.87 272.91 270.88 278.02 274.83 272.58
  Q 277.00 269.59 279.02 267.87
  C 283.71 263.89 282.51 261.73 282.93 256.31
  Q 283.23 252.55 283.07 251.67
  C 281.97 245.32 275.40 239.34 270.72 236.31
  Q 265.46 232.89 256.11 229.71
  Q 236.07 222.88 214.88 223.80
  Q 210.81 223.97 207.17 223.67
  Q 205.88 223.56 207.16 223.33
  Q 219.07 221.12 230.31 215.79
  C 240.98 210.73 250.27 199.32 252.81 187.79
  C 253.40 185.12 254.62 184.35 256.80 183.02
  A 1.15 1.14 -9.7 0 0 257.34 182.26
  C 258.70 175.68 255.33 170.95 253.04 165.28
  Q 251.89 162.43 249.76 159.14
  C 246.20 153.65 245.86 148.24 244.23 140.77
  Q 241.59 128.69 234.91 119.44
  C 232.45 116.02 228.51 112.17 225.40 108.55"
/>
<path stroke="#ffe6fd" vector-effect="non-scaling-stroke" d="
  M 225.40 108.55
  Q 225.49 107.37 226.51 107.11"
/>
<path stroke="#c691ab" vector-effect="non-scaling-stroke" d="
  M 226.51 107.11
  C 231.03 106.37 235.35 107.41 239.06 107.72
  Q 259.52 109.46 269.75 108.76
  Q 285.16 107.70 300.02 103.57
  Q 314.46 99.56 324.91 88.93
  C 329.75 84.01 360.25 56.02 345.97 49.22
  Q 342.28 47.46 338.25 46.74
  Q 320.58 43.55 302.74 45.60
  Q 282.26 47.96 262.33 52.93
  Q 261.03 53.25 261.94 52.27
  C 264.94 49.01 277.58 36.73 274.20 31.80
  Q 271.59 27.98 266.31 26.88
  Q 247.68 23.01 228.76 24.17
  C 222.80 24.53 216.22 25.65 210.99 27.55
  C 192.86 34.13 175.82 45.75 162.63 59.38
  Q 154.56 67.72 148.70 81.79
  C 147.71 84.16 146.10 84.93 143.95 85.91
  C 134.85 90.06 126.29 94.82 118.94 101.70
  C 110.32 109.77 102.06 119.14 97.14 129.69
  Q 89.75 145.55 89.13 163.31
  C 88.88 170.43 88.61 175.44 92.11 180.68
  A 2.19 2.19 0.0 0 1 91.65 183.61
  C 87.24 187.10 86.24 189.30 84.17 194.38
  A 1.44 1.43 -83.8 0 1 83.10 195.25
  Q 79.42 195.90 75.53 197.06
  Q 74.47 197.37 75.19 198.44
  Q 75.43 198.80 75.87 198.79
  Q 79.29 198.69 82.45 197.35
  Q 83.65 196.84 83.89 198.13
  C 84.29 200.31 85.64 204.31 83.62 206.12
  Q 81.72 207.82 79.70 210.02
  Q 78.87 210.92 79.02 212.13
  L 79.06 212.39
  A 0.75 0.75 0.0 0 0 80.30 212.86
  C 83.79 209.78 87.01 203.02 91.73 209.05
  C 93.47 211.28 95.11 213.81 97.18 215.59
  Q 103.25 220.80 110.74 223.57
  C 119.00 226.62 125.38 229.78 131.81 236.00
  A 1.68 1.68 0.0 0 1 131.45 238.68
  Q 124.54 242.45 117.16 246.12
  C 110.04 249.66 101.42 247.66 94.96 243.77
  C 89.54 240.52 85.53 235.07 79.94 232.63
  C 75.12 230.53 68.25 229.21 64.25 233.74
  Q 63.60 234.47 60.80 235.56
  C 57.54 236.83 56.73 242.96 55.86 245.92
  C 55.09 248.54 55.43 250.56 56.67 252.77
  C 67.81 272.63 93.13 284.74 114.89 286.03
  Q 116.78 286.14 116.60 288.02
  Q 116.08 293.39 116.43 298.37
  C 116.70 302.19 118.46 305.73 119.73 309.42"
/>
<path stroke="#c678a8" vector-effect="non-scaling-stroke" d="
  M 226.51 107.11
  Q 222.48 107.11 218.52 107.32
  Q 217.64 107.36 217.05 107.05
  Q 215.55 106.24 216.90 105.22"
/>
<path stroke="#c563a1" vector-effect="non-scaling-stroke" d="
  M 216.90 105.22
  C 222.23 104.91 226.93 103.91 232.60 104.47"
/>
<path stroke="#c678a8" vector-effect="non-scaling-stroke" d="
  M 232.60 104.47
  C 247.75 105.94 264.31 106.92 279.15 104.38
  Q 287.11 103.02 297.73 100.51
  C 313.02 96.90 322.36 87.22 332.65 76.91
  C 335.81 73.75 354.19 53.94 344.89 50.36
  Q 340.70 48.75 336.26 48.18
  Q 323.66 46.55 311.01 47.28
  Q 290.71 48.45 265.20 54.85
  C 256.47 57.04 248.06 59.83 239.76 63.29
  C 223.97 69.89 210.15 80.38 198.39 93.12
  Q 197.58 94.00 196.73 93.61
  A 0.76 0.76 0.0 0 1 196.36 92.60
  Q 197.48 90.10 199.48 87.99
  Q 214.73 71.80 234.96 62.52
  Q 244.66 58.07 254.77 54.63
  Q 257.02 53.87 257.87 52.86
  Q 263.02 46.77 268.10 40.62
  C 269.90 38.43 275.11 32.27 270.30 30.30
  Q 267.48 29.16 265.00 28.75
  C 243.74 25.32 222.63 25.43 202.89 34.94
  C 191.69 40.33 182.95 45.85 172.59 54.29
  C 163.35 61.81 156.53 71.71 151.36 82.27
  Q 150.84 83.34 152.02 83.22
  L 155.99 82.83
  Q 156.02 82.83 156.04 82.85
  Q 156.14 82.96 156.16 83.09
  Q 156.19 83.34 155.97 83.45
  C 153.96 84.46 151.96 84.36 150.07 85.27
  C 138.68 90.78 127.48 97.19 118.77 106.09
  Q 108.84 116.24 101.85 128.78
  C 95.44 140.29 94.52 148.88 92.71 163.50
  C 92.04 168.84 92.22 176.09 95.27 180.78
  Q 95.43 181.04 95.74 181.08
  Q 95.89 181.11 96.05 181.14
  Q 96.55 181.25 96.29 181.69
  C 93.42 186.52 89.48 188.06 87.94 193.24
  C 87.57 194.49 87.89 195.95 87.57 197.33
  C 87.09 199.38 86.75 200.80 87.51 202.41
  A 2.53 2.53 0.0 0 0 89.33 203.82
  C 91.76 204.28 92.98 204.73 94.04 207.19
  C 98.12 216.70 106.29 219.94 115.26 223.49
  C 122.92 226.51 129.98 229.86 135.22 236.35
  A 0.86 0.86 0.0 0 1 135.04 237.60
  C 132.74 239.22 132.00 240.99 131.14 243.96
  C 129.28 250.43 125.27 255.96 122.15 261.86
  Q 119.85 266.19 119.84 269.35
  C 119.82 277.20 118.01 286.41 118.39 295.07
  Q 118.60 299.92 120.35 304.21
  Q 128.54 324.31 147.98 333.74
  C 153.52 336.43 160.94 338.61 167.42 340.72
  A 1.47 1.47 0.0 0 0 169.28 339.77
  Q 173.19 327.41 182.97 318.85
  Q 183.28 318.57 183.57 318.87
  L 183.77 319.07
  A 0.26 0.26 0.0 0 1 183.78 319.44
  C 175.76 327.77 170.19 336.30 171.51 348.25
  Q 172.44 356.65 177.80 365.66
  Q 179.91 369.20 185.42 371.56
  C 186.72 372.11 188.19 375.01 189.88 376.09
  C 199.20 382.04 213.38 379.93 223.05 375.41
  C 227.47 373.34 231.29 369.30 236.15 366.89
  Q 240.75 364.60 242.36 363.46
  C 246.51 360.49 248.94 357.04 252.17 353.67
  C 259.52 346.01 263.26 333.03 263.81 322.70
  C 264.00 319.20 265.44 315.34 264.50 311.31
  C 263.72 307.93 260.65 303.96 259.67 299.54
  A 2.09 2.09 0.0 0 0 258.63 298.17
  C 251.21 294.19 244.13 289.41 236.95 284.88
  C 231.55 281.47 226.21 277.09 222.35 273.14
  Q 219.53 270.25 218.73 265.62
  Q 218.63 265.05 218.06 265.04
  C 215.48 264.96 212.65 265.69 210.48 263.98
  A 0.48 0.48 0.0 0 1 210.70 263.13
  C 219.30 261.65 228.22 259.38 236.75 260.52
  C 245.34 261.66 256.34 263.66 265.25 269.49
  C 271.08 273.31 273.30 268.24 273.75 263.72
  Q 273.86 262.63 274.30 261.50
  Q 274.50 260.98 275.06 260.98
  Q 276.77 260.99 278.15 260.05
  A 1.07 1.07 0.0 0 0 278.33 258.43
  C 277.26 257.27 274.74 255.11 275.02 253.26
  A 0.56 0.55 12.0 0 1 275.72 252.81
  L 280.22 254.08
  A 0.62 0.62 0.0 0 0 280.99 253.35
  C 279.02 244.56 270.56 239.02 262.61 235.79
  Q 247.26 229.54 230.80 227.40
  C 224.16 226.54 216.55 226.85 209.36 226.60
  C 203.01 226.38 197.12 227.55 190.83 228.27
  Q 190.18 228.35 190.29 227.70
  Q 190.41 226.94 191.42 226.57
  C 198.41 223.95 204.91 221.70 212.64 219.58
  Q 219.99 217.56 222.76 216.36
  Q 245.93 206.37 249.85 181.45
  A 1.61 1.60 85.6 0 1 250.95 180.16
  L 254.46 179.03
  Q 254.96 178.87 254.91 178.35
  Q 254.73 176.43 253.81 173.93
  Q 250.54 165.08 246.57 157.97
  C 243.64 152.71 243.23 146.17 241.88 140.96
  C 240.07 133.97 237.89 127.82 233.64 121.84
  C 231.32 118.57 227.91 115.58 224.93 112.53
  Q 223.35 110.92 224.24 108.48
  Q 224.41 107.99 224.90 108.14
  Q 225.21 108.23 225.40 108.55"
/>
<path stroke="#aa2d6b" vector-effect="non-scaling-stroke" d="
  M 251.86 368.94
  Q 251.50 369.43 251.54 369.63
  Q 251.86 371.28 250.85 370.00
  Q 250.12 369.06 249.92 367.87
  A 0.79 0.78 -24.2 0 0 248.65 367.39
  Q 246.37 369.23 246.84 370.94"
/>
<path stroke="#c45a89" vector-effect="non-scaling-stroke" d="
  M 246.84 370.94
  Q 245.26 373.08 243.98 375.22
  C 239.47 382.78 229.97 390.09 222.74 394.99
  Q 218.27 398.00 212.93 398.15"
/>
<path stroke="#aa2d6b" vector-effect="non-scaling-stroke" d="
  M 212.93 398.15
  Q 209.69 398.05 206.45 398.37
  Q 205.35 398.47 204.56 398.21
  Q 202.73 397.60 203.18 396.71"
/>
<path stroke="#8f7e7a" vector-effect="non-scaling-stroke" d="
  M 203.18 396.71
  Q 215.01 398.29 224.24 391.02
  C 230.11 386.40 236.59 382.20 242.13 374.06
  C 243.04 372.73 243.87 370.82 245.08 369.32
  C 246.11 368.05 246.27 366.91 246.06 365.40
  Q 245.98 364.82 245.44 365.05
  C 242.92 366.13 240.98 367.83 238.42 368.66
  C 233.34 370.30 229.87 374.01 225.30 376.64
  Q 222.69 378.14 221.88 379.05
  C 220.17 380.97 220.55 384.21 218.26 385.45
  C 215.12 387.15 209.30 387.70 207.59 383.52
  Q 207.41 383.07 206.95 382.92
  Q 203.04 381.59 198.57 382.01"
/>
<path stroke="#aa2d6b" vector-effect="non-scaling-stroke" d="
  M 198.57 382.01
  Q 198.35 381.65 197.60 381.81
  Q 197.14 381.92 196.91 381.50
  Q 196.62 380.99 196.01 381.05"
/>
<path stroke="#aa2d6b" vector-effect="non-scaling-stroke" d="
  M 125.69 374.90
  L 125.74 373.98
  A 0.56 0.56 0.0 0 1 126.82 373.78
  C 128.34 377.18 127.70 380.99 132.74 381.08
  C 135.95 381.14 139.10 382.19 140.32 377.98
  Q 141.25 374.75 141.88 371.49
  A 0.29 0.29 0.0 0 0 141.49 371.16
  Q 140.41 371.55 139.61 372.38
  A 0.99 0.98 25.9 0 1 138.72 372.68
  C 136.78 372.34 134.95 371.64 133.04 371.63
  Q 131.51 371.61 129.97 371.63
  Q 129.47 371.64 129.02 371.41
  Q 127.02 370.37 125.04 371.30"
/>
<path stroke="#c678a8" vector-effect="non-scaling-stroke" d="
  M 119.73 309.42
  Q 119.49 310.26 119.22 310.46
  C 113.62 314.64 111.62 321.83 111.81 328.53
  C 111.91 331.73 112.06 336.26 115.54 337.37
  C 119.52 338.63 119.09 342.15 120.94 345.27
  C 128.71 358.30 145.75 359.10 157.96 351.73
  A 0.56 0.55 56.6 0 0 158.12 350.93
  L 157.93 350.67
  A 0.93 0.93 0.0 0 0 157.20 350.29
  Q 155.77 350.26 154.69 351.11
  Q 154.15 351.53 153.85 350.92
  Q 153.24 349.69 153.37 348.36
  A 0.66 0.66 0.0 0 1 154.31 347.84
  C 156.84 349.08 159.22 349.95 161.96 348.57
  Q 164.76 347.15 167.26 345.24
  Q 168.46 344.31 167.67 343.36
  A 1.14 1.12 -15.6 0 0 166.95 342.96
  C 147.05 340.32 130.52 328.43 120.75 310.50
  Q 120.37 309.81 119.73 309.42"
/>
<path stroke="#ab888f" vector-effect="non-scaling-stroke" d="
  M 203.18 396.71
  C 195.25 395.54 196.12 387.41 198.57 382.01"
/>
<path stroke="#e1649e" vector-effect="non-scaling-stroke" d="
  M 212.93 398.15
  Q 212.52 399.76 213.99 399.90
  Q 215.03 400.00 216.06 399.75
  A 1.94 1.88 45.9 0 1 217.02 399.78
  Q 219.65 400.60 222.09 399.06
  C 227.67 395.55 233.84 391.57 238.16 386.54
  A 1.20 1.16 64.7 0 0 238.44 385.72
  Q 238.40 384.05 239.20 383.44
  Q 245.72 378.48 246.84 370.94"
/>
<path stroke="#fdb8f3" vector-effect="non-scaling-stroke" d="
  M 232.60 104.47
  Q 231.14 104.07 230.50 103.45
  A 0.53 0.53 0.0 0 1 230.64 102.60
  Q 231.75 102.04 232.27 100.98
  Q 232.52 100.47 233.05 100.27
  C 236.02 99.14 238.22 97.76 241.83 98.43
  C 246.05 99.21 251.40 98.08 255.76 97.90
  Q 255.94 97.89 256.24 97.98
  Q 256.49 98.05 256.74 98.03
  Q 261.41 97.76 266.08 97.72
  C 274.77 97.65 283.00 96.43 291.41 95.08
  C 294.91 94.51 298.51 93.33 302.15 92.53
  C 308.85 91.07 313.14 87.07 318.54 83.49
  Q 318.97 83.21 319.27 82.78
  Q 320.13 81.55 321.54 81.08
  Q 322.00 80.93 322.33 80.57
  C 323.77 79.05 325.06 77.84 326.08 75.92
  Q 328.24 71.82 329.88 70.64
  Q 334.04 67.65 334.85 66.39
  Q 336.85 63.29 336.40 60.04"
/>
<path stroke="#c678a8" vector-effect="non-scaling-stroke" d="
  M 336.40 60.04
  Q 331.36 57.06 323.00 57.30
  C 309.07 57.71 296.54 59.92 283.45 65.60
  C 277.53 68.17 271.58 70.63 265.99 73.66
  C 256.59 78.75 245.65 86.34 238.76 90.00
  Q 227.04 96.22 213.69 99.73
  A 0.91 0.90 -38.3 0 0 213.49 101.40
  Q 214.35 101.86 216.35 101.53"
/>
<path stroke="#fdb8f3" vector-effect="non-scaling-stroke" d="
  M 216.35 101.53
  Q 217.22 101.59 217.37 102.50
  Q 217.53 103.50 216.90 105.22"
/>
<path stroke="#c563a1" vector-effect="non-scaling-stroke" d="
  M 336.40 60.04
  Q 320.18 59.13 308.50 61.72
  Q 295.24 64.65 288.71 67.18
  Q 280.29 70.45 265.33 77.88
  C 259.19 80.93 253.50 85.20 247.23 89.21
  Q 232.65 98.55 216.35 101.53"
/>
<path stroke="#c678a8" vector-effect="non-scaling-stroke" d="
  M 70.16 243.57
  Q 65.61 241.70 64.14 236.93
  Q 63.99 236.43 63.51 236.63
  Q 60.42 237.86 60.73 240.87
  C 60.98 243.44 63.52 245.25 65.45 246.85
  A 1.14 1.14 0.0 0 1 65.46 248.60
  C 64.05 249.78 61.57 247.51 60.54 246.72
  A 1.34 1.34 0.0 0 0 58.39 247.93
  C 59.12 254.68 64.23 260.16 69.40 264.10
  Q 90.17 279.94 116.23 282.80
  Q 116.72 282.85 116.89 282.39
  Q 118.40 278.23 117.68 274.74
  Q 116.31 268.09 118.67 262.69
  C 121.33 256.61 126.83 250.25 129.71 242.97
  Q 130.00 242.25 129.32 242.64
  C 123.43 246.03 116.70 251.62 109.20 251.45
  C 98.97 251.21 92.78 246.12 85.54 239.68
  Q 78.38 233.31 67.85 235.06
  A 0.48 0.47 -28.4 0 0 67.60 235.88
  C 69.26 237.41 73.10 240.83 71.01 243.36
  Q 70.66 243.78 70.16 243.57"
/>
<path stroke="#c678a8" vector-effect="non-scaling-stroke" d="
  M 279.18 324.99
  Q 279.48 324.80 280.17 325.08
  Q 282.12 325.89 283.80 327.41
  Q 284.19 327.77 284.67 327.56
  C 290.43 325.01 288.88 319.11 287.01 313.99
  C 286.57 312.80 286.69 311.26 287.20 310.06
  C 289.33 305.06 288.78 294.96 280.44 298.12
  A 1.64 1.63 -24.7 0 1 278.43 297.38
  C 274.89 290.93 266.01 293.14 262.19 297.87
  A 1.13 1.12 60.8 0 0 261.95 298.74
  Q 262.36 301.69 263.60 303.39
  C 266.56 307.47 270.20 313.83 268.13 318.04
  C 267.25 319.85 266.39 321.28 266.50 323.42
  Q 266.76 328.68 266.29 333.53
  Q 266.20 334.45 267.03 334.85
  Q 275.26 338.86 279.10 332.09
  C 280.22 330.11 279.57 328.22 278.77 326.29
  A 1.05 1.04 62.7 0 1 279.18 324.99"
/>
<path stroke="#6e3b4b" vector-effect="non-scaling-stroke" d="
  M 99.75 337.85
  Q 98.96 338.01 98.72 338.39"
/>
<path stroke="#8f7e7a" vector-effect="non-scaling-stroke" d="
  M 98.72 338.39
  Q 94.73 339.65 92.82 342.59
  Q 92.57 342.98 92.60 343.45
  C 93.26 355.96 113.46 359.83 122.66 360.30
  C 130.15 360.68 135.23 361.36 141.83 362.14
  A 3.60 3.58 -62.5 0 0 144.68 361.23
  L 146.27 359.77
  A 0.63 0.63 0.0 0 0 145.90 358.68
  C 142.38 358.43 138.53 358.81 135.39 358.11
  C 127.62 356.38 123.82 352.33 118.83 346.58
  Q 118.03 345.66 116.84 345.93
  Q 115.72 346.18 114.25 345.48"
/>
<path stroke="#6e3b4b" vector-effect="non-scaling-stroke" d="
  M 114.25 345.48
  Q 115.04 345.64 114.94 344.55"
/>
<path stroke="#8f7e7a" vector-effect="non-scaling-stroke" d="
  M 114.94 344.55
  L 116.46 345.04
  A 0.76 0.75 89.0 0 0 117.40 344.06
  C 115.71 339.41 111.51 340.08 110.00 335.96
  Q 109.82 335.48 109.31 335.52
  Q 104.34 335.92 99.75 337.85"
/>
<path stroke="#70966f" vector-effect="non-scaling-stroke" d="
  M 114.94 344.55
  Q 113.20 343.70 112.64 341.49
  Q 112.51 340.98 111.94 341.05
  A 0.67 0.66 82.5 0 0 111.38 341.79
  Q 111.43 342.22 111.18 342.57
  Q 110.95 342.90 110.56 343.02
  C 106.66 344.20 102.09 341.13 99.72 338.28
  Q 99.66 338.21 99.66 338.11
  Q 99.67 337.95 99.75 337.85"
/>
<path stroke="#70966f" vector-effect="non-scaling-stroke" d="
  M 114.25 345.48
  C 109.12 345.09 105.45 345.88 100.71 342.05
  Q 100.48 341.86 100.00 341.87
  Q 99.54 341.88 99.55 341.42
  Q 99.63 339.10 98.72 338.39"
/>
<path stroke="#c45a89" vector-effect="non-scaling-stroke" d="
  M 141.48 367.54
  A 2.20 2.19 -5.7 0 0 139.67 366.07
  Q 131.69 365.03 123.76 363.67
  C 113.68 361.95 101.58 359.44 93.92 352.09
  Q 92.85 351.06 92.38 349.58
  A 0.69 0.68 -10.1 0 0 91.70 349.11
  Q 90.68 349.15 90.52 350.26
  Q 90.13 352.78 90.81 355.18
  Q 90.94 355.67 91.41 355.87
  C 94.37 357.15 96.96 359.21 99.67 360.43
  C 102.68 361.77 105.39 363.23 108.57 364.11
  C 113.60 365.51 118.19 366.86 123.59 367.42
  C 129.41 368.03 134.10 368.93 140.83 368.90
  A 0.80 0.80 0.0 0 0 141.58 367.85
  L 141.48 367.54"
/>
<path stroke="#c563a1" vector-effect="non-scaling-stroke" d="
  M 111.09 368.67
  Q 108.69 366.67 105.56 366.92"
/>
<path stroke="#c45a89" vector-effect="non-scaling-stroke" d="
  M 105.56 366.92
  C 102.83 366.17 100.62 366.07 98.35 364.15
  Q 95.65 361.87 92.85 359.88
  A 1.18 1.18 0.0 0 0 90.99 360.80
  C 90.90 363.48 95.45 366.23 97.49 367.29
  Q 99.02 368.09 99.49 369.23
  C 101.34 373.73 102.87 376.88 108.26 377.56
  C 114.33 378.32 113.46 373.75 116.59 370.61
  A 0.38 0.38 0.0 0 0 116.41 369.97
  L 111.09 368.67"
/>
<path stroke="#fc9ad4" vector-effect="non-scaling-stroke" d="
  M 105.56 366.92
  Q 104.67 367.08 104.83 368.73"
/>
<path stroke="#e1649e" vector-effect="non-scaling-stroke" d="
  M 104.83 368.73
  Q 102.72 369.17 103.28 371.26
  C 104.06 374.18 109.38 374.14 111.58 373.67
  A 1.45 1.44 79.7 0 0 112.71 372.03
  Q 112.43 370.21 110.82 369.87"
/>
<path stroke="#fc9ad4" vector-effect="non-scaling-stroke" d="
  M 110.82 369.87
  L 111.09 368.67"
/>
<path stroke="#e16cb6" vector-effect="non-scaling-stroke" d="
  M 110.82 369.87
  Q 107.39 370.65 104.83 368.73"
/>
<path stroke="#c45a89" vector-effect="non-scaling-stroke" d="
  M 207.63 382.48
  A 0.31 0.31 0.0 0 0 207.54 383.04
  L 211.40 385.38
  A 0.31 0.31 0.0 0 0 211.64 385.42
  L 217.77 383.79
  A 0.31 0.31 0.0 0 0 218.00 383.50
  L 218.10 380.25
  A 0.31 0.31 0.0 0 0 217.71 379.94
  L 207.63 382.48"
/>
<path stroke="#c678a8" vector-effect="non-scaling-stroke" d="
  M 156.66 139.08
  Q 160.90 136.37 166.09 137.45
  A 0.67 0.66 -78.1 0 0 166.87 136.94
  L 166.95 136.54
  Q 167.10 135.83 166.38 135.83
  C 161.23 135.86 156.10 135.54 152.86 140.31
  Q 151.94 141.67 153.52 141.23
  C 154.63 140.93 155.89 139.58 156.66 139.08"
/>
<path stroke="#c678a8" vector-effect="non-scaling-stroke" d="
  M 111.05 139.69
  L 111.06 139.43
  Q 111.08 139.00 110.65 139.00
  C 108.84 138.99 100.91 139.93 100.60 142.72
  Q 100.44 144.14 101.82 143.79
  C 105.03 142.98 106.77 141.04 110.37 140.46
  Q 111.03 140.36 111.05 139.69"
/>
<path stroke="#c678a8" vector-effect="non-scaling-stroke" d="
  M 172.78 164.46
  Q 172.69 164.18 172.97 164.06
  L 178.90 161.65
  A 1.02 1.02 0.0 0 0 179.51 160.50
  L 179.41 159.99
  A 0.74 0.74 0.0 0 0 178.36 159.47
  L 172.54 162.34
  A 1.34 1.34 0.0 0 1 171.08 162.16
  C 169.37 160.70 166.19 157.13 164.00 157.07
  Q 160.17 156.97 155.30 159.19
  C 146.67 163.12 145.88 172.29 146.25 180.53
  A 0.94 0.94 0.0 0 0 146.98 181.41
  C 151.06 182.36 157.27 180.89 161.17 179.32
  C 165.08 177.75 169.34 177.08 173.22 174.81
  Q 173.66 174.55 173.81 174.06
  Q 175.17 169.55 179.47 167.73
  A 1.62 1.60 80.9 0 0 180.44 166.38
  Q 180.62 164.15 179.41 165.13
  Q 176.81 167.23 174.56 169.05
  Q 174.37 169.21 174.29 168.97
  L 172.78 164.46"
/>
<path stroke="#c678a8" vector-effect="non-scaling-stroke" d="
  M 123.33 202.56
  Q 122.56 204.73 124.41 206.36
  Q 129.07 210.46 134.35 207.59
  C 137.01 206.14 136.66 203.99 140.35 203.15
  C 143.76 202.37 146.78 201.82 149.45 199.36
  A 2.34 2.34 0.0 0 1 151.61 198.81
  C 155.19 199.72 158.90 200.65 162.61 199.05
  A 0.41 0.41 0.0 0 0 162.75 198.40
  Q 162.31 197.91 161.52 197.99
  Q 150.37 199.20 145.31 189.72
  Q 145.07 189.26 144.78 189.11
  Q 144.40 188.91 144.03 189.07
  Q 143.57 189.26 143.60 189.76
  C 143.77 193.07 145.47 194.72 147.33 196.70
  A 1.07 1.06 53.0 0 1 147.10 198.35
  C 138.71 203.32 133.25 202.15 125.05 197.97
  A 2.28 2.28 0.0 0 0 122.14 198.69
  C 120.83 200.58 120.60 201.99 117.75 202.36
  C 103.16 204.26 109.04 184.53 116.03 180.30
  Q 120.09 177.84 124.86 177.29
  C 127.82 176.94 131.42 178.00 134.37 178.00
  Q 138.64 178.00 134.56 176.75
  C 127.96 174.73 121.92 175.03 115.25 178.44
  C 113.45 179.36 111.52 179.18 111.52 176.73
  Q 111.53 170.08 109.87 164.67
  Q 109.69 164.07 110.30 164.23
  C 113.59 165.05 115.63 170.26 116.86 173.11
  A 1.17 1.16 70.8 0 0 118.22 173.77
  L 118.48 173.70
  A 0.48 0.48 0.0 0 0 118.82 173.10
  C 117.18 167.61 115.47 164.69 111.00 162.55
  Q 103.66 159.04 99.27 165.44
  Q 95.08 171.54 97.34 179.87
  A 0.90 0.87 8.7 0 0 97.76 180.42
  Q 103.31 183.57 108.87 180.72
  Q 111.79 179.22 110.23 182.12
  Q 108.84 184.70 106.75 188.77
  C 104.50 193.16 104.95 200.00 109.53 202.66
  C 113.54 204.98 119.19 205.77 123.13 202.42
  Q 123.49 202.12 123.33 202.56"
/>
<path stroke="#c678a8" vector-effect="non-scaling-stroke" d="
  M 195.00 174.33
  C 186.54 175.73 176.49 179.06 169.85 184.69
  A 1.28 1.28 0.0 0 0 169.56 186.29
  Q 169.73 186.61 170.36 186.57
  Q 170.71 186.54 171.11 186.29
  Q 180.63 180.35 184.25 179.18
  Q 191.22 176.92 197.33 175.32
  Q 200.41 174.52 197.25 174.10
  Q 196.75 174.04 195.00 174.33"
/>
<path stroke="#c678a8" vector-effect="non-scaling-stroke" d="
  M 129.38 181.60
  L 119.05 183.82
  A 2.09 2.09 0.0 0 0 117.45 186.30
  L 117.51 186.57
  A 7.69 7.35 77.9 0 0 126.30 192.55
  L 126.34 192.54
  A 7.69 7.35 77.9 0 0 131.92 183.48
  L 131.86 183.21
  A 2.09 2.09 0.0 0 0 129.38 181.60"
/>
<path stroke="#c678a8" vector-effect="non-scaling-stroke" d="
  M 173.15 191.34
  A 1.25 1.24 80.7 0 0 172.34 192.48
  L 172.33 192.81
  A 0.41 0.40 83.0 0 0 172.84 193.21
  C 180.24 191.13 188.16 188.31 195.22 187.94
  Q 201.96 187.58 208.63 188.83
  A 0.30 0.29 9.9 0 0 208.97 188.60
  L 209.03 188.30
  A 0.60 0.59 11.8 0 0 208.58 187.62
  C 195.47 184.64 186.45 186.44 173.15 191.34"
/>
<path stroke="#c678a8" vector-effect="non-scaling-stroke" d="
  M 152.34 272.61
  Q 153.13 273.65 153.24 274.94
  A 0.69 0.68 7.3 0 1 152.33 275.64
  C 148.89 274.43 143.51 273.62 141.16 270.77
  Q 140.78 270.32 140.43 270.79
  L 139.31 272.30
  Q 139.02 272.69 138.52 272.74
  C 134.92 273.11 131.08 267.77 129.13 264.84
  Q 128.53 263.95 127.75 263.55
  A 0.35 0.35 0.0 0 0 127.26 263.99
  Q 129.19 269.07 132.80 272.74
  C 134.44 274.41 136.73 275.37 138.80 276.67
  Q 139.27 276.96 139.72 276.66
  L 141.64 275.35
  A 0.98 0.96 -52.4 0 1 142.49 275.23
  Q 146.25 276.51 150.02 277.73
  C 153.81 278.95 154.97 276.95 156.99 274.47
  C 158.21 272.97 160.62 272.15 162.30 271.31
  Q 163.00 270.96 163.07 270.18
  L 163.10 269.80
  A 0.44 0.43 -8.1 0 0 162.51 269.36
  Q 158.01 271.15 153.16 271.01
  A 1.00 0.99 72.2 0 0 152.34 272.61"
/>
<path stroke="#c678a8" vector-effect="non-scaling-stroke" d="
  M 162.03 158.69
  Q 160.47 159.52 161.65 160.83
  C 162.73 162.02 165.64 163.95 165.54 166.00
  Q 165.39 169.43 165.29 172.49
  Q 165.20 175.37 168.09 175.37
  L 168.74 175.37
  Q 171.94 175.37 171.85 172.18
  Q 171.61 164.08 165.75 158.52
  Q 164.53 157.36 163.05 158.15
  L 162.03 158.69"
/>
<path stroke="#9772a1" vector-effect="non-scaling-stroke" d="
  M 151.46 176.95
  C 154.37 177.79 159.55 177.03 160.28 173.45
  C 160.78 171.02 159.78 169.44 157.42 168.53
  C 155.31 167.71 152.38 166.95 151.13 169.12
  Q 149.36 172.17 150.77 175.47
  Q 150.99 175.98 150.49 176.24
  Q 149.77 176.62 149.29 177.30
  A 0.25 0.24 16.0 0 0 149.51 177.69
  Q 150.19 177.63 150.68 177.15
  Q 151.01 176.82 151.46 176.95"
/>
<path stroke="#9772a1" vector-effect="non-scaling-stroke" d="
  M 107.38 172.85
  A 1.97 1.97 0.0 0 0 105.79 170.84
  L 101.93 170.09
  A 1.97 1.97 0.0 0 0 99.59 171.93
  L 99.40 176.02
  A 1.97 1.97 0.0 0 0 101.45 178.08
  L 105.38 177.91
  A 1.97 1.97 0.0 0 0 107.26 176.02
  L 107.38 172.85"
/>
<path stroke="#c678a8" vector-effect="non-scaling-stroke" d="
  M 133.45 204.31
  A 0.55 0.55 0.0 0 0 133.12 203.38
  L 129.34 202.86
  A 0.55 0.55 0.0 0 0 128.73 203.25
  L 128.16 205.14
  A 0.55 0.55 0.0 0 0 128.50 205.82
  L 130.77 206.63
  A 0.55 0.55 0.0 0 0 131.36 206.49
  L 133.45 204.31"
/>
<path stroke="#c678a8" vector-effect="non-scaling-stroke" d="
  M 121.43 187.19
  C 122.08 187.95 122.07 188.92 122.72 189.54
  C 125.50 192.18 129.41 188.25 129.18 185.25
  A 1.77 1.76 73.0 0 0 126.55 183.85
  Q 123.82 185.40 120.62 185.61
  A 0.53 0.53 0.0 0 0 120.24 186.47
  Q 120.44 186.72 120.74 186.79
  Q 121.16 186.87 121.43 187.19"
/>
<path stroke="#c678a8" vector-effect="non-scaling-stroke" d="
  M 81.31 249.65
  C 78.19 247.94 77.36 245.34 78.29 241.50
  A 1.32 1.31 -78.3 0 0 77.24 239.89
  L 76.65 239.78
  A 2.05 2.04 -79.2 0 0 74.29 241.39
  C 73.56 244.99 75.73 253.47 81.16 251.53
  A 1.04 1.03 -40.5 0 0 81.31 249.65"
/>
<path stroke="#e1649e" vector-effect="non-scaling-stroke" d="
  M 232.83 396.31
  L 229.17 401.66
  A 0.12 0.12 0.0 0 0 229.20 401.82
  L 229.23 401.84
  A 2.48 1.93 -55.6 0 0 232.22 400.88
  L 233.22 399.43
  A 2.48 1.93 -55.6 0 0 233.02 396.29
  L 233.00 396.28
  A 0.12 0.12 0.0 0 0 232.83 396.31"
/>
<path stroke="#e1649e" vector-effect="non-scaling-stroke" d="
  M 224.47 400.76
  A 0.45 0.44 47.7 0 0 224.44 401.44
  Q 225.07 402.04 225.97 402.12
  Q 226.63 402.18 226.75 401.53
  L 226.93 400.53
  A 0.51 0.50 0.8 0 0 226.35 399.94
  Q 225.31 400.12 224.47 400.76"
/>
<path stroke="#e1649e" vector-effect="non-scaling-stroke" d="
  M 226.34 406.04
  Q 225.40 403.88 223.20 404.80
  A 0.58 0.57 71.2 0 1 222.42 404.41
  Q 222.35 404.14 222.38 403.87
  Q 222.40 403.51 222.05 403.53
  L 218.75 403.66
  A 0.51 0.49 5.4 0 0 218.29 404.03
  Q 218.13 404.60 218.48 405.03
  C 221.64 408.96 228.68 409.50 232.06 405.39
  Q 232.99 404.25 231.53 404.16
  Q 229.73 404.04 228.03 406.25
  A 0.99 0.99 0.0 0 1 226.34 406.04"
/>
</g>
<path fill="none" d="
  M 0.00 0.00
  L 380.00 0.00
  L 380.00 420.00
  L 0.00 420.00
  L 0.00 0.00
  Z
  M 119.73 309.42
  Q 117.17 308.91 115.32 311.10
  C 109.97 317.42 109.54 323.91 109.43 331.98
  A 0.78 0.78 0.0 0 1 108.79 332.75
  C 100.41 334.44 92.19 336.88 89.61 345.98
  C 88.56 349.69 89.06 354.91 88.83 359.29
  C 88.54 364.93 90.97 367.44 95.91 369.91
  C 99.30 371.61 99.71 375.32 102.56 378.04
  C 105.21 380.56 108.29 381.50 111.67 380.20
  C 115.21 378.85 116.83 374.52 117.33 370.99
  Q 117.40 370.48 117.90 370.35
  Q 121.34 369.42 125.04 371.30
  L 125.69 374.90
  Q 127.00 382.59 133.44 383.21
  C 137.90 383.65 141.10 381.73 142.07 377.25
  C 142.95 373.18 144.34 366.64 146.87 361.73
  Q 147.41 360.69 147.10 359.54
  Q 146.99 359.11 147.34 358.85
  Q 148.77 357.77 149.83 357.57
  C 157.76 356.12 161.26 352.36 167.34 348.57
  A 0.91 0.91 0.0 0 1 168.72 349.24
  C 169.89 359.18 174.39 370.11 184.33 374.12
  C 186.24 374.89 187.29 375.88 188.84 377.05
  C 191.00 378.70 193.65 379.54 196.01 381.05
  C 194.72 385.53 193.53 391.80 195.84 394.66
  C 197.90 397.19 201.26 400.73 204.35 402.28
  C 207.67 403.94 211.40 403.94 214.88 404.62
  C 216.85 405.01 217.32 406.64 218.41 407.44
  C 222.52 410.48 227.83 411.95 231.99 408.23
  C 236.11 404.57 235.84 401.36 234.63 396.35
  Q 234.49 395.79 234.78 395.28
  Q 235.88 393.36 237.87 392.37
  A 1.06 1.06 0.0 0 1 238.84 392.39
  Q 247.13 396.89 254.11 390.32
  C 256.83 387.75 254.12 380.77 252.15 378.60
  A 2.75 2.72 32.9 0 1 251.56 375.91
  Q 252.61 372.65 251.86 368.94
  Q 251.31 365.55 247.98 363.73
  Q 247.53 363.49 247.89 363.11
  C 255.40 355.29 261.74 348.92 264.80 338.13
  A 0.66 0.65 -72.8 0 1 265.64 337.68
  C 271.62 339.68 277.91 340.22 281.91 334.40
  C 283.46 332.14 284.01 330.45 286.53 329.38
  C 289.33 328.19 291.57 327.54 292.41 323.98
  Q 293.59 318.92 291.54 314.16
  A 1.23 1.22 44.7 0 1 291.53 313.20
  C 292.43 311.01 293.32 308.96 293.47 306.70
  C 293.88 300.61 290.23 295.53 283.85 295.26
  Q 281.39 295.15 280.68 294.66
  Q 273.94 289.92 266.27 292.32
  C 264.37 292.91 262.73 294.20 261.03 295.36
  Q 260.61 295.65 260.13 295.46
  Q 257.51 294.41 256.51 293.72
  C 245.43 286.13 232.96 278.78 223.62 269.39
  Q 222.46 268.23 221.51 265.38
  Q 221.35 264.91 221.84 264.86
  C 234.97 263.43 247.54 265.39 259.47 270.88
  C 263.87 272.91 270.88 278.02 274.83 272.58
  Q 277.00 269.59 279.02 267.87
  C 283.71 263.89 282.51 261.73 282.93 256.31
  Q 283.23 252.55 283.07 251.67
  C 281.97 245.32 275.40 239.34 270.72 236.31
  Q 265.46 232.89 256.11 229.71
  Q 236.07 222.88 214.88 223.80
  Q 210.81 223.97 207.17 223.67
  Q 205.88 223.56 207.16 223.33
  Q 219.07 221.12 230.31 215.79
  C 240.98 210.73 250.27 199.32 252.81 187.79
  C 253.40 185.12 254.62 184.35 256.80 183.02
  A 1.15 1.14 -9.7 0 0 257.34 182.26
  C 258.70 175.68 255.33 170.95 253.04 165.28
  Q 251.89 162.43 249.76 159.14
  C 246.20 153.65 245.86 148.24 244.23 140.77
  Q 241.59 128.69 234.91 119.44
  C 232.45 116.02 228.51 112.17 225.40 108.55
  Q 225.49 107.37 226.51 107.11
  C 231.03 106.37 235.35 107.41 239.06 107.72
  Q 259.52 109.46 269.75 108.76
  Q 285.16 107.70 300.02 103.57
  Q 314.46 99.56 324.91 88.93
  C 329.75 84.01 360.25 56.02 345.97 49.22
  Q 342.28 47.46 338.25 46.74
  Q 320.58 43.55 302.74 45.60
  Q 282.26 47.96 262.33 52.93
  Q 261.03 53.25 261.94 52.27
  C 264.94 49.01 277.58 36.73 274.20 31.80
  Q 271.59 27.98 266.31 26.88
  Q 247.68 23.01 228.76 24.17
  C 222.80 24.53 216.22 25.65 210.99 27.55
  C 192.86 34.13 175.82 45.75 162.63 59.38
  Q 154.56 67.72 148.70 81.79
  C 147.71 84.16 146.10 84.93 143.95 85.91
  C 134.85 90.06 126.29 94.82 118.94 101.70
  C 110.32 109.77 102.06 119.14 97.14 129.69
  Q 89.75 145.55 89.13 163.31
  C 88.88 170.43 88.61 175.44 92.11 180.68
  A 2.19 2.19 0.0 0 1 91.65 183.61
  C 87.24 187.10 86.24 189.30 84.17 194.38
  A 1.44 1.43 -83.8 0 1 83.10 195.25
  Q 79.42 195.90 75.53 197.06
  Q 74.47 197.37 75.19 198.44
  Q 75.43 198.80 75.87 198.79
  Q 79.29 198.69 82.45 197.35
  Q 83.65 196.84 83.89 198.13
  C 84.29 200.31 85.64 204.31 83.62 206.12
  Q 81.72 207.82 79.70 210.02
  Q 78.87 210.92 79.02 212.13
  L 79.06 212.39
  A 0.75 0.75 0.0 0 0 80.30 212.86
  C 83.79 209.78 87.01 203.02 91.73 209.05
  C 93.47 211.28 95.11 213.81 97.18 215.59
  Q 103.25 220.80 110.74 223.57
  C 119.00 226.62 125.38 229.78 131.81 236.00
  A 1.68 1.68 0.0 0 1 131.45 238.68
  Q 124.54 242.45 117.16 246.12
  C 110.04 249.66 101.42 247.66 94.96 243.77
  C 89.54 240.52 85.53 235.07 79.94 232.63
  C 75.12 230.53 68.25 229.21 64.25 233.74
  Q 63.60 234.47 60.80 235.56
  C 57.54 236.83 56.73 242.96 55.86 245.92
  C 55.09 248.54 55.43 250.56 56.67 252.77
  C 67.81 272.63 93.13 284.74 114.89 286.03
  Q 116.78 286.14 116.60 288.02
  Q 116.08 293.39 116.43 298.37
  C 116.70 302.19 118.46 305.73 119.73 309.42
  Z"
/>
<path fill="#8d2356" d="
  M 226.51 107.11
  Q 222.48 107.11 218.52 107.32
  Q 217.64 107.36 217.05 107.05
  Q 215.55 106.24 216.90 105.22
  C 222.23 104.91 226.93 103.91 232.60 104.47
  C 247.75 105.94 264.31 106.92 279.15 104.38
  Q 287.11 103.02 297.73 100.51
  C 313.02 96.90 322.36 87.22 332.65 76.91
  C 335.81 73.75 354.19 53.94 344.89 50.36
  Q 340.70 48.75 336.26 48.18
  Q 323.66 46.55 311.01 47.28
  Q 290.71 48.45 265.20 54.85
  C 256.47 57.04 248.06 59.83 239.76 63.29
  C 223.97 69.89 210.15 80.38 198.39 93.12
  Q 197.58 94.00 196.73 93.61
  A 0.76 0.76 0.0 0 1 196.36 92.60
  Q 197.48 90.10 199.48 87.99
  Q 214.73 71.80 234.96 62.52
  Q 244.66 58.07 254.77 54.63
  Q 257.02 53.87 257.87 52.86
  Q 263.02 46.77 268.10 40.62
  C 269.90 38.43 275.11 32.27 270.30 30.30
  Q 267.48 29.16 265.00 28.75
  C 243.74 25.32 222.63 25.43 202.89 34.94
  C 191.69 40.33 182.95 45.85 172.59 54.29
  C 163.35 61.81 156.53 71.71 151.36 82.27
  Q 150.84 83.34 152.02 83.22
  L 155.99 82.83
  Q 156.02 82.83 156.04 82.85
  Q 156.14 82.96 156.16 83.09
  Q 156.19 83.34 155.97 83.45
  C 153.96 84.46 151.96 84.36 150.07 85.27
  C 138.68 90.78 127.48 97.19 118.77 106.09
  Q 108.84 116.24 101.85 128.78
  C 95.44 140.29 94.52 148.88 92.71 163.50
  C 92.04 168.84 92.22 176.09 95.27 180.78
  Q 95.43 181.04 95.74 181.08
  Q 95.89 181.11 96.05 181.14
  Q 96.55 181.25 96.29 181.69
  C 93.42 186.52 89.48 188.06 87.94 193.24
  C 87.57 194.49 87.89 195.95 87.57 197.33
  C 87.09 199.38 86.75 200.80 87.51 202.41
  A 2.53 2.53 0.0 0 0 89.33 203.82
  C 91.76 204.28 92.98 204.73 94.04 207.19
  C 98.12 216.70 106.29 219.94 115.26 223.49
  C 122.92 226.51 129.98 229.86 135.22 236.35
  A 0.86 0.86 0.0 0 1 135.04 237.60
  C 132.74 239.22 132.00 240.99 131.14 243.96
  C 129.28 250.43 125.27 255.96 122.15 261.86
  Q 119.85 266.19 119.84 269.35
  C 119.82 277.20 118.01 286.41 118.39 295.07
  Q 118.60 299.92 120.35 304.21
  Q 128.54 324.31 147.98 333.74
  C 153.52 336.43 160.94 338.61 167.42 340.72
  A 1.47 1.47 0.0 0 0 169.28 339.77
  Q 173.19 327.41 182.97 318.85
  Q 183.28 318.57 183.57 318.87
  L 183.77 319.07
  A 0.26 0.26 0.0 0 1 183.78 319.44
  C 175.76 327.77 170.19 336.30 171.51 348.25
  Q 172.44 356.65 177.80 365.66
  Q 179.91 369.20 185.42 371.56
  C 186.72 372.11 188.19 375.01 189.88 376.09
  C 199.20 382.04 213.38 379.93 223.05 375.41
  C 227.47 373.34 231.29 369.30 236.15 366.89
  Q 240.75 364.60 242.36 363.46
  C 246.51 360.49 248.94 357.04 252.17 353.67
  C 259.52 346.01 263.26 333.03 263.81 322.70
  C 264.00 319.20 265.44 315.34 264.50 311.31
  C 263.72 307.93 260.65 303.96 259.67 299.54
  A 2.09 2.09 0.0 0 0 258.63 298.17
  C 251.21 294.19 244.13 289.41 236.95 284.88
  C 231.55 281.47 226.21 277.09 222.35 273.14
  Q 219.53 270.25 218.73 265.62
  Q 218.63 265.05 218.06 265.04
  C 215.48 264.96 212.65 265.69 210.48 263.98
  A 0.48 0.48 0.0 0 1 210.70 263.13
  C 219.30 261.65 228.22 259.38 236.75 260.52
  C 245.34 261.66 256.34 263.66 265.25 269.49
  C 271.08 273.31 273.30 268.24 273.75 263.72
  Q 273.86 262.63 274.30 261.50
  Q 274.50 260.98 275.06 260.98
  Q 276.77 260.99 278.15 260.05
  A 1.07 1.07 0.0 0 0 278.33 258.43
  C 277.26 257.27 274.74 255.11 275.02 253.26
  A 0.56 0.55 12.0 0 1 275.72 252.81
  L 280.22 254.08
  A 0.62 0.62 0.0 0 0 280.99 253.35
  C 279.02 244.56 270.56 239.02 262.61 235.79
  Q 247.26 229.54 230.80 227.40
  C 224.16 226.54 216.55 226.85 209.36 226.60
  C 203.01 226.38 197.12 227.55 190.83 228.27
  Q 190.18 228.35 190.29 227.70
  Q 190.41 226.94 191.42 226.57
  C 198.41 223.95 204.91 221.70 212.64 219.58
  Q 219.99 217.56 222.76 216.36
  Q 245.93 206.37 249.85 181.45
  A 1.61 1.60 85.6 0 1 250.95 180.16
  L 254.46 179.03
  Q 254.96 178.87 254.91 178.35
  Q 254.73 176.43 253.81 173.93
  Q 250.54 165.08 246.57 157.97
  C 243.64 152.71 243.23 146.17 241.88 140.96
  C 240.07 133.97 237.89 127.82 233.64 121.84
  C 231.32 118.57 227.91 115.58 224.93 112.53
  Q 223.35 110.92 224.24 108.48
  Q 224.41 107.99 224.90 108.14
  Q 225.21 108.23 225.40 108.55
  C 228.51 112.17 232.45 116.02 234.91 119.44
  Q 241.59 128.69 244.23 140.77
  C 245.86 148.24 246.20 153.65 249.76 159.14
  Q 251.89 162.43 253.04 165.28
  C 255.33 170.95 258.70 175.68 257.34 182.26
  A 1.15 1.14 -9.7 0 1 256.80 183.02
  C 254.62 184.35 253.40 185.12 252.81 187.79
  C 250.27 199.32 240.98 210.73 230.31 215.79
  Q 219.07 221.12 207.16 223.33
  Q 205.88 223.56 207.17 223.67
  Q 210.81 223.97 214.88 223.80
  Q 236.07 222.88 256.11 229.71
  Q 265.46 232.89 270.72 236.31
  C 275.40 239.34 281.97 245.32 283.07 251.67
  Q 283.23 252.55 282.93 256.31
  C 282.51 261.73 283.71 263.89 279.02 267.87
  Q 277.00 269.59 274.83 272.58
  C 270.88 278.02 263.87 272.91 259.47 270.88
  C 247.54 265.39 234.97 263.43 221.84 264.86
  Q 221.35 264.91 221.51 265.38
  Q 222.46 268.23 223.62 269.39
  C 232.96 278.78 245.43 286.13 256.51 293.72
  Q 257.51 294.41 260.13 295.46
  Q 260.61 295.65 261.03 295.36
  C 262.73 294.20 264.37 292.91 266.27 292.32
  Q 273.94 289.92 280.68 294.66
  Q 281.39 295.15 283.85 295.26
  C 290.23 295.53 293.88 300.61 293.47 306.70
  C 293.32 308.96 292.43 311.01 291.53 313.20
  A 1.23 1.22 44.7 0 0 291.54 314.16
  Q 293.59 318.92 292.41 323.98
  C 291.57 327.54 289.33 328.19 286.53 329.38
  C 284.01 330.45 283.46 332.14 281.91 334.40
  C 277.91 340.22 271.62 339.68 265.64 337.68
  A 0.66 0.65 -72.8 0 0 264.80 338.13
  C 261.74 348.92 255.40 355.29 247.89 363.11
  Q 247.53 363.49 247.98 363.73
  Q 251.31 365.55 251.86 368.94
  Q 251.50 369.43 251.54 369.63
  Q 251.86 371.28 250.85 370.00
  Q 250.12 369.06 249.92 367.87
  A 0.79 0.78 -24.2 0 0 248.65 367.39
  Q 246.37 369.23 246.84 370.94
  Q 245.26 373.08 243.98 375.22
  C 239.47 382.78 229.97 390.09 222.74 394.99
  Q 218.27 398.00 212.93 398.15
  Q 209.69 398.05 206.45 398.37
  Q 205.35 398.47 204.56 398.21
  Q 202.73 397.60 203.18 396.71
  Q 215.01 398.29 224.24 391.02
  C 230.11 386.40 236.59 382.20 242.13 374.06
  C 243.04 372.73 243.87 370.82 245.08 369.32
  C 246.11 368.05 246.27 366.91 246.06 365.40
  Q 245.98 364.82 245.44 365.05
  C 242.92 366.13 240.98 367.83 238.42 368.66
  C 233.34 370.30 229.87 374.01 225.30 376.64
  Q 222.69 378.14 221.88 379.05
  C 220.17 380.97 220.55 384.21 218.26 385.45
  C 215.12 387.15 209.30 387.70 207.59 383.52
  Q 207.41 383.07 206.95 382.92
  Q 203.04 381.59 198.57 382.01
  Q 198.35 381.65 197.60 381.81
  Q 197.14 381.92 196.91 381.50
  Q 196.62 380.99 196.01 381.05
  C 193.65 379.54 191.00 378.70 188.84 377.05
  C 187.29 375.88 186.24 374.89 184.33 374.12
  C 174.39 370.11 169.89 359.18 168.72 349.24
  A 0.91 0.91 0.0 0 0 167.34 348.57
  C 161.26 352.36 157.76 356.12 149.83 357.57
  Q 148.77 357.77 147.34 358.85
  Q 146.99 359.11 147.10 359.54
  Q 147.41 360.69 146.87 361.73
  C 144.34 366.64 142.95 373.18 142.07 377.25
  C 141.10 381.73 137.90 383.65 133.44 383.21
  Q 127.00 382.59 125.69 374.90
  L 125.74 373.98
  A 0.56 0.56 0.0 0 1 126.82 373.78
  C 128.34 377.18 127.70 380.99 132.74 381.08
  C 135.95 381.14 139.10 382.19 140.32 377.98
  Q 141.25 374.75 141.88 371.49
  A 0.29 0.29 0.0 0 0 141.49 371.16
  Q 140.41 371.55 139.61 372.38
  A 0.99 0.98 25.9 0 1 138.72 372.68
  C 136.78 372.34 134.95 371.64 133.04 371.63
  Q 131.51 371.61 129.97 371.63
  Q 129.47 371.64 129.02 371.41
  Q 127.02 370.37 125.04 371.30
  Q 121.34 369.42 117.90 370.35
  Q 117.40 370.48 117.33 370.99
  C 116.83 374.52 115.21 378.85 111.67 380.20
  C 108.29 381.50 105.21 380.56 102.56 378.04
  C 99.71 375.32 99.30 371.61 95.91 369.91
  C 90.97 367.44 88.54 364.93 88.83 359.29
  C 89.06 354.91 88.56 349.69 89.61 345.98
  C 92.19 336.88 100.41 334.44 108.79 332.75
  A 0.78 0.78 0.0 0 0 109.43 331.98
  C 109.54 323.91 109.97 317.42 115.32 311.10
  Q 117.17 308.91 119.73 309.42
  Q 119.49 310.26 119.22 310.46
  C 113.62 314.64 111.62 321.83 111.81 328.53
  C 111.91 331.73 112.06 336.26 115.54 337.37
  C 119.52 338.63 119.09 342.15 120.94 345.27
  C 128.71 358.30 145.75 359.10 157.96 351.73
  A 0.56 0.55 56.6 0 0 158.12 350.93
  L 157.93 350.67
  A 0.93 0.93 0.0 0 0 157.20 350.29
  Q 155.77 350.26 154.69 351.11
  Q 154.15 351.53 153.85 350.92
  Q 153.24 349.69 153.37 348.36
  A 0.66 0.66 0.0 0 1 154.31 347.84
  C 156.84 349.08 159.22 349.95 161.96 348.57
  Q 164.76 347.15 167.26 345.24
  Q 168.46 344.31 167.67 343.36
  A 1.14 1.12 -15.6 0 0 166.95 342.96
  C 147.05 340.32 130.52 328.43 120.75 310.50
  Q 120.37 309.81 119.73 309.42
  C 118.46 305.73 116.70 302.19 116.43 298.37
  Q 116.08 293.39 116.60 288.02
  Q 116.78 286.14 114.89 286.03
  C 93.13 284.74 67.81 272.63 56.67 252.77
  C 55.43 250.56 55.09 248.54 55.86 245.92
  C 56.73 242.96 57.54 236.83 60.80 235.56
  Q 63.60 234.47 64.25 233.74
  C 68.25 229.21 75.12 230.53 79.94 232.63
  C 85.53 235.07 89.54 240.52 94.96 243.77
  C 101.42 247.66 110.04 249.66 117.16 246.12
  Q 124.54 242.45 131.45 238.68
  A 1.68 1.68 0.0 0 0 131.81 236.00
  C 125.38 229.78 119.00 226.62 110.74 223.57
  Q 103.25 220.80 97.18 215.59
  C 95.11 213.81 93.47 211.28 91.73 209.05
  C 87.01 203.02 83.79 209.78 80.30 212.86
  A 0.75 0.75 0.0 0 1 79.06 212.39
  L 79.02 212.13
  Q 78.87 210.92 79.70 210.02
  Q 81.72 207.82 83.62 206.12
  C 85.64 204.31 84.29 200.31 83.89 198.13
  Q 83.65 196.84 82.45 197.35
  Q 79.29 198.69 75.87 198.79
  Q 75.43 198.80 75.19 198.44
  Q 74.47 197.37 75.53 197.06
  Q 79.42 195.90 83.10 195.25
  A 1.44 1.43 -83.8 0 0 84.17 194.38
  C 86.24 189.30 87.24 187.10 91.65 183.61
  A 2.19 2.19 0.0 0 0 92.11 180.68
  C 88.61 175.44 88.88 170.43 89.13 163.31
  Q 89.75 145.55 97.14 129.69
  C 102.06 119.14 110.32 109.77 118.94 101.70
  C 126.29 94.82 134.85 90.06 143.95 85.91
  C 146.10 84.93 147.71 84.16 148.70 81.79
  Q 154.56 67.72 162.63 59.38
  C 175.82 45.75 192.86 34.13 210.99 27.55
  C 216.22 25.65 222.80 24.53 228.76 24.17
  Q 247.68 23.01 266.31 26.88
  Q 271.59 27.98 274.20 31.80
  C 277.58 36.73 264.94 49.01 261.94 52.27
  Q 261.03 53.25 262.33 52.93
  Q 282.26 47.96 302.74 45.60
  Q 320.58 43.55 338.25 46.74
  Q 342.28 47.46 345.97 49.22
  C 360.25 56.02 329.75 84.01 324.91 88.93
  Q 314.46 99.56 300.02 103.57
  Q 285.16 107.70 269.75 108.76
  Q 259.52 109.46 239.06 107.72
  C 235.35 107.41 231.03 106.37 226.51 107.11
  Z
  M 70.16 243.57
  Q 65.61 241.70 64.14 236.93
  Q 63.99 236.43 63.51 236.63
  Q 60.42 237.86 60.73 240.87
  C 60.98 243.44 63.52 245.25 65.45 246.85
  A 1.14 1.14 0.0 0 1 65.46 248.60
  C 64.05 249.78 61.57 247.51 60.54 246.72
  A 1.34 1.34 0.0 0 0 58.39 247.93
  C 59.12 254.68 64.23 260.16 69.40 264.10
  Q 90.17 279.94 116.23 282.80
  Q 116.72 282.85 116.89 282.39
  Q 118.40 278.23 117.68 274.74
  Q 116.31 268.09 118.67 262.69
  C 121.33 256.61 126.83 250.25 129.71 242.97
  Q 130.00 242.25 129.32 242.64
  C 123.43 246.03 116.70 251.62 109.20 251.45
  C 98.97 251.21 92.78 246.12 85.54 239.68
  Q 78.38 233.31 67.85 235.06
  A 0.48 0.47 -28.4 0 0 67.60 235.88
  C 69.26 237.41 73.10 240.83 71.01 243.36
  Q 70.66 243.78 70.16 243.57
  Z
  M 279.18 324.99
  Q 279.48 324.80 280.17 325.08
  Q 282.12 325.89 283.80 327.41
  Q 284.19 327.77 284.67 327.56
  C 290.43 325.01 288.88 319.11 287.01 313.99
  C 286.57 312.80 286.69 311.26 287.20 310.06
  C 289.33 305.06 288.78 294.96 280.44 298.12
  A 1.64 1.63 -24.7 0 1 278.43 297.38
  C 274.89 290.93 266.01 293.14 262.19 297.87
  A 1.13 1.12 60.8 0 0 261.95 298.74
  Q 262.36 301.69 263.60 303.39
  C 266.56 307.47 270.20 313.83 268.13 318.04
  C 267.25 319.85 266.39 321.28 266.50 323.42
  Q 266.76 328.68 266.29 333.53
  Q 266.20 334.45 267.03 334.85
  Q 275.26 338.86 279.10 332.09
  C 280.22 330.11 279.57 328.22 278.77 326.29
  A 1.05 1.04 62.7 0 1 279.18 324.99
  Z
  M 99.75 337.85
  Q 98.96 338.01 98.72 338.39
  Q 94.73 339.65 92.82 342.59
  Q 92.57 342.98 92.60 343.45
  C 93.26 355.96 113.46 359.83 122.66 360.30
  C 130.15 360.68 135.23 361.36 141.83 362.14
  A 3.60 3.58 -62.5 0 0 144.68 361.23
  L 146.27 359.77
  A 0.63 0.63 0.0 0 0 145.90 358.68
  C 142.38 358.43 138.53 358.81 135.39 358.11
  C 127.62 356.38 123.82 352.33 118.83 346.58
  Q 118.03 345.66 116.84 345.93
  Q 115.72 346.18 114.25 345.48
  Q 115.04 345.64 114.94 344.55
  L 116.46 345.04
  A 0.76 0.75 89.0 0 0 117.40 344.06
  C 115.71 339.41 111.51 340.08 110.00 335.96
  Q 109.82 335.48 109.31 335.52
  Q 104.34 335.92 99.75 337.85
  Z
  M 141.48 367.54
  A 2.20 2.19 -5.7 0 0 139.67 366.07
  Q 131.69 365.03 123.76 363.67
  C 113.68 361.95 101.58 359.44 93.92 352.09
  Q 92.85 351.06 92.38 349.58
  A 0.69 0.68 -10.1 0 0 91.70 349.11
  Q 90.68 349.15 90.52 350.26
  Q 90.13 352.78 90.81 355.18
  Q 90.94 355.67 91.41 355.87
  C 94.37 357.15 96.96 359.21 99.67 360.43
  C 102.68 361.77 105.39 363.23 108.57 364.11
  C 113.60 365.51 118.19 366.86 123.59 367.42
  C 129.41 368.03 134.10 368.93 140.83 368.90
  A 0.80 0.80 0.0 0 0 141.58 367.85
  L 141.48 367.54
  Z
  M 111.09 368.67
  Q 108.69 366.67 105.56 366.92
  C 102.83 366.17 100.62 366.07 98.35 364.15
  Q 95.65 361.87 92.85 359.88
  A 1.18 1.18 0.0 0 0 90.99 360.80
  C 90.90 363.48 95.45 366.23 97.49 367.29
  Q 99.02 368.09 99.49 369.23
  C 101.34 373.73 102.87 376.88 108.26 377.56
  C 114.33 378.32 113.46 373.75 116.59 370.61
  A 0.38 0.38 0.0 0 0 116.41 369.97
  L 111.09 368.67
  Z
  M 207.63 382.48
  A 0.31 0.31 0.0 0 0 207.54 383.04
  L 211.40 385.38
  A 0.31 0.31 0.0 0 0 211.64 385.42
  L 217.77 383.79
  A 0.31 0.31 0.0 0 0 218.00 383.50
  L 218.10 380.25
  A 0.31 0.31 0.0 0 0 217.71 379.94
  L 207.63 382.48
  Z"
/>
<path fill="#fecdfa" d="
  M 232.60 104.47
  Q 231.14 104.07 230.50 103.45
  A 0.53 0.53 0.0 0 1 230.64 102.60
  Q 231.75 102.04 232.27 100.98
  Q 232.52 100.47 233.05 100.27
  C 236.02 99.14 238.22 97.76 241.83 98.43
  C 246.05 99.21 251.40 98.08 255.76 97.90
  Q 255.94 97.89 256.24 97.98
  Q 256.49 98.05 256.74 98.03
  Q 261.41 97.76 266.08 97.72
  C 274.77 97.65 283.00 96.43 291.41 95.08
  C 294.91 94.51 298.51 93.33 302.15 92.53
  C 308.85 91.07 313.14 87.07 318.54 83.49
  Q 318.97 83.21 319.27 82.78
  Q 320.13 81.55 321.54 81.08
  Q 322.00 80.93 322.33 80.57
  C 323.77 79.05 325.06 77.84 326.08 75.92
  Q 328.24 71.82 329.88 70.64
  Q 334.04 67.65 334.85 66.39
  Q 336.85 63.29 336.40 60.04
  Q 331.36 57.06 323.00 57.30
  C 309.07 57.71 296.54 59.92 283.45 65.60
  C 277.53 68.17 271.58 70.63 265.99 73.66
  C 256.59 78.75 245.65 86.34 238.76 90.00
  Q 227.04 96.22 213.69 99.73
  A 0.91 0.90 -38.3 0 0 213.49 101.40
  Q 214.35 101.86 216.35 101.53
  Q 217.22 101.59 217.37 102.50
  Q 217.53 103.50 216.90 105.22
  Q 215.55 106.24 217.05 107.05
  Q 217.64 107.36 218.52 107.32
  Q 222.48 107.11 226.51 107.11
  Q 225.49 107.37 225.40 108.55
  Q 225.21 108.23 224.90 108.14
  Q 224.41 107.99 224.24 108.48
  Q 223.35 110.92 224.93 112.53
  C 227.91 115.58 231.32 118.57 233.64 121.84
  C 237.89 127.82 240.07 133.97 241.88 140.96
  C 243.23 146.17 243.64 152.71 246.57 157.97
  Q 250.54 165.08 253.81 173.93
  Q 254.73 176.43 254.91 178.35
  Q 254.96 178.87 254.46 179.03
  L 250.95 180.16
  A 1.61 1.60 85.6 0 0 249.85 181.45
  Q 245.93 206.37 222.76 216.36
  Q 219.99 217.56 212.64 219.58
  C 204.91 221.70 198.41 223.95 191.42 226.57
  Q 190.41 226.94 190.29 227.70
  Q 190.18 228.35 190.83 228.27
  C 197.12 227.55 203.01 226.38 209.36 226.60
  C 216.55 226.85 224.16 226.54 230.80 227.40
  Q 247.26 229.54 262.61 235.79
  C 270.56 239.02 279.02 244.56 280.99 253.35
  A 0.62 0.62 0.0 0 1 280.22 254.08
  L 275.72 252.81
  A 0.56 0.55 12.0 0 0 275.02 253.26
  C 274.74 255.11 277.26 257.27 278.33 258.43
  A 1.07 1.07 0.0 0 1 278.15 260.05
  Q 276.77 260.99 275.06 260.98
  Q 274.50 260.98 274.30 261.50
  Q 273.86 262.63 273.75 263.72
  C 273.30 268.24 271.08 273.31 265.25 269.49
  C 256.34 263.66 245.34 261.66 236.75 260.52
  C 228.22 259.38 219.30 261.65 210.70 263.13
  A 0.48 0.48 0.0 0 0 210.48 263.98
  C 212.65 265.69 215.48 264.96 218.06 265.04
  Q 218.63 265.05 218.73 265.62
  Q 219.53 270.25 222.35 273.14
  C 226.21 277.09 231.55 281.47 236.95 284.88
  C 244.13 289.41 251.21 294.19 258.63 298.17
  A 2.09 2.09 0.0 0 1 259.67 299.54
  C 260.65 303.96 263.72 307.93 264.50 311.31
  C 265.44 315.34 264.00 319.20 263.81 322.70
  C 263.26 333.03 259.52 346.01 252.17 353.67
  C 248.94 357.04 246.51 360.49 242.36 363.46
  Q 240.75 364.60 236.15 366.89
  C 231.29 369.30 227.47 373.34 223.05 375.41
  C 213.38 379.93 199.20 382.04 189.88 376.09
  C 188.19 375.01 186.72 372.11 185.42 371.56
  Q 179.91 369.20 177.80 365.66
  Q 172.44 356.65 171.51 348.25
  C 170.19 336.30 175.76 327.77 183.78 319.44
  A 0.26 0.26 0.0 0 0 183.77 319.07
  L 183.57 318.87
  Q 183.28 318.57 182.97 318.85
  Q 173.19 327.41 169.28 339.77
  A 1.47 1.47 0.0 0 1 167.42 340.72
  C 160.94 338.61 153.52 336.43 147.98 333.74
  Q 128.54 324.31 120.35 304.21
  Q 118.60 299.92 118.39 295.07
  C 118.01 286.41 119.82 277.20 119.84 269.35
  Q 119.85 266.19 122.15 261.86
  C 125.27 255.96 129.28 250.43 131.14 243.96
  C 132.00 240.99 132.74 239.22 135.04 237.60
  A 0.86 0.86 0.0 0 0 135.22 236.35
  C 129.98 229.86 122.92 226.51 115.26 223.49
  C 106.29 219.94 98.12 216.70 94.04 207.19
  C 92.98 204.73 91.76 204.28 89.33 203.82
  A 2.53 2.53 0.0 0 1 87.51 202.41
  C 86.75 200.80 87.09 199.38 87.57 197.33
  C 87.89 195.95 87.57 194.49 87.94 193.24
  C 89.48 188.06 93.42 186.52 96.29 181.69
  Q 96.55 181.25 96.05 181.14
  Q 95.89 181.11 95.74 181.08
  Q 95.43 181.04 95.27 180.78
  C 92.22 176.09 92.04 168.84 92.71 163.50
  C 94.52 148.88 95.44 140.29 101.85 128.78
  Q 108.84 116.24 118.77 106.09
  C 127.48 97.19 138.68 90.78 150.07 85.27
  C 151.96 84.36 153.96 84.46 155.97 83.45
  Q 156.19 83.34 156.16 83.09
  Q 156.14 82.96 156.04 82.85
  Q 156.02 82.83 155.99 82.83
  L 152.02 83.22
  Q 150.84 83.34 151.36 82.27
  C 156.53 71.71 163.35 61.81 172.59 54.29
  C 182.95 45.85 191.69 40.33 202.89 34.94
  C 222.63 25.43 243.74 25.32 265.00 28.75
  Q 267.48 29.16 270.30 30.30
  C 275.11 32.27 269.90 38.43 268.10 40.62
  Q 263.02 46.77 257.87 52.86
  Q 257.02 53.87 254.77 54.63
  Q 244.66 58.07 234.96 62.52
  Q 214.73 71.80 199.48 87.99
  Q 197.48 90.10 196.36 92.60
  A 0.76 0.76 0.0 0 0 196.73 93.61
  Q 197.58 94.00 198.39 93.12
  C 210.15 80.38 223.97 69.89 239.76 63.29
  C 248.06 59.83 256.47 57.04 265.20 54.85
  Q 290.71 48.45 311.01 47.28
  Q 323.66 46.55 336.26 48.18
  Q 340.70 48.75 344.89 50.36
  C 354.19 53.94 335.81 73.75 332.65 76.91
  C 322.36 87.22 313.02 96.90 297.73 100.51
  Q 287.11 103.02 279.15 104.38
  C 264.31 106.92 247.75 105.94 232.60 104.47
  Z
  M 156.66 139.08
  Q 160.90 136.37 166.09 137.45
  A 0.67 0.66 -78.1 0 0 166.87 136.94
  L 166.95 136.54
  Q 167.10 135.83 166.38 135.83
  C 161.23 135.86 156.10 135.54 152.86 140.31
  Q 151.94 141.67 153.52 141.23
  C 154.63 140.93 155.89 139.58 156.66 139.08
  Z
  M 111.05 139.69
  L 111.06 139.43
  Q 111.08 139.00 110.65 139.00
  C 108.84 138.99 100.91 139.93 100.60 142.72
  Q 100.44 144.14 101.82 143.79
  C 105.03 142.98 106.77 141.04 110.37 140.46
  Q 111.03 140.36 111.05 139.69
  Z
  M 172.78 164.46
  Q 172.69 164.18 172.97 164.06
  L 178.90 161.65
  A 1.02 1.02 0.0 0 0 179.51 160.50
  L 179.41 159.99
  A 0.74 0.74 0.0 0 0 178.36 159.47
  L 172.54 162.34
  A 1.34 1.34 0.0 0 1 171.08 162.16
  C 169.37 160.70 166.19 157.13 164.00 157.07
  Q 160.17 156.97 155.30 159.19
  C 146.67 163.12 145.88 172.29 146.25 180.53
  A 0.94 0.94 0.0 0 0 146.98 181.41
  C 151.06 182.36 157.27 180.89 161.17 179.32
  C 165.08 177.75 169.34 177.08 173.22 174.81
  Q 173.66 174.55 173.81 174.06
  Q 175.17 169.55 179.47 167.73
  A 1.62 1.60 80.9 0 0 180.44 166.38
  Q 180.62 164.15 179.41 165.13
  Q 176.81 167.23 174.56 169.05
  Q 174.37 169.21 174.29 168.97
  L 172.78 164.46
  Z
  M 123.33 202.56
  Q 122.56 204.73 124.41 206.36
  Q 129.07 210.46 134.35 207.59
  C 137.01 206.14 136.66 203.99 140.35 203.15
  C 143.76 202.37 146.78 201.82 149.45 199.36
  A 2.34 2.34 0.0 0 1 151.61 198.81
  C 155.19 199.72 158.90 200.65 162.61 199.05
  A 0.41 0.41 0.0 0 0 162.75 198.40
  Q 162.31 197.91 161.52 197.99
  Q 150.37 199.20 145.31 189.72
  Q 145.07 189.26 144.78 189.11
  Q 144.40 188.91 144.03 189.07
  Q 143.57 189.26 143.60 189.76
  C 143.77 193.07 145.47 194.72 147.33 196.70
  A 1.07 1.06 53.0 0 1 147.10 198.35
  C 138.71 203.32 133.25 202.15 125.05 197.97
  A 2.28 2.28 0.0 0 0 122.14 198.69
  C 120.83 200.58 120.60 201.99 117.75 202.36
  C 103.16 204.26 109.04 184.53 116.03 180.30
  Q 120.09 177.84 124.86 177.29
  C 127.82 176.94 131.42 178.00 134.37 178.00
  Q 138.64 178.00 134.56 176.75
  C 127.96 174.73 121.92 175.03 115.25 178.44
  C 113.45 179.36 111.52 179.18 111.52 176.73
  Q 111.53 170.08 109.87 164.67
  Q 109.69 164.07 110.30 164.23
  C 113.59 165.05 115.63 170.26 116.86 173.11
  A 1.17 1.16 70.8 0 0 118.22 173.77
  L 118.48 173.70
  A 0.48 0.48 0.0 0 0 118.82 173.10
  C 117.18 167.61 115.47 164.69 111.00 162.55
  Q 103.66 159.04 99.27 165.44
  Q 95.08 171.54 97.34 179.87
  A 0.90 0.87 8.7 0 0 97.76 180.42
  Q 103.31 183.57 108.87 180.72
  Q 111.79 179.22 110.23 182.12
  Q 108.84 184.70 106.75 188.77
  C 104.50 193.16 104.95 200.00 109.53 202.66
  C 113.54 204.98 119.19 205.77 123.13 202.42
  Q 123.49 202.12 123.33 202.56
  Z
  M 195.00 174.33
  C 186.54 175.73 176.49 179.06 169.85 184.69
  A 1.28 1.28 0.0 0 0 169.56 186.29
  Q 169.73 186.61 170.36 186.57
  Q 170.71 186.54 171.11 186.29
  Q 180.63 180.35 184.25 179.18
  Q 191.22 176.92 197.33 175.32
  Q 200.41 174.52 197.25 174.10
  Q 196.75 174.04 195.00 174.33
  Z
  M 129.38 181.60
  L 119.05 183.82
  A 2.09 2.09 0.0 0 0 117.45 186.30
  L 117.51 186.57
  A 7.69 7.35 77.9 0 0 126.30 192.55
  L 126.34 192.54
  A 7.69 7.35 77.9 0 0 131.92 183.48
  L 131.86 183.21
  A 2.09 2.09 0.0 0 0 129.38 181.60
  Z
  M 173.15 191.34
  A 1.25 1.24 80.7 0 0 172.34 192.48
  L 172.33 192.81
  A 0.41 0.40 83.0 0 0 172.84 193.21
  C 180.24 191.13 188.16 188.31 195.22 187.94
  Q 201.96 187.58 208.63 188.83
  A 0.30 0.29 9.9 0 0 208.97 188.60
  L 209.03 188.30
  A 0.60 0.59 11.8 0 0 208.58 187.62
  C 195.47 184.64 186.45 186.44 173.15 191.34
  Z
  M 152.34 272.61
  Q 153.13 273.65 153.24 274.94
  A 0.69 0.68 7.3 0 1 152.33 275.64
  C 148.89 274.43 143.51 273.62 141.16 270.77
  Q 140.78 270.32 140.43 270.79
  L 139.31 272.30
  Q 139.02 272.69 138.52 272.74
  C 134.92 273.11 131.08 267.77 129.13 264.84
  Q 128.53 263.95 127.75 263.55
  A 0.35 0.35 0.0 0 0 127.26 263.99
  Q 129.19 269.07 132.80 272.74
  C 134.44 274.41 136.73 275.37 138.80 276.67
  Q 139.27 276.96 139.72 276.66
  L 141.64 275.35
  A 0.98 0.96 -52.4 0 1 142.49 275.23
  Q 146.25 276.51 150.02 277.73
  C 153.81 278.95 154.97 276.95 156.99 274.47
  C 158.21 272.97 160.62 272.15 162.30 271.31
  Q 163.00 270.96 163.07 270.18
  L 163.10 269.80
  A 0.44 0.43 -8.1 0 0 162.51 269.36
  Q 158.01 271.15 153.16 271.01
  A 1.00 0.99 72.2 0 0 152.34 272.61
  Z"
/>
<path fill="#8d2356" d="
  M 336.40 60.04
  Q 320.18 59.13 308.50 61.72
  Q 295.24 64.65 288.71 67.18
  Q 280.29 70.45 265.33 77.88
  C 259.19 80.93 253.50 85.20 247.23 89.21
  Q 232.65 98.55 216.35 101.53
  Q 214.35 101.86 213.49 101.40
  A 0.91 0.90 -38.3 0 1 213.69 99.73
  Q 227.04 96.22 238.76 90.00
  C 245.65 86.34 256.59 78.75 265.99 73.66
  C 271.58 70.63 277.53 68.17 283.45 65.60
  C 296.54 59.92 309.07 57.71 323.00 57.30
  Q 331.36 57.06 336.40 60.04
  Z"
/>
<path fill="#fca2ec" d="
  M 336.40 60.04
  Q 336.85 63.29 334.85 66.39
  Q 334.04 67.65 329.88 70.64
  Q 328.24 71.82 326.08 75.92
  C 325.06 77.84 323.77 79.05 322.33 80.57
  Q 322.00 80.93 321.54 81.08
  Q 320.13 81.55 319.27 82.78
  Q 318.97 83.21 318.54 83.49
  C 313.14 87.07 308.85 91.07 302.15 92.53
  C 298.51 93.33 294.91 94.51 291.41 95.08
  C 283.00 96.43 274.77 97.65 266.08 97.72
  Q 261.41 97.76 256.74 98.03
  Q 256.49 98.05 256.24 97.98
  Q 255.94 97.89 255.76 97.90
  C 251.40 98.08 246.05 99.21 241.83 98.43
  C 238.22 97.76 236.02 99.14 233.05 100.27
  Q 232.52 100.47 232.27 100.98
  Q 231.75 102.04 230.64 102.60
  A 0.53 0.53 0.0 0 0 230.50 103.45
  Q 231.14 104.07 232.60 104.47
  C 226.93 103.91 222.23 104.91 216.90 105.22
  Q 217.53 103.50 217.37 102.50
  Q 217.22 101.59 216.35 101.53
  Q 232.65 98.55 247.23 89.21
  C 253.50 85.20 259.19 80.93 265.33 77.88
  Q 280.29 70.45 288.71 67.18
  Q 295.24 64.65 308.50 61.72
  Q 320.18 59.13 336.40 60.04
  Z"
/>
<path fill="#8d2356" d="
  M 156.66 139.08
  C 155.89 139.58 154.63 140.93 153.52 141.23
  Q 151.94 141.67 152.86 140.31
  C 156.10 135.54 161.23 135.86 166.38 135.83
  Q 167.10 135.83 166.95 136.54
  L 166.87 136.94
  A 0.67 0.66 -78.1 0 1 166.09 137.45
  Q 160.90 136.37 156.66 139.08
  Z"
/>
<path fill="#8d2356" d="
  M 110.37 140.46
  C 106.77 141.04 105.03 142.98 101.82 143.79
  Q 100.44 144.14 100.60 142.72
  C 100.91 139.93 108.84 138.99 110.65 139.00
  Q 111.08 139.00 111.06 139.43
  L 111.05 139.69
  Q 111.03 140.36 110.37 140.46
  Z"
/>
<path fill="#8d2356" d="
  M 174.56 169.05
  Q 176.81 167.23 179.41 165.13
  Q 180.62 164.15 180.44 166.38
  A 1.62 1.60 80.9 0 1 179.47 167.73
  Q 175.17 169.55 173.81 174.06
  Q 173.66 174.55 173.22 174.81
  C 169.34 177.08 165.08 177.75 161.17 179.32
  C 157.27 180.89 151.06 182.36 146.98 181.41
  A 0.94 0.94 0.0 0 1 146.25 180.53
  C 145.88 172.29 146.67 163.12 155.30 159.19
  Q 160.17 156.97 164.00 157.07
  C 166.19 157.13 169.37 160.70 171.08 162.16
  A 1.34 1.34 0.0 0 0 172.54 162.34
  L 178.36 159.47
  A 0.74 0.74 0.0 0 1 179.41 159.99
  L 179.51 160.50
  A 1.02 1.02 0.0 0 1 178.90 161.65
  L 172.97 164.06
  Q 172.69 164.18 172.78 164.46
  L 174.29 168.97
  Q 174.37 169.21 174.56 169.05
  Z
  M 162.03 158.69
  Q 160.47 159.52 161.65 160.83
  C 162.73 162.02 165.64 163.95 165.54 166.00
  Q 165.39 169.43 165.29 172.49
  Q 165.20 175.37 168.09 175.37
  L 168.74 175.37
  Q 171.94 175.37 171.85 172.18
  Q 171.61 164.08 165.75 158.52
  Q 164.53 157.36 163.05 158.15
  L 162.03 158.69
  Z
  M 151.46 176.95
  C 154.37 177.79 159.55 177.03 160.28 173.45
  C 160.78 171.02 159.78 169.44 157.42 168.53
  C 155.31 167.71 152.38 166.95 151.13 169.12
  Q 149.36 172.17 150.77 175.47
  Q 150.99 175.98 150.49 176.24
  Q 149.77 176.62 149.29 177.30
  A 0.25 0.24 16.0 0 0 149.51 177.69
  Q 150.19 177.63 150.68 177.15
  Q 151.01 176.82 151.46 176.95
  Z"
/>
<path fill="#fecdfa" d="
  M 162.03 158.69
  L 163.05 158.15
  Q 164.53 157.36 165.75 158.52
  Q 171.61 164.08 171.85 172.18
  Q 171.94 175.37 168.74 175.37
  L 168.09 175.37
  Q 165.20 175.37 165.29 172.49
  Q 165.39 169.43 165.54 166.00
  C 165.64 163.95 162.73 162.02 161.65 160.83
  Q 160.47 159.52 162.03 158.69
  Z"
/>
<path fill="#8d2356" d="
  M 123.13 202.42
  C 119.19 205.77 113.54 204.98 109.53 202.66
  C 104.95 200.00 104.50 193.16 106.75 188.77
  Q 108.84 184.70 110.23 182.12
  Q 111.79 179.22 108.87 180.72
  Q 103.31 183.57 97.76 180.42
  A 0.90 0.87 8.7 0 1 97.34 179.87
  Q 95.08 171.54 99.27 165.44
  Q 103.66 159.04 111.00 162.55
  C 115.47 164.69 117.18 167.61 118.82 173.10
  A 0.48 0.48 0.0 0 1 118.48 173.70
  L 118.22 173.77
  A 1.17 1.16 70.8 0 1 116.86 173.11
  C 115.63 170.26 113.59 165.05 110.30 164.23
  Q 109.69 164.07 109.87 164.67
  Q 111.53 170.08 111.52 176.73
  C 111.52 179.18 113.45 179.36 115.25 178.44
  C 121.92 175.03 127.96 174.73 134.56 176.75
  Q 138.64 178.00 134.37 178.00
  C 131.42 178.00 127.82 176.94 124.86 177.29
  Q 120.09 177.84 116.03 180.30
  C 109.04 184.53 103.16 204.26 117.75 202.36
  C 120.60 201.99 120.83 200.58 122.14 198.69
  A 2.28 2.28 0.0 0 1 125.05 197.97
  C 133.25 202.15 138.71 203.32 147.10 198.35
  A 1.07 1.06 53.0 0 0 147.33 196.70
  C 145.47 194.72 143.77 193.07 143.60 189.76
  Q 143.57 189.26 144.03 189.07
  Q 144.40 188.91 144.78 189.11
  Q 145.07 189.26 145.31 189.72
  Q 150.37 199.20 161.52 197.99
  Q 162.31 197.91 162.75 198.40
  A 0.41 0.41 0.0 0 1 162.61 199.05
  C 158.90 200.65 155.19 199.72 151.61 198.81
  A 2.34 2.34 0.0 0 0 149.45 199.36
  C 146.78 201.82 143.76 202.37 140.35 203.15
  C 136.66 203.99 137.01 206.14 134.35 207.59
  Q 129.07 210.46 124.41 206.36
  Q 122.56 204.73 123.33 202.56
  Q 123.49 202.12 123.13 202.42
  Z
  M 107.38 172.85
  A 1.97 1.97 0.0 0 0 105.79 170.84
  L 101.93 170.09
  A 1.97 1.97 0.0 0 0 99.59 171.93
  L 99.40 176.02
  A 1.97 1.97 0.0 0 0 101.45 178.08
  L 105.38 177.91
  A 1.97 1.97 0.0 0 0 107.26 176.02
  L 107.38 172.85
  Z
  M 133.45 204.31
  A 0.55 0.55 0.0 0 0 133.12 203.38
  L 129.34 202.86
  A 0.55 0.55 0.0 0 0 128.73 203.25
  L 128.16 205.14
  A 0.55 0.55 0.0 0 0 128.50 205.82
  L 130.77 206.63
  A 0.55 0.55 0.0 0 0 131.36 206.49
  L 133.45 204.31
  Z"
/>
<path fill="#a1c0eb" d="
  M 150.68 177.15
  Q 150.19 177.63 149.51 177.69
  A 0.25 0.24 16.0 0 1 149.29 177.30
  Q 149.77 176.62 150.49 176.24
  Q 150.99 175.98 150.77 175.47
  Q 149.36 172.17 151.13 169.12
  C 152.38 166.95 155.31 167.71 157.42 168.53
  C 159.78 169.44 160.78 171.02 160.28 173.45
  C 159.55 177.03 154.37 177.79 151.46 176.95
  Q 151.01 176.82 150.68 177.15
  Z"
/>
<path fill="#a1c0eb" d="
  M 107.38 172.85
  L 107.26 176.02
  A 1.97 1.97 0.0 0 1 105.38 177.91
  L 101.45 178.08
  A 1.97 1.97 0.0 0 1 99.40 176.02
  L 99.59 171.93
  A 1.97 1.97 0.0 0 1 101.93 170.09
  L 105.79 170.84
  A 1.97 1.97 0.0 0 1 107.38 172.85
  Z"
/>
<path fill="#8d2356" d="
  M 169.85 184.69
  C 176.49 179.06 186.54 175.73 195.00 174.33
  Q 196.75 174.04 197.25 174.10
  Q 200.41 174.52 197.33 175.32
  Q 191.22 176.92 184.25 179.18
  Q 180.63 180.35 171.11 186.29
  Q 170.71 186.54 170.36 186.57
  Q 169.73 186.61 169.56 186.29
  A 1.28 1.28 0.0 0 1 169.85 184.69
  Z"
/>
<path fill="#8d2356" d="
  M 129.38 181.60
  A 2.09 2.09 0.0 0 1 131.86 183.21
  L 131.92 183.48
  A 7.69 7.35 77.9 0 1 126.34 192.54
  L 126.30 192.55
  A 7.69 7.35 77.9 0 1 117.51 186.57
  L 117.45 186.30
  A 2.09 2.09 0.0 0 1 119.05 183.82
  L 129.38 181.60
  Z
  M 121.43 187.19
  C 122.08 187.95 122.07 188.92 122.72 189.54
  C 125.50 192.18 129.41 188.25 129.18 185.25
  A 1.77 1.76 73.0 0 0 126.55 183.85
  Q 123.82 185.40 120.62 185.61
  A 0.53 0.53 0.0 0 0 120.24 186.47
  Q 120.44 186.72 120.74 186.79
  Q 121.16 186.87 121.43 187.19
  Z"
/>
<path fill="#fecdfa" d="
  M 120.74 186.79
  Q 120.44 186.72 120.24 186.47
  A 0.53 0.53 0.0 0 1 120.62 185.61
  Q 123.82 185.40 126.55 183.85
  A 1.77 1.76 73.0 0 1 129.18 185.25
  C 129.41 188.25 125.50 192.18 122.72 189.54
  C 122.07 188.92 122.08 187.95 121.43 187.19
  Q 121.16 186.87 120.74 186.79
  Z"
/>
<path fill="#8d2356" d="
  M 173.15 191.34
  C 186.45 186.44 195.47 184.64 208.58 187.62
  A 0.60 0.59 11.8 0 1 209.03 188.30
  L 208.97 188.60
  A 0.30 0.29 9.9 0 1 208.63 188.83
  Q 201.96 187.58 195.22 187.94
  C 188.16 188.31 180.24 191.13 172.84 193.21
  A 0.41 0.40 83.0 0 1 172.33 192.81
  L 172.34 192.48
  A 1.25 1.24 80.7 0 1 173.15 191.34
  Z"
/>
<path fill="#fecdfa" d="
  M 133.45 204.31
  L 131.36 206.49
  A 0.55 0.55 0.0 0 1 130.77 206.63
  L 128.50 205.82
  A 0.55 0.55 0.0 0 1 128.16 205.14
  L 128.73 203.25
  A 0.55 0.55 0.0 0 1 129.34 202.86
  L 133.12 203.38
  A 0.55 0.55 0.0 0 1 133.45 204.31
  Z"
/>
<path fill="#fecdfa" d="
  M 71.01 243.36
  C 73.10 240.83 69.26 237.41 67.60 235.88
  A 0.48 0.47 -28.4 0 1 67.85 235.06
  Q 78.38 233.31 85.54 239.68
  C 92.78 246.12 98.97 251.21 109.20 251.45
  C 116.70 251.62 123.43 246.03 129.32 242.64
  Q 130.00 242.25 129.71 242.97
  C 126.83 250.25 121.33 256.61 118.67 262.69
  Q 116.31 268.09 117.68 274.74
  Q 118.40 278.23 116.89 282.39
  Q 116.72 282.85 116.23 282.80
  Q 90.17 279.94 69.40 264.10
  C 64.23 260.16 59.12 254.68 58.39 247.93
  A 1.34 1.34 0.0 0 1 60.54 246.72
  C 61.57 247.51 64.05 249.78 65.46 248.60
  A 1.14 1.14 0.0 0 0 65.45 246.85
  C 63.52 245.25 60.98 243.44 60.73 240.87
  Q 60.42 237.86 63.51 236.63
  Q 63.99 236.43 64.14 236.93
  Q 65.61 241.70 70.16 243.57
  Q 70.66 243.78 71.01 243.36
  Z
  M 81.31 249.65
  C 78.19 247.94 77.36 245.34 78.29 241.50
  A 1.32 1.31 -78.3 0 0 77.24 239.89
  L 76.65 239.78
  A 2.05 2.04 -79.2 0 0 74.29 241.39
  C 73.56 244.99 75.73 253.47 81.16 251.53
  A 1.04 1.03 -40.5 0 0 81.31 249.65
  Z"
/>
<path fill="#8d2356" d="
  M 78.29 241.50
  C 77.36 245.34 78.19 247.94 81.31 249.65
  A 1.04 1.03 -40.5 0 1 81.16 251.53
  C 75.73 253.47 73.56 244.99 74.29 241.39
  A 2.05 2.04 -79.2 0 1 76.65 239.78
  L 77.24 239.89
  A 1.32 1.31 -78.3 0 1 78.29 241.50
  Z"
/>
<path fill="#8d2356" d="
  M 152.34 272.61
  A 1.00 0.99 72.2 0 1 153.16 271.01
  Q 158.01 271.15 162.51 269.36
  A 0.44 0.43 -8.1 0 1 163.10 269.80
  L 163.07 270.18
  Q 163.00 270.96 162.30 271.31
  C 160.62 272.15 158.21 272.97 156.99 274.47
  C 154.97 276.95 153.81 278.95 150.02 277.73
  Q 146.25 276.51 142.49 275.23
  A 0.98 0.96 -52.4 0 0 141.64 275.35
  L 139.72 276.66
  Q 139.27 276.96 138.80 276.67
  C 136.73 275.37 134.44 274.41 132.80 272.74
  Q 129.19 269.07 127.26 263.99
  A 0.35 0.35 0.0 0 1 127.75 263.55
  Q 128.53 263.95 129.13 264.84
  C 131.08 267.77 134.92 273.11 138.52 272.74
  Q 139.02 272.69 139.31 272.30
  L 140.43 270.79
  Q 140.78 270.32 141.16 270.77
  C 143.51 273.62 148.89 274.43 152.33 275.64
  A 0.69 0.68 7.3 0 0 153.24 274.94
  Q 153.13 273.65 152.34 272.61
  Z"
/>
<path fill="#fecdfa" d="
  M 279.18 324.99
  A 1.05 1.04 62.7 0 0 278.77 326.29
  C 279.57 328.22 280.22 330.11 279.10 332.09
  Q 275.26 338.86 267.03 334.85
  Q 266.20 334.45 266.29 333.53
  Q 266.76 328.68 266.50 323.42
  C 266.39 321.28 267.25 319.85 268.13 318.04
  C 270.20 313.83 266.56 307.47 263.60 303.39
  Q 262.36 301.69 261.95 298.74
  A 1.13 1.12 60.8 0 1 262.19 297.87
  C 266.01 293.14 274.89 290.93 278.43 297.38
  A 1.64 1.63 -24.7 0 0 280.44 298.12
  C 288.78 294.96 289.33 305.06 287.20 310.06
  C 286.69 311.26 286.57 312.80 287.01 313.99
  C 288.88 319.11 290.43 325.01 284.67 327.56
  Q 284.19 327.77 283.80 327.41
  Q 282.12 325.89 280.17 325.08
  Q 279.48 324.80 279.18 324.99
  Z"
/>
<path fill="#fecdfa" d="
  M 119.73 309.42
  Q 120.37 309.81 120.75 310.50
  C 130.52 328.43 147.05 340.32 166.95 342.96
  A 1.14 1.12 -15.6 0 1 167.67 343.36
  Q 168.46 344.31 167.26 345.24
  Q 164.76 347.15 161.96 348.57
  C 159.22 349.95 156.84 349.08 154.31 347.84
  A 0.66 0.66 0.0 0 0 153.37 348.36
  Q 153.24 349.69 153.85 350.92
  Q 154.15 351.53 154.69 351.11
  Q 155.77 350.26 157.20 350.29
  A 0.93 0.93 0.0 0 1 157.93 350.67
  L 158.12 350.93
  A 0.56 0.55 56.6 0 1 157.96 351.73
  C 145.75 359.10 128.71 358.30 120.94 345.27
  C 119.09 342.15 119.52 338.63 115.54 337.37
  C 112.06 336.26 111.91 331.73 111.81 328.53
  C 111.62 321.83 113.62 314.64 119.22 310.46
  Q 119.49 310.26 119.73 309.42
  Z"
/>
<path fill="#90d99e" d="
  M 114.94 344.55
  Q 113.20 343.70 112.64 341.49
  Q 112.51 340.98 111.94 341.05
  A 0.67 0.66 82.5 0 0 111.38 341.79
  Q 111.43 342.22 111.18 342.57
  Q 110.95 342.90 110.56 343.02
  C 106.66 344.20 102.09 341.13 99.72 338.28
  Q 99.66 338.21 99.66 338.11
  Q 99.67 337.95 99.75 337.85
  Q 104.34 335.92 109.31 335.52
  Q 109.82 335.48 110.00 335.96
  C 111.51 340.08 115.71 339.41 117.40 344.06
  A 0.76 0.75 89.0 0 1 116.46 345.04
  L 114.94 344.55
  Z"
/>
<path fill="#4f5340" d="
  M 99.75 337.85
  Q 99.67 337.95 99.66 338.11
  Q 99.66 338.21 99.72 338.28
  C 102.09 341.13 106.66 344.20 110.56 343.02
  Q 110.95 342.90 111.18 342.57
  Q 111.43 342.22 111.38 341.79
  A 0.67 0.66 82.5 0 1 111.94 341.05
  Q 112.51 340.98 112.64 341.49
  Q 113.20 343.70 114.94 344.55
  Q 115.04 345.64 114.25 345.48
  C 109.12 345.09 105.45 345.88 100.71 342.05
  Q 100.48 341.86 100.00 341.87
  Q 99.54 341.88 99.55 341.42
  Q 99.63 339.10 98.72 338.39
  Q 98.96 338.01 99.75 337.85
  Z"
/>
<path fill="#90d99e" d="
  M 98.72 338.39
  Q 99.63 339.10 99.55 341.42
  Q 99.54 341.88 100.00 341.87
  Q 100.48 341.86 100.71 342.05
  C 105.45 345.88 109.12 345.09 114.25 345.48
  Q 115.72 346.18 116.84 345.93
  Q 118.03 345.66 118.83 346.58
  C 123.82 352.33 127.62 356.38 135.39 358.11
  C 138.53 358.81 142.38 358.43 145.90 358.68
  A 0.63 0.63 0.0 0 1 146.27 359.77
  L 144.68 361.23
  A 3.60 3.58 -62.5 0 1 141.83 362.14
  C 135.23 361.36 130.15 360.68 122.66 360.30
  C 113.46 359.83 93.26 355.96 92.60 343.45
  Q 92.57 342.98 92.82 342.59
  Q 94.73 339.65 98.72 338.39
  Z"
/>
<path fill="#fb91bc" d="
  M 141.48 367.54
  L 141.58 367.85
  A 0.80 0.80 0.0 0 1 140.83 368.90
  C 134.10 368.93 129.41 368.03 123.59 367.42
  C 118.19 366.86 113.60 365.51 108.57 364.11
  C 105.39 363.23 102.68 361.77 99.67 360.43
  C 96.96 359.21 94.37 357.15 91.41 355.87
  Q 90.94 355.67 90.81 355.18
  Q 90.13 352.78 90.52 350.26
  Q 90.68 349.15 91.70 349.11
  A 0.69 0.68 -10.1 0 1 92.38 349.58
  Q 92.85 351.06 93.92 352.09
  C 101.58 359.44 113.68 361.95 123.76 363.67
  Q 131.69 365.03 139.67 366.07
  A 2.20 2.19 -5.7 0 1 141.48 367.54
  Z"
/>
<path fill="#fb91bc" d="
  M 105.56 366.92
  Q 104.67 367.08 104.83 368.73
  Q 102.72 369.17 103.28 371.26
  C 104.06 374.18 109.38 374.14 111.58 373.67
  A 1.45 1.44 79.7 0 0 112.71 372.03
  Q 112.43 370.21 110.82 369.87
  L 111.09 368.67
  L 116.41 369.97
  A 0.38 0.38 0.0 0 1 116.59 370.61
  C 113.46 373.75 114.33 378.32 108.26 377.56
  C 102.87 376.88 101.34 373.73 99.49 369.23
  Q 99.02 368.09 97.49 367.29
  C 95.45 366.23 90.90 363.48 90.99 360.80
  A 1.18 1.18 0.0 0 1 92.85 359.88
  Q 95.65 361.87 98.35 364.15
  C 100.62 366.07 102.83 366.17 105.56 366.92
  Z"
/>
<path fill="#90d99e" d="
  M 203.18 396.71
  C 195.25 395.54 196.12 387.41 198.57 382.01
  Q 203.04 381.59 206.95 382.92
  Q 207.41 383.07 207.59 383.52
  C 209.30 387.70 215.12 387.15 218.26 385.45
  C 220.55 384.21 220.17 380.97 221.88 379.05
  Q 222.69 378.14 225.30 376.64
  C 229.87 374.01 233.34 370.30 238.42 368.66
  C 240.98 367.83 242.92 366.13 245.44 365.05
  Q 245.98 364.82 246.06 365.40
  C 246.27 366.91 246.11 368.05 245.08 369.32
  C 243.87 370.82 243.04 372.73 242.13 374.06
  C 236.59 382.20 230.11 386.40 224.24 391.02
  Q 215.01 398.29 203.18 396.71
  Z"
/>
<path fill="#fca2ec" d="
  M 105.56 366.92
  Q 108.69 366.67 111.09 368.67
  L 110.82 369.87
  Q 107.39 370.65 104.83 368.73
  Q 104.67 367.08 105.56 366.92
  Z"
/>
<path fill="#c63680" d="
  M 251.86 368.94
  Q 252.61 372.65 251.56 375.91
  A 2.75 2.72 32.9 0 0 252.15 378.60
  C 254.12 380.77 256.83 387.75 254.11 390.32
  Q 247.13 396.89 238.84 392.39
  A 1.06 1.06 0.0 0 0 237.87 392.37
  Q 235.88 393.36 234.78 395.28
  Q 234.49 395.79 234.63 396.35
  C 235.84 401.36 236.11 404.57 231.99 408.23
  C 227.83 411.95 222.52 410.48 218.41 407.44
  C 217.32 406.64 216.85 405.01 214.88 404.62
  C 211.40 403.94 207.67 403.94 204.35 402.28
  C 201.26 400.73 197.90 397.19 195.84 394.66
  C 193.53 391.80 194.72 385.53 196.01 381.05
  Q 196.62 380.99 196.91 381.50
  Q 197.14 381.92 197.60 381.81
  Q 198.35 381.65 198.57 382.01
  C 196.12 387.41 195.25 395.54 203.18 396.71
  Q 202.73 397.60 204.56 398.21
  Q 205.35 398.47 206.45 398.37
  Q 209.69 398.05 212.93 398.15
  Q 212.52 399.76 213.99 399.90
  Q 215.03 400.00 216.06 399.75
  A 1.94 1.88 45.9 0 1 217.02 399.78
  Q 219.65 400.60 222.09 399.06
  C 227.67 395.55 233.84 391.57 238.16 386.54
  A 1.20 1.16 64.7 0 0 238.44 385.72
  Q 238.40 384.05 239.20 383.44
  Q 245.72 378.48 246.84 370.94
  Q 246.37 369.23 248.65 367.39
  A 0.79 0.78 -24.2 0 1 249.92 367.87
  Q 250.12 369.06 250.85 370.00
  Q 251.86 371.28 251.54 369.63
  Q 251.50 369.43 251.86 368.94
  Z
  M 232.83 396.31
  L 229.17 401.66
  A 0.12 0.12 0.0 0 0 229.20 401.82
  L 229.23 401.84
  A 2.48 1.93 -55.6 0 0 232.22 400.88
  L 233.22 399.43
  A 2.48 1.93 -55.6 0 0 233.02 396.29
  L 233.00 396.28
  A 0.12 0.12 0.0 0 0 232.83 396.31
  Z
  M 224.47 400.76
  A 0.45 0.44 47.7 0 0 224.44 401.44
  Q 225.07 402.04 225.97 402.12
  Q 226.63 402.18 226.75 401.53
  L 226.93 400.53
  A 0.51 0.50 0.8 0 0 226.35 399.94
  Q 225.31 400.12 224.47 400.76
  Z
  M 226.34 406.04
  Q 225.40 403.88 223.20 404.80
  A 0.58 0.57 71.2 0 1 222.42 404.41
  Q 222.35 404.14 222.38 403.87
  Q 222.40 403.51 222.05 403.53
  L 218.75 403.66
  A 0.51 0.49 5.4 0 0 218.29 404.03
  Q 218.13 404.60 218.48 405.03
  C 221.64 408.96 228.68 409.50 232.06 405.39
  Q 232.99 404.25 231.53 404.16
  Q 229.73 404.04 228.03 406.25
  A 0.99 0.99 0.0 0 1 226.34 406.04
  Z"
/>
<path fill="#c63680" d="
  M 104.83 368.73
  Q 107.39 370.65 110.82 369.87
  Q 112.43 370.21 112.71 372.03
  A 1.45 1.44 79.7 0 1 111.58 373.67
  C 109.38 374.14 104.06 374.18 103.28 371.26
  Q 102.72 369.17 104.83 368.73
  Z"
/>
<path fill="#c63680" d="
  M 125.69 374.90
  L 125.04 371.30
  Q 127.02 370.37 129.02 371.41
  Q 129.47 371.64 129.97 371.63
  Q 131.51 371.61 133.04 371.63
  C 134.95 371.64 136.78 372.34 138.72 372.68
  A 0.99 0.98 25.9 0 0 139.61 372.38
  Q 140.41 371.55 141.49 371.16
  A 0.29 0.29 0.0 0 1 141.88 371.49
  Q 141.25 374.75 140.32 377.98
  C 139.10 382.19 135.95 381.14 132.74 381.08
  C 127.70 380.99 128.34 377.18 126.82 373.78
  A 0.56 0.56 0.0 0 0 125.74 373.98
  L 125.69 374.90
  Z"
/>
<path fill="#fb91bc" d="
  M 246.84 370.94
  Q 245.72 378.48 239.20 383.44
  Q 238.40 384.05 238.44 385.72
  A 1.20 1.16 64.7 0 1 238.16 386.54
  C 233.84 391.57 227.67 395.55 222.09 399.06
  Q 219.65 400.60 217.02 399.78
  A 1.94 1.88 45.9 0 0 216.06 399.75
  Q 215.03 400.00 213.99 399.90
  Q 212.52 399.76 212.93 398.15
  Q 218.27 398.00 222.74 394.99
  C 229.97 390.09 239.47 382.78 243.98 375.22
  Q 245.26 373.08 246.84 370.94
  Z"
/>
<path fill="#fb91bc" d="
  M 207.63 382.48
  L 217.71 379.94
  A 0.31 0.31 0.0 0 1 218.10 380.25
  L 218.00 383.50
  A 0.31 0.31 0.0 0 1 217.77 383.79
  L 211.64 385.42
  A 0.31 0.31 0.0 0 1 211.40 385.38
  L 207.54 383.04
  A 0.31 0.31 0.0 0 1 207.63 382.48
  Z"
/>
<path fill="#fb91bc" d="
  M 232.83 396.31
  A 0.12 0.12 0.0 0 1 233.00 396.28
  L 233.02 396.29
  A 2.48 1.93 -55.6 0 1 233.22 399.43
  L 232.22 400.88
  A 2.48 1.93 -55.6 0 1 229.23 401.84
  L 229.20 401.82
  A 0.12 0.12 0.0 0 1 229.17 401.66
  L 232.83 396.31
  Z"
/>
<path fill="#fb91bc" d="
  M 224.47 400.76
  Q 225.31 400.12 226.35 399.94
  A 0.51 0.50 0.8 0 1 226.93 400.53
  L 226.75 401.53
  Q 226.63 402.18 225.97 402.12
  Q 225.07 402.04 224.44 401.44
  A 0.45 0.44 47.7 0 1 224.47 400.76
  Z"
/>
<path fill="#fb91bc" d="
  M 226.34 406.04
  A 0.99 0.99 0.0 0 0 228.03 406.25
  Q 229.73 404.04 231.53 404.16
  Q 232.99 404.25 232.06 405.39
  C 228.68 409.50 221.64 408.96 218.48 405.03
  Q 218.13 404.60 218.29 404.03
  A 0.51 0.49 5.4 0 1 218.75 403.66
  L 222.05 403.53
  Q 222.40 403.51 222.38 403.87
  Q 222.35 404.14 222.42 404.41
  A 0.58 0.57 71.2 0 0 223.20 404.80
  Q 225.40 403.88 226.34 406.04
  Z"
/>
</svg>
