<?xml version="1.0" encoding="UTF-8" standalone="no"?>
<!DOCTYPE svg PUBLIC "-//W3C//DTD SVG 1.1//EN" "http://www.w3.org/Graphics/SVG/1.1/DTD/svg11.dtd">
<svg xmlns="http://www.w3.org/2000/svg" version="1.1" viewBox="0.00 0.00 410.00 520.00">
<g stroke-width="2.00" fill="none" stroke-linecap="butt">
<path stroke="#98a0b7" vector-effect="non-scaling-stroke" d="
  M 175.77 393.31
  C 162.55 394.87 148.41 388.89 147.13 374.07
  A 0.75 0.74 -89.1 0 0 146.49 373.40
  Q 145.08 373.21 143.71 373.51
  A 1.31 1.30 70.8 0 1 142.27 372.81
  C 137.96 364.03 141.13 353.45 147.38 346.57
  Q 148.27 345.59 147.70 344.79
  A 0.86 0.85 -36.4 0 0 146.49 344.61
  C 140.91 348.82 137.71 357.56 137.21 364.78
  C 137.16 365.58 137.49 366.62 137.46 367.51
  Q 137.44 368.08 136.87 368.13
  C 127.68 368.79 119.40 372.17 116.38 381.58
  C 115.32 384.86 115.93 388.81 115.60 392.50
  C 115.15 397.69 115.16 402.11 119.77 404.47
  Q 124.04 406.66 125.65 410.04
  C 127.36 413.61 129.16 415.82 133.24 416.74
  C 139.87 418.24 142.54 413.15 144.27 408.01
  A 1.44 1.43 -83.3 0 1 145.49 407.04
  Q 148.14 406.78 150.63 407.65
  A 1.85 1.84 -82.3 0 1 151.86 409.27
  C 152.28 415.46 154.63 420.62 161.44 420.98
  C 166.72 421.26 169.14 415.51 169.85 411.17
  Q 170.65 406.30 176.13 395.65"
/>
<path stroke="#98969e" vector-effect="non-scaling-stroke" d="
  M 176.13 395.65
  Q 185.07 394.37 188.47 391.74
  Q 192.31 388.77 196.48 386.43
  A 0.48 0.48 0.0 0 1 197.20 386.82
  C 197.77 395.99 200.37 405.20 207.61 411.40
  C 209.55 413.06 212.74 413.32 215.24 416.09"
/>
<path stroke="#98a0b7" vector-effect="non-scaling-stroke" d="
  M 215.24 416.09
  Q 218.16 418.86 221.94 420.34
  A 1.51 1.51 0.0 0 1 222.86 422.09
  C 221.89 426.11 220.59 431.15 222.68 435.04
  Q 226.72 442.58 234.94 445.05
  C 237.02 445.68 239.87 445.76 242.33 446.41
  Q 242.83 446.54 243.16 446.93
  C 247.36 451.89 253.34 455.26 259.05 450.57
  Q 264.31 446.24 262.14 438.94
  A 1.33 1.31 52.6 0 1 262.27 437.92
  Q 263.75 435.41 266.55 434.38
  Q 267.02 434.20 267.41 434.50
  Q 273.98 439.36 280.86 434.55
  C 284.59 431.94 283.89 426.18 281.85 422.84
  Q 281.00 421.45 280.35 419.89
  A 1.57 1.54 40.7 0 1 280.27 418.95
  C 281.38 414.42 282.07 411.65 279.21 407.80
  Q 277.53 405.53 278.31 404.15"
/>
<path stroke="#98969e" vector-effect="non-scaling-stroke" d="
  M 278.31 404.15
  Q 287.74 396.59 293.27 386.43
  C 294.20 384.72 294.70 382.42 295.51 380.47
  Q 295.73 379.95 296.25 380.17
  C 303.89 383.33 309.85 383.07 314.20 375.51
  C 315.72 372.85 318.52 373.00 320.26 371.86
  C 325.92 368.18 324.80 363.23 323.66 357.47
  Q 323.34 355.86 324.35 354.60
  C 326.06 352.45 326.13 350.32 326.03 347.20
  C 325.91 343.67 324.35 341.21 321.52 339.38
  C 319.14 337.84 315.24 337.97 313.03 336.47
  Q 303.27 329.85 293.84 336.69
  Q 293.43 336.99 292.93 336.87
  C 289.92 336.12 285.67 332.64 283.34 330.85
  C 277.25 326.17 273.32 323.42 268.40 319.61
  C 264.51 316.59 260.93 312.38 256.99 308.90
  C 255.73 307.79 255.07 306.48 254.66 304.96
  A 0.81 0.80 81.9 0 1 255.42 303.94
  Q 271.89 303.51 286.72 309.05
  Q 290.10 310.31 299.22 315.57
  Q 303.03 317.76 307.74 315.57
  A 1.64 1.58 -85.4 0 0 308.44 314.95
  Q 310.50 311.65 313.66 309.46
  C 318.12 306.39 316.54 302.25 317.49 297.69
  C 321.65 277.61 285.94 267.15 272.73 264.26
  C 268.79 263.39 264.64 262.25 260.25 262.09
  Q 251.51 261.77 244.16 261.85
  Q 240.71 261.89 244.08 261.15
  C 251.08 259.61 259.38 257.72 265.43 254.90
  C 275.97 249.99 284.96 240.95 289.14 229.79
  C 290.12 227.17 289.79 224.76 293.02 223.57
  C 296.11 222.43 295.37 214.21 294.29 211.74
  Q 292.47 207.53 290.95 203.21
  C 289.09 197.89 286.21 194.31 285.23 188.39
  C 282.43 171.52 278.75 158.29 266.23 146.01"
/>
<path stroke="#c8f5fe" vector-effect="non-scaling-stroke" d="
  M 266.23 146.01
  L 265.66 143.90"
/>
<path stroke="#98969e" vector-effect="non-scaling-stroke" d="
  M 265.66 143.90
  Q 269.64 143.36 272.00 143.74
  C 288.74 146.42 306.55 148.43 323.46 146.57
  C 337.53 145.03 351.62 142.33 362.16 134.43
  C 371.00 127.81 382.74 116.97 390.07 106.57
  C 392.59 103.01 396.93 94.25 392.51 90.77
  Q 389.55 88.44 383.52 87.14
  C 360.80 82.23 340.49 84.51 314.58 88.08
  C 312.23 88.41 309.94 89.13 307.59 89.68
  Q 305.34 90.21 306.97 88.57
  Q 312.30 83.18 317.60 76.33
  C 323.64 68.54 314.49 64.23 308.49 63.07
  C 287.60 59.03 268.59 56.20 248.49 63.98
  C 224.15 73.40 199.81 90.12 188.80 114.36
  C 187.46 117.33 181.34 119.09 178.43 120.36
  C 163.07 127.05 151.14 137.71 140.85 150.35
  C 131.82 161.43 127.36 174.89 125.25 189.02
  C 123.84 198.46 123.43 205.72 127.01 213.86
  A 1.12 1.11 -26.8 0 1 126.54 215.28
  Q 120.18 218.88 118.23 226.00
  A 1.65 1.64 8.5 0 1 116.59 227.21
  Q 112.96 227.09 109.54 228.63
  Q 108.49 229.11 108.78 230.04
  A 0.87 0.86 76.0 0 0 109.76 230.64
  L 117.00 229.38
  A 0.62 0.62 0.0 0 1 117.72 230.06
  Q 117.41 233.10 118.32 236.01
  Q 118.47 236.53 118.09 236.89
  C 115.57 239.26 113.10 240.49 111.75 243.91
  A 0.79 0.78 -76.5 0 0 112.40 244.98
  C 114.45 245.18 118.18 238.99 121.67 238.70
  Q 123.65 238.54 124.72 240.52
  C 129.82 249.91 136.86 254.37 146.67 258.34
  C 152.68 260.77 160.32 265.39 164.52 271.11
  A 1.33 1.33 0.0 0 1 164.00 273.10
  C 156.11 276.67 148.03 283.16 138.76 281.60
  Q 131.75 280.42 126.13 276.43
  C 122.66 273.97 118.47 268.73 114.09 266.16
  C 110.36 263.97 104.30 261.31 100.14 262.53
  C 97.65 263.25 95.63 265.82 92.72 266.89
  C 88.29 268.52 88.86 272.10 87.36 275.73
  C 85.41 280.44 86.52 282.80 89.08 286.97
  Q 93.87 294.78 99.67 300.22
  C 110.85 310.70 126.26 317.93 141.53 320.62
  Q 143.62 320.98 145.48 320.97
  A 1.04 1.04 0.0 0 1 146.53 322.06
  C 146.32 327.23 145.80 332.59 146.96 337.63
  C 152.02 359.73 172.87 376.62 194.23 381.21
  Q 194.94 381.36 196.25 381.00
  Q 196.84 380.83 196.66 381.42
  C 195.79 384.28 191.03 386.29 188.53 387.54
  A 2.45 2.44 -40.1 0 1 185.99 387.33
  Q 184.27 386.08 182.24 385.59
  A 0.72 0.72 0.0 0 0 181.36 386.20
  L 181.31 386.70
  Q 181.20 387.58 182.06 387.78
  L 185.26 388.54
  A 0.40 0.40 0.0 0 1 185.46 389.21
  C 182.98 391.76 179.78 392.34 175.77 393.31"
/>
<path stroke="#608c9d" vector-effect="non-scaling-stroke" d="
  M 265.66 143.90
  L 263.72 143.83"
/>
<path stroke="#98969e" vector-effect="non-scaling-stroke" d="
  M 263.72 143.83
  L 257.10 143.59
  A 1.03 1.02 2.2 0 1 256.11 142.53
  L 256.13 142.03
  A 1.15 1.15 0.0 0 1 257.25 140.92
  Q 263.21 140.73 269.05 140.59
  C 273.31 140.49 277.74 141.89 282.06 142.23
  C 294.20 143.18 308.02 144.58 319.00 143.48
  C 325.11 142.87 336.87 141.08 344.49 138.55
  C 348.86 137.10 353.62 135.59 357.40 132.87
  Q 368.08 125.18 377.67 116.17
  C 381.52 112.56 400.21 93.56 388.65 90.52
  Q 378.61 87.88 368.24 86.89
  C 357.15 85.84 343.51 87.44 331.24 88.78
  C 323.65 89.61 315.94 91.03 308.25 92.36
  Q 303.96 93.11 298.86 94.72
  Q 293.42 96.45 287.86 97.82
  Q 282.93 99.03 268.53 106.03
  Q 261.90 109.26 248.24 119.98
  Q 246.38 121.44 240.55 127.25
  A 4.23 4.21 20.0 0 1 237.92 128.47
  L 237.29 128.52
  A 0.84 0.84 0.0 0 1 236.57 127.15
  C 243.74 118.29 251.84 112.41 261.02 106.53
  C 271.72 99.69 283.44 95.13 295.64 92.09
  C 297.90 91.52 300.65 90.46 302.05 89.06
  Q 307.61 83.50 316.12 72.40
  Q 318.67 69.08 315.27 67.57
  C 309.23 64.86 301.31 64.21 292.69 63.26
  C 280.18 61.88 268.31 62.51 256.12 65.73
  C 251.45 66.96 246.81 69.29 242.25 71.33
  C 222.15 80.34 202.49 94.60 192.06 114.55
  Q 191.73 115.18 192.40 115.41
  L 193.85 115.90
  Q 195.61 116.50 193.81 116.98
  C 188.26 118.47 181.73 121.69 176.93 124.28
  Q 149.40 139.16 135.33 167.55
  C 130.66 176.95 129.64 186.34 127.73 198.25
  C 127.24 201.32 128.03 209.74 130.62 213.72
  A 1.63 1.62 -32.5 0 1 130.11 215.98
  C 127.01 217.93 121.56 223.07 121.72 227.17
  A 0.74 0.73 -82.0 0 0 122.22 227.84
  Q 123.41 228.27 124.62 228.61
  Q 124.83 228.66 124.90 228.76
  Q 124.98 228.87 125.00 229.00
  Q 125.09 229.54 124.55 229.59
  L 121.96 229.86
  A 1.23 1.23 0.0 0 0 120.86 231.22
  L 121.31 235.19
  A 1.11 1.10 -9.4 0 0 122.65 236.14
  Q 126.73 235.22 127.05 236.97
  C 128.77 246.08 137.00 251.73 144.85 255.27
  C 154.73 259.73 162.15 263.10 168.64 271.44
  A 1.01 1.00 -14.0 0 1 167.67 273.04
  C 164.13 272.44 163.45 280.24 162.07 282.68
  Q 158.20 289.54 154.00 296.21
  C 151.86 299.61 150.94 302.10 150.94 306.46
  C 150.95 312.01 149.13 317.10 148.74 322.17
  C 148.40 326.66 147.82 331.26 148.82 335.54
  C 151.80 348.37 161.23 361.65 172.58 368.46
  Q 182.99 374.70 196.50 378.77
  Q 197.02 378.92 197.32 378.47
  C 199.19 375.65 200.55 371.83 201.98 369.59
  Q 206.53 362.45 213.07 356.85
  Q 213.27 356.67 213.45 356.88
  L 213.63 357.09
  A 0.58 0.57 46.2 0 1 213.62 357.87
  C 206.47 365.47 198.29 375.12 200.26 386.56
  C 201.62 394.48 203.09 400.38 207.96 406.90
  C 210.48 410.28 213.73 410.36 216.25 414.66"
/>
<path stroke="#303656" vector-effect="non-scaling-stroke" d="
  M 216.25 414.66
  Q 216.47 415.01 216.54 415.38
  Q 216.64 415.87 216.15 415.95
  L 215.24 416.09"
/>
<path stroke="#303656" vector-effect="non-scaling-stroke" d="
  M 176.13 395.65
  L 175.77 393.31"
/>
<path stroke="#608c9d" vector-effect="non-scaling-stroke" d="
  M 266.23 146.01
  Q 265.10 144.53 264.27 145.47"
/>
<path stroke="#c8f5fe" vector-effect="non-scaling-stroke" d="
  M 263.72 143.83
  Q 264.31 144.11 264.27 145.47"
/>
<path stroke="#98969e" vector-effect="non-scaling-stroke" d="
  M 264.27 145.47
  Q 263.41 147.59 265.10 149.17
  Q 274.88 158.35 278.74 170.49
  Q 281.56 179.36 282.18 185.00
  Q 282.94 191.92 285.46 197.25
  Q 287.63 201.84 288.20 203.42
  C 290.10 208.72 292.32 212.84 292.15 218.60
  A 0.66 0.66 0.0 0 1 291.29 219.20
  L 288.88 218.42
  A 0.90 0.90 0.0 0 0 287.71 219.13
  C 284.98 235.83 273.93 249.19 257.79 254.56
  C 247.15 258.09 236.86 259.47 226.62 263.31
  Q 225.28 263.81 224.58 264.85
  A 0.55 0.55 0.0 0 0 225.07 265.71
  C 230.17 265.35 235.03 264.34 239.99 264.58
  C 247.76 264.97 256.02 265.01 263.21 266.10
  Q 281.96 268.96 299.32 276.77
  Q 309.96 281.55 314.80 292.07
  Q 315.81 294.27 315.40 296.26
  Q 315.14 297.47 314.44 296.45
  Q 313.20 294.65 311.09 293.99
  A 1.03 1.03 0.0 0 0 309.83 295.38
  L 311.77 299.86
  A 1.60 1.59 -22.3 0 1 310.88 301.97
  L 308.91 302.74
  Q 308.35 302.96 308.21 303.54
  C 306.97 308.82 305.40 315.33 298.18 310.27
  C 289.40 304.12 281.55 301.91 270.51 300.40
  C 261.05 299.10 254.15 300.79 245.62 301.41
  Q 244.79 301.47 243.94 301.70
  Q 243.45 301.83 243.33 302.32
  Q 243.24 302.72 243.46 303.05
  Q 243.69 303.41 244.34 303.59
  Q 247.29 304.39 250.00 304.20
  A 1.53 1.53 0.0 0 1 251.58 305.35
  C 253.15 311.55 258.41 315.89 262.86 320.06
  Q 266.07 323.08 271.58 326.82
  C 277.74 331.01 283.66 335.28 289.95 339.37
  C 292.37 340.95 291.88 343.70 293.16 346.07
  C 294.96 349.40 297.34 354.40 296.72 357.01
  C 296.11 359.61 295.41 361.97 295.12 364.72
  Q 293.92 376.41 288.33 386.79
  C 284.80 393.34 279.48 398.21 274.08 403.31"
/>
<path stroke="#98a0b7" vector-effect="non-scaling-stroke" d="
  M 274.08 403.31
  Q 268.88 406.52 263.15 409.30
  C 259.54 411.06 256.32 413.89 253.42 415.42
  C 243.14 420.86 225.91 422.36 216.25 414.66"
/>
<path stroke="#303656" vector-effect="non-scaling-stroke" d="
  M 278.31 404.15
  Q 274.91 405.48 274.08 403.31"
/>
<path stroke="#98969e" vector-effect="non-scaling-stroke" d="
  M 104.24 273.20
  Q 105.92 274.49 103.82 274.81
  C 99.30 275.49 97.32 272.84 96.09 269.11
  Q 95.66 267.80 94.50 268.54
  C 89.16 271.96 93.31 275.31 95.91 278.19
  A 1.65 1.64 -47.9 0 1 96.01 280.28
  L 95.80 280.57
  A 1.06 1.06 0.0 0 1 94.43 280.85
  Q 92.24 279.56 90.81 277.44
  A 0.47 0.47 0.0 0 0 90.00 277.48
  C 87.51 282.25 95.03 291.93 98.29 294.98
  Q 108.40 304.44 123.60 310.87
  C 129.91 313.54 136.89 315.41 143.74 317.07
  Q 145.02 317.38 146.44 317.27
  Q 146.95 317.23 147.18 316.78
  Q 148.64 314.00 148.78 310.90
  Q 148.81 310.29 148.04 306.65
  C 146.65 300.08 155.24 288.11 159.23 283.12
  C 160.08 282.05 161.19 280.07 161.40 279.00
  Q 161.96 276.25 159.79 278.04
  C 155.32 281.73 146.40 286.43 140.49 285.70
  C 130.25 284.45 123.49 278.91 116.52 271.75
  C 112.24 267.35 106.79 266.86 100.79 266.43
  A 1.04 1.04 0.0 0 0 99.80 267.95
  Q 101.44 271.06 104.24 273.20"
/>
<path stroke="#c8f5fe" vector-effect="non-scaling-stroke" d="
  M 274.79 133.49
  Q 275.46 133.45 275.87 133.79
  Q 276.21 134.09 276.15 134.54
  Q 276.01 135.54 276.99 135.86
  Q 279.19 136.59 281.33 135.75
  Q 281.80 135.57 282.30 135.62
  Q 286.34 136.04 290.40 136.11
  C 293.26 136.17 297.26 136.93 300.80 136.38
  Q 304.18 135.85 306.26 135.93
  C 313.17 136.22 319.92 135.25 326.62 135.07
  C 332.20 134.91 337.57 134.67 342.99 132.88
  C 348.56 131.04 354.66 129.31 358.98 125.46
  C 363.42 121.51 367.91 118.17 371.05 113.90
  Q 374.03 109.84 376.72 105.44
  A 1.66 1.66 0.0 0 0 375.03 102.93
  C 373.40 103.21 371.84 102.33 370.30 102.37
  C 366.12 102.47 362.37 102.51 357.85 103.08
  Q 355.78 103.34 352.50 103.62
  Q 346.08 104.16 334.66 107.76
  C 332.41 108.47 329.72 109.83 327.10 110.53
  C 323.56 111.49 319.52 112.64 316.30 114.21
  Q 308.19 118.17 300.06 122.08
  C 295.90 124.08 291.79 127.33 287.76 129.14
  Q 286.80 129.57 286.52 128.18"
/>
<path stroke="#98a0b7" vector-effect="non-scaling-stroke" d="
  M 286.52 128.18
  C 298.13 121.25 310.31 114.46 323.03 109.79
  C 331.65 106.62 336.79 104.92 345.13 102.94
  C 352.20 101.26 359.09 100.90 366.26 100.45
  C 370.89 100.16 375.61 101.42 380.10 100.44
  A 0.74 0.74 0.0 0 0 380.41 99.15
  Q 379.42 98.32 377.77 98.07
  Q 363.34 95.89 348.96 97.83
  C 343.10 98.62 336.57 100.56 330.49 102.17
  Q 321.44 104.56 309.75 110.13
  C 302.66 113.50 295.59 117.91 288.73 122.19
  C 279.16 128.17 267.21 132.52 254.92 134.78
  Q 253.56 135.02 253.50 136.40
  L 253.48 136.72
  A 1.02 1.02 0.0 0 0 254.53 137.79
  Q 263.11 137.51 265.51 136.63
  Q 270.11 134.95 274.79 133.49"
/>
<path stroke="#6096b6" vector-effect="non-scaling-stroke" d="
  M 286.52 128.18
  L 274.79 133.49"
/>
<path stroke="#98969e" vector-effect="non-scaling-stroke" d="
  M 204.89 170.61
  C 199.45 169.56 193.77 169.22 190.21 174.23
  A 0.64 0.63 26.6 0 0 190.54 175.20
  Q 191.42 175.49 192.40 174.64
  Q 197.01 170.66 203.25 172.00
  Q 204.06 172.18 204.74 171.70
  L 205.07 171.48
  A 0.48 0.48 0.0 0 0 204.89 170.61"
/>
<path stroke="#98969e" vector-effect="non-scaling-stroke" d="
  M 138.26 175.82
  C 142.07 174.71 143.51 172.21 148.01 172.70
  Q 148.25 172.72 148.46 172.65
  Q 148.85 172.53 148.88 172.48
  Q 149.36 171.82 148.60 171.54
  C 146.06 170.59 135.95 170.19 137.48 175.39
  Q 137.66 175.99 138.26 175.82"
/>
<path stroke="#98969e" vector-effect="non-scaling-stroke" d="
  M 210.04 200.20
  Q 209.88 199.36 210.69 199.09
  L 215.75 197.41
  A 1.24 1.24 0.0 0 0 215.17 195.01
  C 213.31 195.31 211.14 196.82 209.68 198.02
  Q 209.26 198.37 208.87 197.99
  Q 206.71 195.84 204.64 193.62
  C 202.76 191.60 198.43 192.11 195.97 192.32
  C 184.48 193.29 180.97 205.75 182.27 215.08
  A 1.34 1.33 87.1 0 0 183.53 216.22
  Q 186.79 216.36 189.92 216.06
  C 194.36 215.64 199.19 213.69 203.74 212.45
  C 205.10 212.08 206.12 211.36 207.33 210.67
  A 1.66 1.64 31.3 0 1 208.26 210.45
  C 210.85 210.59 211.08 207.96 211.60 206.14
  A 1.07 1.07 0.0 0 1 212.20 205.46
  C 214.59 204.48 216.60 204.09 217.94 201.66
  A 0.87 0.87 0.0 0 0 217.23 200.37
  Q 216.70 200.33 216.04 200.80
  Q 213.69 202.47 211.46 204.21
  Q 210.89 204.65 210.75 203.94
  L 210.04 200.20"
/>
<path stroke="#98969e" vector-effect="non-scaling-stroke" d="
  M 146.11 198.95
  Q 145.63 194.76 148.14 198.15
  Q 150.04 200.72 150.91 205.08
  A 3.33 3.30 12.2 0 0 152.23 207.11
  L 152.68 207.43
  A 0.71 0.71 0.0 0 0 153.80 206.76
  C 152.88 199.41 150.62 195.17 143.50 193.75
  C 137.60 192.57 135.27 195.34 132.83 200.28
  Q 130.09 205.82 132.00 212.30
  A 2.01 1.99 -84.6 0 0 132.97 213.49
  Q 138.02 216.18 143.30 213.90
  Q 147.11 212.25 144.68 215.62
  C 142.09 219.21 140.24 222.00 139.79 227.26
  C 139.11 235.09 145.67 238.60 152.75 238.04
  C 155.60 237.82 156.82 236.32 158.65 239.79
  C 160.74 243.78 167.11 243.18 170.34 240.96
  C 172.15 239.71 171.45 238.23 174.36 237.73
  C 177.62 237.16 181.04 236.56 183.78 234.59
  C 184.82 233.83 186.05 233.40 187.16 233.82
  C 189.30 234.63 195.86 236.18 197.79 234.91
  Q 199.00 234.13 197.59 233.83
  C 190.95 232.45 184.10 232.34 181.22 224.35
  Q 179.99 220.93 179.08 224.45
  C 178.47 226.83 180.84 229.76 182.23 231.76
  Q 182.54 232.19 182.09 232.49
  Q 176.46 236.25 169.81 235.77
  C 167.57 235.61 165.05 234.50 162.77 233.79
  C 161.88 233.51 161.56 232.93 161.31 232.10
  Q 161.18 231.70 160.81 231.50
  C 157.63 229.80 156.35 233.78 153.89 234.91
  C 148.42 237.43 142.88 233.57 143.03 227.51
  Q 143.21 220.50 149.49 215.01
  C 155.89 209.43 162.11 210.50 169.77 211.88
  Q 171.06 212.11 172.10 211.59
  A 0.32 0.31 41.3 0 0 172.06 211.01
  C 163.77 208.08 157.01 208.05 148.89 211.34
  Q 146.97 212.11 147.15 210.05
  C 147.41 207.25 147.82 203.35 146.81 200.91
  Q 146.15 199.34 146.11 198.95"
/>
<path stroke="#98969e" vector-effect="non-scaling-stroke" d="
  M 206.22 219.57
  A 1.84 1.82 -16.6 0 0 205.31 221.23
  L 205.32 221.55
  A 0.88 0.88 0.0 0 0 206.66 222.26
  Q 216.54 216.26 226.70 213.36
  C 229.55 212.54 232.97 212.46 236.03 211.80
  Q 237.77 211.42 236.08 210.84
  Q 234.92 210.44 233.00 210.47
  Q 221.70 210.59 206.22 219.57"
/>
<path stroke="#98a0b7" vector-effect="non-scaling-stroke" d="
  M 156.88 216.38
  Q 153.54 216.41 152.19 218.36
  A 1.37 1.37 0.0 0 0 151.99 219.47
  Q 153.22 224.31 157.75 225.68
  C 159.90 226.33 161.19 226.91 162.96 225.91
  C 166.05 224.15 169.44 219.03 166.00 215.95
  C 163.35 213.58 159.16 216.35 156.88 216.38"
/>
<path stroke="#98969e" vector-effect="non-scaling-stroke" d="
  M 240.89 225.55
  Q 243.42 226.00 244.75 225.65
  Q 247.30 224.97 244.71 224.62
  Q 240.17 224.02 235.03 223.01
  C 231.40 222.30 228.35 222.58 224.81 222.90
  C 219.85 223.35 214.65 225.38 209.39 226.32
  Q 208.32 226.51 208.12 227.37
  A 1.01 1.00 2.1 0 0 209.26 228.59
  C 214.94 227.68 220.37 226.06 226.00 224.90
  Q 231.17 223.83 240.89 225.55"
/>
<path stroke="#98969e" vector-effect="non-scaling-stroke" d="
  M 169.88 309.40
  C 166.12 308.34 162.14 302.02 160.37 298.40
  A 0.48 0.48 0.0 0 0 159.48 298.49
  L 159.31 299.14
  Q 159.04 300.20 159.48 301.19
  C 161.62 306.00 164.88 310.20 169.40 312.63
  A 1.31 1.31 0.0 0 0 170.49 312.69
  L 173.77 311.39
  Q 174.20 311.22 174.60 311.46
  C 177.61 313.22 184.76 316.14 187.35 312.34
  Q 189.37 309.37 193.90 308.76
  A 0.97 0.96 -4.9 0 0 194.74 307.77
  L 194.73 307.38
  A 1.11 1.10 -9.3 0 0 193.29 306.35
  Q 189.03 307.69 184.69 306.73
  A 0.62 0.62 0.0 0 0 183.98 307.57
  L 184.67 309.33
  A 1.48 1.48 0.0 0 1 183.06 311.34
  Q 177.17 310.40 172.64 306.57
  A 1.46 1.46 0.0 0 0 170.32 307.21
  Q 170.04 308.00 170.36 308.88
  Q 170.63 309.61 169.88 309.40"
/>
<path stroke="#98969e" vector-effect="non-scaling-stroke" d="
  M 310.36 368.96
  A 1.01 1.00 5.3 0 1 311.77 367.79
  Q 313.71 368.73 314.96 370.53
  A 0.75 0.74 63.2 0 0 315.80 370.81
  C 322.03 368.78 321.41 360.21 318.88 355.64
  A 1.06 1.05 -47.1 0 1 318.85 354.70
  C 320.41 351.29 323.06 342.32 317.45 340.47
  C 315.91 339.96 313.74 340.49 311.86 340.02
  Q 311.35 339.89 311.05 339.45
  C 306.72 333.20 299.88 334.51 295.05 339.28
  Q 294.72 339.60 294.72 340.06
  C 294.65 345.16 299.22 348.69 300.08 352.73
  Q 301.06 357.35 298.52 363.04
  C 297.25 365.89 298.16 368.99 297.83 371.85
  Q 297.62 373.73 297.28 375.49
  A 1.23 1.23 0.0 0 0 297.72 376.70
  C 302.78 380.78 309.12 379.57 311.17 373.13
  Q 311.35 372.57 311.19 372.01
  L 310.36 368.96"
/>
<path stroke="#2d4c69" vector-effect="non-scaling-stroke" d="
  M 197.97 194.14
  Q 194.97 193.94 193.18 195.81
  Q 192.84 196.17 192.34 196.12
  Q 191.14 195.99 190.00 196.32
  Q 189.87 196.35 189.87 196.49
  Q 189.87 196.62 189.87 196.75
  Q 189.87 197.12 189.50 197.12
  L 189.00 197.12
  Q 188.44 197.12 188.13 197.59
  C 187.19 199.02 186.25 200.10 185.97 201.87
  Q 185.22 206.58 183.81 211.39
  A 2.08 2.08 0.0 0 0 186.13 214.03
  L 197.38 212.22
  Q 197.98 212.13 198.27 211.58
  Q 198.69 210.77 199.45 210.64
  Q 199.79 210.58 200.12 210.48
  Q 200.62 210.32 200.63 210.02
  Q 200.63 209.49 200.23 209.15
  Q 199.54 208.56 199.61 207.67
  C 199.70 206.58 199.66 205.56 200.14 204.74
  Q 200.38 204.34 200.38 203.87
  C 200.38 200.73 200.58 198.44 197.33 196.95
  A 0.74 0.74 0.0 0 1 197.33 195.61
  Q 197.50 195.53 198.02 195.66"
/>
<path stroke="#98969e" vector-effect="non-scaling-stroke" d="
  M 198.02 195.66
  C 203.99 198.01 202.44 202.45 201.54 207.41
  Q 201.12 209.70 203.44 209.90
  L 205.34 210.06
  Q 207.92 210.27 208.05 207.69
  C 208.32 202.52 205.54 191.36 197.97 194.14"
/>
<path stroke="#95b5ca" vector-effect="non-scaling-stroke" d="
  M 198.02 195.66
  Q 197.50 195.45 197.42 194.99
  Q 197.30 194.39 197.97 194.14"
/>
<path stroke="#608c9d" vector-effect="non-scaling-stroke" d="
  M 136.78 201.99
  Q 137.36 200.66 138.78 200.00
  Q 140.81 199.05 142.65 197.83
  A 0.60 0.60 0.0 0 0 142.66 196.83
  Q 141.92 196.34 140.92 196.88
  Q 136.47 199.28 135.37 204.07
  C 135.10 205.25 134.32 206.36 134.34 207.79
  Q 134.35 208.32 134.68 208.63
  Q 135.00 208.93 135.43 209.11
  Q 135.96 209.32 136.27 208.84
  Q 137.29 207.28 138.89 206.30
  A 0.79 0.78 -50.1 0 0 138.77 204.90
  Q 137.39 204.37 136.78 202.98
  Q 136.56 202.49 136.78 201.99"
/>
<path stroke="#98969e" vector-effect="non-scaling-stroke" d="
  M 162.11 238.78
  Q 165.12 241.85 168.03 239.32
  Q 168.43 238.96 168.05 238.57
  Q 165.98 236.46 162.78 237.23"
/>
<path stroke="#608c9d" vector-effect="non-scaling-stroke" d="
  M 162.78 237.23
  Q 162.04 236.74 161.65 236.98
  Q 161.25 237.23 161.49 237.82
  Q 161.67 238.25 162.11 238.78"
/>
<path stroke="#c8f5fe" vector-effect="non-scaling-stroke" d="
  M 162.78 237.23
  Q 162.11 237.48 162.11 238.78"
/>
<path stroke="#6096b6" vector-effect="non-scaling-stroke" d="
  M 163.43 217.34
  L 155.92 219.13
  A 0.36 0.36 0.0 0 0 155.66 219.57
  L 155.79 220.11
  A 4.17 4.10 -13.4 0 0 160.79 223.13
  L 160.89 223.11
  A 4.17 4.10 -13.4 0 0 164.00 218.16
  L 163.87 217.61
  A 0.36 0.36 0.0 0 0 163.43 217.34"
/>
<path stroke="#98969e" vector-effect="non-scaling-stroke" d="
  M 110.59 280.10
  C 109.16 277.92 109.39 276.24 109.73 273.71
  A 1.26 1.26 0.0 0 0 108.22 272.31
  L 107.19 272.53
  Q 105.63 272.87 105.52 274.46
  C 105.39 276.14 105.14 277.86 105.92 279.46
  Q 107.59 282.85 109.98 284.27
  Q 114.07 286.72 111.99 282.43
  Q 111.64 281.70 110.59 280.10"
/>
<path stroke="#2d5682" vector-effect="non-scaling-stroke" d="
  M 126.39 395.01
  L 128.70 396.81
  Q 129.09 397.11 129.57 397.13
  Q 130.31 397.15 130.76 397.65
  C 131.61 398.58 132.45 399.20 133.40 400.00
  Q 133.77 400.32 134.27 400.34
  C 136.37 400.46 139.03 400.27 140.72 401.66
  C 142.71 403.31 147.22 404.72 149.79 405.24
  C 152.61 405.81 154.83 406.68 157.77 406.50
  Q 161.77 406.25 165.79 406.41
  Q 166.25 406.42 166.68 406.59
  L 167.94 407.07
  Q 168.46 407.26 168.83 406.85
  Q 172.14 403.24 171.69 398.09"
/>
<path stroke="#256cad" vector-effect="non-scaling-stroke" d="
  M 171.69 398.09
  Q 173.62 395.72 168.46 395.79
  C 164.16 395.85 160.17 394.76 156.27 393.00
  C 154.12 392.03 152.63 390.35 150.84 388.80
  C 147.24 385.70 145.35 382.27 143.95 377.90
  Q 143.80 377.44 143.88 376.97
  Q 144.16 375.36 142.82 374.47
  Q 142.36 374.16 142.23 374.70
  Q 142.00 375.59 142.48 376.46"
/>
<path stroke="#2d5682" vector-effect="non-scaling-stroke" d="
  M 142.48 376.46
  Q 142.25 376.49 142.20 376.94
  Q 142.16 377.37 141.73 377.39
  Q 141.20 377.41 140.37 377.02"
/>
<path stroke="#256cad" vector-effect="non-scaling-stroke" d="
  M 140.37 377.02
  Q 139.76 374.34 137.95 372.15
  A 1.06 1.06 0.0 0 0 137.14 371.75
  C 130.80 371.65 122.62 374.08 119.76 380.16
  C 118.67 382.47 119.07 385.28 119.09 387.87
  C 119.10 389.46 119.82 390.36 121.00 391.23
  C 122.79 392.57 124.44 393.98 126.39 395.01"
/>
<path stroke="#2282c0" vector-effect="non-scaling-stroke" d="
  M 140.37 377.02
  Q 140.72 377.10 140.61 377.52
  Q 140.49 378.00 139.99 377.90
  Q 138.38 377.55 137.79 378.92
  A 0.98 0.97 3.1 0 1 137.15 379.49
  L 132.22 380.91
  A 0.49 0.48 82.2 0 0 131.87 381.38
  L 131.87 381.87
  Q 131.87 382.12 132.12 382.11
  L 138.64 381.91
  Q 139.48 381.89 139.90 381.15
  Q 140.21 380.59 140.98 380.61
  Q 141.55 380.62 141.88 381.10
  Q 142.44 381.93 143.35 382.27
  Q 143.94 382.48 144.09 381.88
  Q 144.30 381.02 143.85 380.35
  Q 143.59 379.95 143.12 379.88
  Q 142.41 379.76 142.05 379.28
  Q 141.83 378.99 141.90 378.66
  Q 141.99 378.21 142.48 378.07
  Q 142.96 377.93 142.87 377.43
  Q 142.78 376.95 142.48 376.46"
/>
<path stroke="#2282c0" vector-effect="non-scaling-stroke" d="
  M 171.69 398.09
  Q 169.00 398.04 166.22 397.95
  C 162.06 397.81 158.03 396.39 153.88 395.63
  C 151.82 395.25 149.91 396.13 147.66 395.77
  Q 136.18 393.94 129.90 391.11
  Q 125.82 389.26 120.95 383.46
  Q 120.60 383.04 120.09 383.25
  Q 119.38 383.53 119.60 384.52
  Q 119.91 385.85 120.80 387.12
  C 121.96 388.76 122.48 390.21 123.47 391.79
  Q 123.77 392.28 124.32 392.40
  Q 126.15 392.80 127.53 394.05
  A 0.48 0.47 -28.4 0 1 127.28 394.87
  L 126.39 395.01"
/>
<path stroke="#757aa7" vector-effect="non-scaling-stroke" d="
  M 130.04 404.17
  A 1.44 1.44 0.0 0 1 131.99 404.56
  C 132.70 405.59 133.81 406.56 135.16 406.48
  Q 136.37 406.40 136.87 405.72
  A 1.49 1.49 0.0 0 0 135.82 403.35
  C 129.35 402.72 124.19 398.31 119.53 395.01
  A 0.71 0.71 0.0 0 0 118.49 395.28
  C 117.02 398.21 122.64 402.00 124.81 402.89
  C 126.67 403.65 127.49 404.43 127.03 406.47
  A 1.63 1.60 -50.5 0 0 127.11 407.40
  Q 129.14 412.46 134.50 413.58
  C 138.02 414.32 140.81 410.41 141.65 407.47
  A 0.78 0.77 -83.3 0 0 140.87 406.48
  L 140.44 406.51
  Q 139.09 406.58 138.63 407.85
  C 136.60 413.42 130.86 410.13 129.58 406.96
  Q 128.79 404.98 130.04 404.17"
/>
<path stroke="#757aa7" vector-effect="non-scaling-stroke" d="
  M 157.74 411.51
  Q 158.13 410.31 156.98 409.77
  L 154.35 408.55
  Q 153.19 408.01 153.58 409.23
  C 154.50 412.15 155.22 415.70 158.12 417.06
  C 162.45 419.08 166.42 416.84 167.14 411.87
  A 0.87 0.87 0.0 0 0 166.22 410.88
  L 165.88 410.90
  Q 164.64 410.98 164.43 412.20
  C 163.48 417.72 156.09 416.70 157.74 411.51"
/>
<path stroke="#757aa7" vector-effect="non-scaling-stroke" d="
  M 162.3600 410.1468
  A 1.85 0.84 -0.1 0 0 160.5085 409.3100
  A 1.85 0.84 -0.1 0 0 158.6600 410.1532
  A 1.85 0.84 -0.1 0 0 160.5115 410.9900
  A 1.85 0.84 -0.1 0 0 162.3600 410.1468"
/>
<path stroke="#256cad" vector-effect="non-scaling-stroke" d="
  M 272.46 407.72
  Q 269.12 409.97 265.30 411.10
  Q 263.02 411.77 261.57 412.86
  Q 259.85 414.15 258.16 415.48
  Q 257.99 415.61 257.78 415.62
  Q 257.63 415.62 257.46 415.60
  Q 257.02 415.54 256.73 415.88
  C 250.97 422.51 242.67 422.56 234.21 422.92
  C 232.41 423.00 228.24 422.46 226.38 423.38
  Q 224.82 424.15 224.46 426.77
  Q 223.55 433.34 226.80 437.52"
/>
<path stroke="#2d5682" vector-effect="non-scaling-stroke" d="
  M 226.80 437.52
  Q 231.31 443.50 239.07 443.24
  Q 239.79 443.21 240.84 442.72
  C 242.13 442.12 243.41 442.67 244.53 442.12
  Q 244.93 441.92 245.32 442.14
  Q 245.60 442.30 245.91 442.32
  Q 246.37 442.35 247.01 441.93
  Q 249.87 440.09 253.09 439.03
  C 256.28 437.97 258.06 436.12 260.75 434.38
  Q 261.18 434.10 261.43 433.64
  L 262.24 432.10
  Q 262.47 431.68 262.93 431.54
  Q 267.03 430.29 268.61 432.67"
/>
<path stroke="#757aa7" vector-effect="non-scaling-stroke" d="
  M 268.61 432.67
  Q 274.68 435.82 279.71 431.20
  Q 281.29 429.74 281.16 427.79
  Q 281.12 427.23 280.60 427.45
  C 279.70 427.83 279.44 428.02 278.83 428.89
  Q 276.17 432.72 270.95 430.59"
/>
<path stroke="#2d5682" vector-effect="non-scaling-stroke" d="
  M 270.95 430.59
  Q 269.51 430.75 269.18 429.81
  Q 269.02 429.35 268.61 429.10
  Q 267.69 428.52 267.56 427.51
  Q 267.50 427.01 267.83 426.63
  Q 270.04 424.11 271.74 421.25
  Q 272.01 420.80 271.85 420.48
  Q 271.70 420.19 271.98 420.03
  Q 272.54 419.69 273.18 419.94
  Q 273.57 420.09 273.86 420.37
  Q 274.49 420.96 275.31 420.32
  Q 276.50 419.40 277.72 418.50
  Q 278.11 418.22 278.24 417.75
  C 279.48 413.38 277.60 410.65 275.88 407.01
  A 1.02 1.02 0.0 0 0 275.16 406.45
  Q 273.67 406.16 272.46 407.72"
/>
<path stroke="#7290ba" vector-effect="non-scaling-stroke" d="
  M 270.95 430.59
  Q 268.29 430.93 268.61 432.67"
/>
<path stroke="#2282c0" vector-effect="non-scaling-stroke" d="
  M 226.80 437.52
  C 230.68 437.50 234.86 437.79 238.36 437.26
  C 244.15 436.38 251.63 433.77 255.60 429.22
  C 257.56 426.98 259.26 425.19 261.86 423.41
  Q 266.55 420.19 271.01 416.47
  A 2.06 2.05 67.6 0 0 271.74 414.70
  Q 271.41 411.37 273.57 409.04
  A 0.76 0.76 0.0 0 0 273.08 407.77
  L 272.46 407.72"
/>
<path stroke="#757aa7" vector-effect="non-scaling-stroke" d="
  M 277.77 426.23
  Q 279.85 425.95 279.46 423.66
  Q 279.12 421.61 277.72 423.14
  C 276.54 424.42 274.80 424.74 273.48 425.90
  Q 272.49 426.76 272.49 427.33
  Q 272.55 430.71 274.46 427.93
  Q 275.41 426.54 277.77 426.23"
/>
<path stroke="#757aa7" vector-effect="non-scaling-stroke" d="
  M 249.98 445.92
  Q 249.33 444.91 248.14 445.09
  L 246.30 445.37
  Q 245.09 445.55 245.95 446.42
  C 249.85 450.34 254.63 451.51 258.60 446.70
  A 0.59 0.58 71.1 0 0 258.72 446.45
  L 259.98 440.35
  Q 260.27 438.98 259.06 439.68
  Q 257.16 440.79 257.32 443.29
  C 257.45 445.42 257.18 446.39 255.91 447.86
  Q 255.57 448.25 255.07 448.29
  Q 251.71 448.60 249.98 445.92"
/>
<path stroke="#6096b6" vector-effect="non-scaling-stroke" d="
  M 254.74 441.12
  L 251.04 442.42
  A 0.12 0.12 0.0 0 0 250.97 442.57
  L 250.98 442.61
  A 1.52 1.24 -19.3 0 0 252.82 443.28
  L 253.88 442.91
  A 1.52 1.24 -19.3 0 0 254.90 441.23
  L 254.89 441.20
  A 0.12 0.12 0.0 0 0 254.74 441.12"
/>
<path stroke="#2282c0" vector-effect="non-scaling-stroke" d="
  M 249.19 423.22
  C 247.60 422.68 245.44 423.85 243.68 423.88
  Q 237.95 423.99 233.13 425.25
  Q 230.66 425.90 232.98 426.97
  Q 235.05 427.93 238.19 427.78
  Q 238.73 427.75 239.21 428.02
  Q 241.22 429.19 243.48 428.19
  A 0.36 0.36 0.0 0 1 243.97 428.42
  Q 244.10 428.87 244.58 428.40
  Q 244.89 428.10 245.11 427.74
  C 246.07 426.20 248.12 425.90 249.47 424.84
  A 0.93 0.93 0.0 0 0 249.19 423.22"
/>
</g>
<path fill="none" d="
  M 0.00 0.00
  L 410.00 0.00
  L 410.00 520.00
  L 0.00 520.00
  L 0.00 0.00
  Z
  M 175.77 393.31
  C 162.55 394.87 148.41 388.89 147.13 374.07
  A 0.75 0.74 -89.1 0 0 146.49 373.40
  Q 145.08 373.21 143.71 373.51
  A 1.31 1.30 70.8 0 1 142.27 372.81
  C 137.96 364.03 141.13 353.45 147.38 346.57
  Q 148.27 345.59 147.70 344.79
  A 0.86 0.85 -36.4 0 0 146.49 344.61
  C 140.91 348.82 137.71 357.56 137.21 364.78
  C 137.16 365.58 137.49 366.62 137.46 367.51
  Q 137.44 368.08 136.87 368.13
  C 127.68 368.79 119.40 372.17 116.38 381.58
  C 115.32 384.86 115.93 388.81 115.60 392.50
  C 115.15 397.69 115.16 402.11 119.77 404.47
  Q 124.04 406.66 125.65 410.04
  C 127.36 413.61 129.16 415.82 133.24 416.74
  C 139.87 418.24 142.54 413.15 144.27 408.01
  A 1.44 1.43 -83.3 0 1 145.49 407.04
  Q 148.14 406.78 150.63 407.65
  A 1.85 1.84 -82.3 0 1 151.86 409.27
  C 152.28 415.46 154.63 420.62 161.44 420.98
  C 166.72 421.26 169.14 415.51 169.85 411.17
  Q 170.65 406.30 176.13 395.65
  Q 185.07 394.37 188.47 391.74
  Q 192.31 388.77 196.48 386.43
  A 0.48 0.48 0.0 0 1 197.20 386.82
  C 197.77 395.99 200.37 405.20 207.61 411.40
  C 209.55 413.06 212.74 413.32 215.24 416.09
  Q 218.16 418.86 221.94 420.34
  A 1.51 1.51 0.0 0 1 222.86 422.09
  C 221.89 426.11 220.59 431.15 222.68 435.04
  Q 226.72 442.58 234.94 445.05
  C 237.02 445.68 239.87 445.76 242.33 446.41
  Q 242.83 446.54 243.16 446.93
  C 247.36 451.89 253.34 455.26 259.05 450.57
  Q 264.31 446.24 262.14 438.94
  A 1.33 1.31 52.6 0 1 262.27 437.92
  Q 263.75 435.41 266.55 434.38
  Q 267.02 434.20 267.41 434.50
  Q 273.98 439.36 280.86 434.55
  C 284.59 431.94 283.89 426.18 281.85 422.84
  Q 281.00 421.45 280.35 419.89
  A 1.57 1.54 40.7 0 1 280.27 418.95
  C 281.38 414.42 282.07 411.65 279.21 407.80
  Q 277.53 405.53 278.31 404.15
  Q 287.74 396.59 293.27 386.43
  C 294.20 384.72 294.70 382.42 295.51 380.47
  Q 295.73 379.95 296.25 380.17
  C 303.89 383.33 309.85 383.07 314.20 375.51
  C 315.72 372.85 318.52 373.00 320.26 371.86
  C 325.92 368.18 324.80 363.23 323.66 357.47
  Q 323.34 355.86 324.35 354.60
  C 326.06 352.45 326.13 350.32 326.03 347.20
  C 325.91 343.67 324.35 341.21 321.52 339.38
  C 319.14 337.84 315.24 337.97 313.03 336.47
  Q 303.27 329.85 293.84 336.69
  Q 293.43 336.99 292.93 336.87
  C 289.92 336.12 285.67 332.64 283.34 330.85
  C 277.25 326.17 273.32 323.42 268.40 319.61
  C 264.51 316.59 260.93 312.38 256.99 308.90
  C 255.73 307.79 255.07 306.48 254.66 304.96
  A 0.81 0.80 81.9 0 1 255.42 303.94
  Q 271.89 303.51 286.72 309.05
  Q 290.10 310.31 299.22 315.57
  Q 303.03 317.76 307.74 315.57
  A 1.64 1.58 -85.4 0 0 308.44 314.95
  Q 310.50 311.65 313.66 309.46
  C 318.12 306.39 316.54 302.25 317.49 297.69
  C 321.65 277.61 285.94 267.15 272.73 264.26
  C 268.79 263.39 264.64 262.25 260.25 262.09
  Q 251.51 261.77 244.16 261.85
  Q 240.71 261.89 244.08 261.15
  C 251.08 259.61 259.38 257.72 265.43 254.90
  C 275.97 249.99 284.96 240.95 289.14 229.79
  C 290.12 227.17 289.79 224.76 293.02 223.57
  C 296.11 222.43 295.37 214.21 294.29 211.74
  Q 292.47 207.53 290.95 203.21
  C 289.09 197.89 286.21 194.31 285.23 188.39
  C 282.43 171.52 278.75 158.29 266.23 146.01
  L 265.66 143.90
  Q 269.64 143.36 272.00 143.74
  C 288.74 146.42 306.55 148.43 323.46 146.57
  C 337.53 145.03 351.62 142.33 362.16 134.43
  C 371.00 127.81 382.74 116.97 390.07 106.57
  C 392.59 103.01 396.93 94.25 392.51 90.77
  Q 389.55 88.44 383.52 87.14
  C 360.80 82.23 340.49 84.51 314.58 88.08
  C 312.23 88.41 309.94 89.13 307.59 89.68
  Q 305.34 90.21 306.97 88.57
  Q 312.30 83.18 317.60 76.33
  C 323.64 68.54 314.49 64.23 308.49 63.07
  C 287.60 59.03 268.59 56.20 248.49 63.98
  C 224.15 73.40 199.81 90.12 188.80 114.36
  C 187.46 117.33 181.34 119.09 178.43 120.36
  C 163.07 127.05 151.14 137.71 140.85 150.35
  C 131.82 161.43 127.36 174.89 125.25 189.02
  C 123.84 198.46 123.43 205.72 127.01 213.86
  A 1.12 1.11 -26.8 0 1 126.54 215.28
  Q 120.18 218.88 118.23 226.00
  A 1.65 1.64 8.5 0 1 116.59 227.21
  Q 112.96 227.09 109.54 228.63
  Q 108.49 229.11 108.78 230.04
  A 0.87 0.86 76.0 0 0 109.76 230.64
  L 117.00 229.38
  A 0.62 0.62 0.0 0 1 117.72 230.06
  Q 117.41 233.10 118.32 236.01
  Q 118.47 236.53 118.09 236.89
  C 115.57 239.26 113.10 240.49 111.75 243.91
  A 0.79 0.78 -76.5 0 0 112.40 244.98
  C 114.45 245.18 118.18 238.99 121.67 238.70
  Q 123.65 238.54 124.72 240.52
  C 129.82 249.91 136.86 254.37 146.67 258.34
  C 152.68 260.77 160.32 265.39 164.52 271.11
  A 1.33 1.33 0.0 0 1 164.00 273.10
  C 156.11 276.67 148.03 283.16 138.76 281.60
  Q 131.75 280.42 126.13 276.43
  C 122.66 273.97 118.47 268.73 114.09 266.16
  C 110.36 263.97 104.30 261.31 100.14 262.53
  C 97.65 263.25 95.63 265.82 92.72 266.89
  C 88.29 268.52 88.86 272.10 87.36 275.73
  C 85.41 280.44 86.52 282.80 89.08 286.97
  Q 93.87 294.78 99.67 300.22
  C 110.85 310.70 126.26 317.93 141.53 320.62
  Q 143.62 320.98 145.48 320.97
  A 1.04 1.04 0.0 0 1 146.53 322.06
  C 146.32 327.23 145.80 332.59 146.96 337.63
  C 152.02 359.73 172.87 376.62 194.23 381.21
  Q 194.94 381.36 196.25 381.00
  Q 196.84 380.83 196.66 381.42
  C 195.79 384.28 191.03 386.29 188.53 387.54
  A 2.45 2.44 -40.1 0 1 185.99 387.33
  Q 184.27 386.08 182.24 385.59
  A 0.72 0.72 0.0 0 0 181.36 386.20
  L 181.31 386.70
  Q 181.20 387.58 182.06 387.78
  L 185.26 388.54
  A 0.40 0.40 0.0 0 1 185.46 389.21
  C 182.98 391.76 179.78 392.34 175.77 393.31
  Z"
/>
<path fill="#302c3c" d="
  M 265.66 143.90
  L 263.72 143.83
  L 257.10 143.59
  A 1.03 1.02 2.2 0 1 256.11 142.53
  L 256.13 142.03
  A 1.15 1.15 0.0 0 1 257.25 140.92
  Q 263.21 140.73 269.05 140.59
  C 273.31 140.49 277.74 141.89 282.06 142.23
  C 294.20 143.18 308.02 144.58 319.00 143.48
  C 325.11 142.87 336.87 141.08 344.49 138.55
  C 348.86 137.10 353.62 135.59 357.40 132.87
  Q 368.08 125.18 377.67 116.17
  C 381.52 112.56 400.21 93.56 388.65 90.52
  Q 378.61 87.88 368.24 86.89
  C 357.15 85.84 343.51 87.44 331.24 88.78
  C 323.65 89.61 315.94 91.03 308.25 92.36
  Q 303.96 93.11 298.86 94.72
  Q 293.42 96.45 287.86 97.82
  Q 282.93 99.03 268.53 106.03
  Q 261.90 109.26 248.24 119.98
  Q 246.38 121.44 240.55 127.25
  A 4.23 4.21 20.0 0 1 237.92 128.47
  L 237.29 128.52
  A 0.84 0.84 0.0 0 1 236.57 127.15
  C 243.74 118.29 251.84 112.41 261.02 106.53
  C 271.72 99.69 283.44 95.13 295.64 92.09
  C 297.90 91.52 300.65 90.46 302.05 89.06
  Q 307.61 83.50 316.12 72.40
  Q 318.67 69.08 315.27 67.57
  C 309.23 64.86 301.31 64.21 292.69 63.26
  C 280.18 61.88 268.31 62.51 256.12 65.73
  C 251.45 66.96 246.81 69.29 242.25 71.33
  C 222.15 80.34 202.49 94.60 192.06 114.55
  Q 191.73 115.18 192.40 115.41
  L 193.85 115.90
  Q 195.61 116.50 193.81 116.98
  C 188.26 118.47 181.73 121.69 176.93 124.28
  Q 149.40 139.16 135.33 167.55
  C 130.66 176.95 129.64 186.34 127.73 198.25
  C 127.24 201.32 128.03 209.74 130.62 213.72
  A 1.63 1.62 -32.5 0 1 130.11 215.98
  C 127.01 217.93 121.56 223.07 121.72 227.17
  A 0.74 0.73 -82.0 0 0 122.22 227.84
  Q 123.41 228.27 124.62 228.61
  Q 124.83 228.66 124.90 228.76
  Q 124.98 228.87 125.00 229.00
  Q 125.09 229.54 124.55 229.59
  L 121.96 229.86
  A 1.23 1.23 0.0 0 0 120.86 231.22
  L 121.31 235.19
  A 1.11 1.10 -9.4 0 0 122.65 236.14
  Q 126.73 235.22 127.05 236.97
  C 128.77 246.08 137.00 251.73 144.85 255.27
  C 154.73 259.73 162.15 263.10 168.64 271.44
  A 1.01 1.00 -14.0 0 1 167.67 273.04
  C 164.13 272.44 163.45 280.24 162.07 282.68
  Q 158.20 289.54 154.00 296.21
  C 151.86 299.61 150.94 302.10 150.94 306.46
  C 150.95 312.01 149.13 317.10 148.74 322.17
  C 148.40 326.66 147.82 331.26 148.82 335.54
  C 151.80 348.37 161.23 361.65 172.58 368.46
  Q 182.99 374.70 196.50 378.77
  Q 197.02 378.92 197.32 378.47
  C 199.19 375.65 200.55 371.83 201.98 369.59
  Q 206.53 362.45 213.07 356.85
  Q 213.27 356.67 213.45 356.88
  L 213.63 357.09
  A 0.58 0.57 46.2 0 1 213.62 357.87
  C 206.47 365.47 198.29 375.12 200.26 386.56
  C 201.62 394.48 203.09 400.38 207.96 406.90
  C 210.48 410.28 213.73 410.36 216.25 414.66
  Q 216.47 415.01 216.54 415.38
  Q 216.64 415.87 216.15 415.95
  L 215.24 416.09
  C 212.74 413.32 209.55 413.06 207.61 411.40
  C 200.37 405.20 197.77 395.99 197.20 386.82
  A 0.48 0.48 0.0 0 0 196.48 386.43
  Q 192.31 388.77 188.47 391.74
  Q 185.07 394.37 176.13 395.65
  L 175.77 393.31
  C 179.78 392.34 182.98 391.76 185.46 389.21
  A 0.40 0.40 0.0 0 0 185.26 388.54
  L 182.06 387.78
  Q 181.20 387.58 181.31 386.70
  L 181.36 386.20
  A 0.72 0.72 0.0 0 1 182.24 385.59
  Q 184.27 386.08 185.99 387.33
  A 2.45 2.44 -40.1 0 0 188.53 387.54
  C 191.03 386.29 195.79 384.28 196.66 381.42
  Q 196.84 380.83 196.25 381.00
  Q 194.94 381.36 194.23 381.21
  C 172.87 376.62 152.02 359.73 146.96 337.63
  C 145.80 332.59 146.32 327.23 146.53 322.06
  A 1.04 1.04 0.0 0 0 145.48 320.97
  Q 143.62 320.98 141.53 320.62
  C 126.26 317.93 110.85 310.70 99.67 300.22
  Q 93.87 294.78 89.08 286.97
  C 86.52 282.80 85.41 280.44 87.36 275.73
  C 88.86 272.10 88.29 268.52 92.72 266.89
  C 95.63 265.82 97.65 263.25 100.14 262.53
  C 104.30 261.31 110.36 263.97 114.09 266.16
  C 118.47 268.73 122.66 273.97 126.13 276.43
  Q 131.75 280.42 138.76 281.60
  C 148.03 283.16 156.11 276.67 164.00 273.10
  A 1.33 1.33 0.0 0 0 164.52 271.11
  C 160.32 265.39 152.68 260.77 146.67 258.34
  C 136.86 254.37 129.82 249.91 124.72 240.52
  Q 123.65 238.54 121.67 238.70
  C 118.18 238.99 114.45 245.18 112.40 244.98
  A 0.79 0.78 -76.5 0 1 111.75 243.91
  C 113.10 240.49 115.57 239.26 118.09 236.89
  Q 118.47 236.53 118.32 236.01
  Q 117.41 233.10 117.72 230.06
  A 0.62 0.62 0.0 0 0 117.00 229.38
  L 109.76 230.64
  A 0.87 0.86 76.0 0 1 108.78 230.04
  Q 108.49 229.11 109.54 228.63
  Q 112.96 227.09 116.59 227.21
  A 1.65 1.64 8.5 0 0 118.23 226.00
  Q 120.18 218.88 126.54 215.28
  A 1.12 1.11 -26.8 0 0 127.01 213.86
  C 123.43 205.72 123.84 198.46 125.25 189.02
  C 127.36 174.89 131.82 161.43 140.85 150.35
  C 151.14 137.71 163.07 127.05 178.43 120.36
  C 181.34 119.09 187.46 117.33 188.80 114.36
  C 199.81 90.12 224.15 73.40 248.49 63.98
  C 268.59 56.20 287.60 59.03 308.49 63.07
  C 314.49 64.23 323.64 68.54 317.60 76.33
  Q 312.30 83.18 306.97 88.57
  Q 305.34 90.21 307.59 89.68
  C 309.94 89.13 312.23 88.41 314.58 88.08
  C 340.49 84.51 360.80 82.23 383.52 87.14
  Q 389.55 88.44 392.51 90.77
  C 396.93 94.25 392.59 103.01 390.07 106.57
  C 382.74 116.97 371.00 127.81 362.16 134.43
  C 351.62 142.33 337.53 145.03 323.46 146.57
  C 306.55 148.43 288.74 146.42 272.00 143.74
  Q 269.64 143.36 265.66 143.90
  Z
  M 104.24 273.20
  Q 105.92 274.49 103.82 274.81
  C 99.30 275.49 97.32 272.84 96.09 269.11
  Q 95.66 267.80 94.50 268.54
  C 89.16 271.96 93.31 275.31 95.91 278.19
  A 1.65 1.64 -47.9 0 1 96.01 280.28
  L 95.80 280.57
  A 1.06 1.06 0.0 0 1 94.43 280.85
  Q 92.24 279.56 90.81 277.44
  A 0.47 0.47 0.0 0 0 90.00 277.48
  C 87.51 282.25 95.03 291.93 98.29 294.98
  Q 108.40 304.44 123.60 310.87
  C 129.91 313.54 136.89 315.41 143.74 317.07
  Q 145.02 317.38 146.44 317.27
  Q 146.95 317.23 147.18 316.78
  Q 148.64 314.00 148.78 310.90
  Q 148.81 310.29 148.04 306.65
  C 146.65 300.08 155.24 288.11 159.23 283.12
  C 160.08 282.05 161.19 280.07 161.40 279.00
  Q 161.96 276.25 159.79 278.04
  C 155.32 281.73 146.40 286.43 140.49 285.70
  C 130.25 284.45 123.49 278.91 116.52 271.75
  C 112.24 267.35 106.79 266.86 100.79 266.43
  A 1.04 1.04 0.0 0 0 99.80 267.95
  Q 101.44 271.06 104.24 273.20
  Z"
/>
<path fill="#ffffff" d="
  M 263.72 143.83
  Q 264.31 144.11 264.27 145.47
  Q 263.41 147.59 265.10 149.17
  Q 274.88 158.35 278.74 170.49
  Q 281.56 179.36 282.18 185.00
  Q 282.94 191.92 285.46 197.25
  Q 287.63 201.84 288.20 203.42
  C 290.10 208.72 292.32 212.84 292.15 218.60
  A 0.66 0.66 0.0 0 1 291.29 219.20
  L 288.88 218.42
  A 0.90 0.90 0.0 0 0 287.71 219.13
  C 284.98 235.83 273.93 249.19 257.79 254.56
  C 247.15 258.09 236.86 259.47 226.62 263.31
  Q 225.28 263.81 224.58 264.85
  A 0.55 0.55 0.0 0 0 225.07 265.71
  C 230.17 265.35 235.03 264.34 239.99 264.58
  C 247.76 264.97 256.02 265.01 263.21 266.10
  Q 281.96 268.96 299.32 276.77
  Q 309.96 281.55 314.80 292.07
  Q 315.81 294.27 315.40 296.26
  Q 315.14 297.47 314.44 296.45
  Q 313.20 294.65 311.09 293.99
  A 1.03 1.03 0.0 0 0 309.83 295.38
  L 311.77 299.86
  A 1.60 1.59 -22.3 0 1 310.88 301.97
  L 308.91 302.74
  Q 308.35 302.96 308.21 303.54
  C 306.97 308.82 305.40 315.33 298.18 310.27
  C 289.40 304.12 281.55 301.91 270.51 300.40
  C 261.05 299.10 254.15 300.79 245.62 301.41
  Q 244.79 301.47 243.94 301.70
  Q 243.45 301.83 243.33 302.32
  Q 243.24 302.72 243.46 303.05
  Q 243.69 303.41 244.34 303.59
  Q 247.29 304.39 250.00 304.20
  A 1.53 1.53 0.0 0 1 251.58 305.35
  C 253.15 311.55 258.41 315.89 262.86 320.06
  Q 266.07 323.08 271.58 326.82
  C 277.74 331.01 283.66 335.28 289.95 339.37
  C 292.37 340.95 291.88 343.70 293.16 346.07
  C 294.96 349.40 297.34 354.40 296.72 357.01
  C 296.11 359.61 295.41 361.97 295.12 364.72
  Q 293.92 376.41 288.33 386.79
  C 284.80 393.34 279.48 398.21 274.08 403.31
  Q 268.88 406.52 263.15 409.30
  C 259.54 411.06 256.32 413.89 253.42 415.42
  C 243.14 420.86 225.91 422.36 216.25 414.66
  C 213.73 410.36 210.48 410.28 207.96 406.90
  C 203.09 400.38 201.62 394.48 200.26 386.56
  C 198.29 375.12 206.47 365.47 213.62 357.87
  A 0.58 0.57 46.2 0 0 213.63 357.09
  L 213.45 356.88
  Q 213.27 356.67 213.07 356.85
  Q 206.53 362.45 201.98 369.59
  C 200.55 371.83 199.19 375.65 197.32 378.47
  Q 197.02 378.92 196.50 378.77
  Q 182.99 374.70 172.58 368.46
  C 161.23 361.65 151.80 348.37 148.82 335.54
  C 147.82 331.26 148.40 326.66 148.74 322.17
  C 149.13 317.10 150.95 312.01 150.94 306.46
  C 150.94 302.10 151.86 299.61 154.00 296.21
  Q 158.20 289.54 162.07 282.68
  C 163.45 280.24 164.13 272.44 167.67 273.04
  A 1.01 1.00 -14.0 0 0 168.64 271.44
  C 162.15 263.10 154.73 259.73 144.85 255.27
  C 137.00 251.73 128.77 246.08 127.05 236.97
  Q 126.73 235.22 122.65 236.14
  A 1.11 1.10 -9.4 0 1 121.31 235.19
  L 120.86 231.22
  A 1.23 1.23 0.0 0 1 121.96 229.86
  L 124.55 229.59
  Q 125.09 229.54 125.00 229.00
  Q 124.98 228.87 124.90 228.76
  Q 124.83 228.66 124.62 228.61
  Q 123.41 228.27 122.22 227.84
  A 0.74 0.73 -82.0 0 1 121.72 227.17
  C 121.56 223.07 127.01 217.93 130.11 215.98
  A 1.63 1.62 -32.5 0 0 130.62 213.72
  C 128.03 209.74 127.24 201.32 127.73 198.25
  C 129.64 186.34 130.66 176.95 135.33 167.55
  Q 149.40 139.16 176.93 124.28
  C 181.73 121.69 188.26 118.47 193.81 116.98
  Q 195.61 116.50 193.85 115.90
  L 192.40 115.41
  Q 191.73 115.18 192.06 114.55
  C 202.49 94.60 222.15 80.34 242.25 71.33
  C 246.81 69.29 251.45 66.96 256.12 65.73
  C 268.31 62.51 280.18 61.88 292.69 63.26
  C 301.31 64.21 309.23 64.86 315.27 67.57
  Q 318.67 69.08 316.12 72.40
  Q 307.61 83.50 302.05 89.06
  C 300.65 90.46 297.90 91.52 295.64 92.09
  C 283.44 95.13 271.72 99.69 261.02 106.53
  C 251.84 112.41 243.74 118.29 236.57 127.15
  A 0.84 0.84 0.0 0 0 237.29 128.52
  L 237.92 128.47
  A 4.23 4.21 20.0 0 0 240.55 127.25
  Q 246.38 121.44 248.24 119.98
  Q 261.90 109.26 268.53 106.03
  Q 282.93 99.03 287.86 97.82
  Q 293.42 96.45 298.86 94.72
  Q 303.96 93.11 308.25 92.36
  C 315.94 91.03 323.65 89.61 331.24 88.78
  C 343.51 87.44 357.15 85.84 368.24 86.89
  Q 378.61 87.88 388.65 90.52
  C 400.21 93.56 381.52 112.56 377.67 116.17
  Q 368.08 125.18 357.40 132.87
  C 353.62 135.59 348.86 137.10 344.49 138.55
  C 336.87 141.08 325.11 142.87 319.00 143.48
  C 308.02 144.58 294.20 143.18 282.06 142.23
  C 277.74 141.89 273.31 140.49 269.05 140.59
  Q 263.21 140.73 257.25 140.92
  A 1.15 1.15 0.0 0 0 256.13 142.03
  L 256.11 142.53
  A 1.03 1.02 2.2 0 0 257.10 143.59
  L 263.72 143.83
  Z
  M 274.79 133.49
  Q 275.46 133.45 275.87 133.79
  Q 276.21 134.09 276.15 134.54
  Q 276.01 135.54 276.99 135.86
  Q 279.19 136.59 281.33 135.75
  Q 281.80 135.57 282.30 135.62
  Q 286.34 136.04 290.40 136.11
  C 293.26 136.17 297.26 136.93 300.80 136.38
  Q 304.18 135.85 306.26 135.93
  C 313.17 136.22 319.92 135.25 326.62 135.07
  C 332.20 134.91 337.57 134.67 342.99 132.88
  C 348.56 131.04 354.66 129.31 358.98 125.46
  C 363.42 121.51 367.91 118.17 371.05 113.90
  Q 374.03 109.84 376.72 105.44
  A 1.66 1.66 0.0 0 0 375.03 102.93
  C 373.40 103.21 371.84 102.33 370.30 102.37
  C 366.12 102.47 362.37 102.51 357.85 103.08
  Q 355.78 103.34 352.50 103.62
  Q 346.08 104.16 334.66 107.76
  C 332.41 108.47 329.72 109.83 327.10 110.53
  C 323.56 111.49 319.52 112.64 316.30 114.21
  Q 308.19 118.17 300.06 122.08
  C 295.90 124.08 291.79 127.33 287.76 129.14
  Q 286.80 129.57 286.52 128.18
  C 298.13 121.25 310.31 114.46 323.03 109.79
  C 331.65 106.62 336.79 104.92 345.13 102.94
  C 352.20 101.26 359.09 100.90 366.26 100.45
  C 370.89 100.16 375.61 101.42 380.10 100.44
  A 0.74 0.74 0.0 0 0 380.41 99.15
  Q 379.42 98.32 377.77 98.07
  Q 363.34 95.89 348.96 97.83
  C 343.10 98.62 336.57 100.56 330.49 102.17
  Q 321.44 104.56 309.75 110.13
  C 302.66 113.50 295.59 117.91 288.73 122.19
  C 279.16 128.17 267.21 132.52 254.92 134.78
  Q 253.56 135.02 253.50 136.40
  L 253.48 136.72
  A 1.02 1.02 0.0 0 0 254.53 137.79
  Q 263.11 137.51 265.51 136.63
  Q 270.11 134.95 274.79 133.49
  Z
  M 204.89 170.61
  C 199.45 169.56 193.77 169.22 190.21 174.23
  A 0.64 0.63 26.6 0 0 190.54 175.20
  Q 191.42 175.49 192.40 174.64
  Q 197.01 170.66 203.25 172.00
  Q 204.06 172.18 204.74 171.70
  L 205.07 171.48
  A 0.48 0.48 0.0 0 0 204.89 170.61
  Z
  M 138.26 175.82
  C 142.07 174.71 143.51 172.21 148.01 172.70
  Q 148.25 172.72 148.46 172.65
  Q 148.85 172.53 148.88 172.48
  Q 149.36 171.82 148.60 171.54
  C 146.06 170.59 135.95 170.19 137.48 175.39
  Q 137.66 175.99 138.26 175.82
  Z
  M 210.04 200.20
  Q 209.88 199.36 210.69 199.09
  L 215.75 197.41
  A 1.24 1.24 0.0 0 0 215.17 195.01
  C 213.31 195.31 211.14 196.82 209.68 198.02
  Q 209.26 198.37 208.87 197.99
  Q 206.71 195.84 204.64 193.62
  C 202.76 191.60 198.43 192.11 195.97 192.32
  C 184.48 193.29 180.97 205.75 182.27 215.08
  A 1.34 1.33 87.1 0 0 183.53 216.22
  Q 186.79 216.36 189.92 216.06
  C 194.36 215.64 199.19 213.69 203.74 212.45
  C 205.10 212.08 206.12 211.36 207.33 210.67
  A 1.66 1.64 31.3 0 1 208.26 210.45
  C 210.85 210.59 211.08 207.96 211.60 206.14
  A 1.07 1.07 0.0 0 1 212.20 205.46
  C 214.59 204.48 216.60 204.09 217.94 201.66
  A 0.87 0.87 0.0 0 0 217.23 200.37
  Q 216.70 200.33 216.04 200.80
  Q 213.69 202.47 211.46 204.21
  Q 210.89 204.65 210.75 203.94
  L 210.04 200.20
  Z
  M 146.11 198.95
  Q 145.63 194.76 148.14 198.15
  Q 150.04 200.72 150.91 205.08
  A 3.33 3.30 12.2 0 0 152.23 207.11
  L 152.68 207.43
  A 0.71 0.71 0.0 0 0 153.80 206.76
  C 152.88 199.41 150.62 195.17 143.50 193.75
  C 137.60 192.57 135.27 195.34 132.83 200.28
  Q 130.09 205.82 132.00 212.30
  A 2.01 1.99 -84.6 0 0 132.97 213.49
  Q 138.02 216.18 143.30 213.90
  Q 147.11 212.25 144.68 215.62
  C 142.09 219.21 140.24 222.00 139.79 227.26
  C 139.11 235.09 145.67 238.60 152.75 238.04
  C 155.60 237.82 156.82 236.32 158.65 239.79
  C 160.74 243.78 167.11 243.18 170.34 240.96
  C 172.15 239.71 171.45 238.23 174.36 237.73
  C 177.62 237.16 181.04 236.56 183.78 234.59
  C 184.82 233.83 186.05 233.40 187.16 233.82
  C 189.30 234.63 195.86 236.18 197.79 234.91
  Q 199.00 234.13 197.59 233.83
  C 190.95 232.45 184.10 232.34 181.22 224.35
  Q 179.99 220.93 179.08 224.45
  C 178.47 226.83 180.84 229.76 182.23 231.76
  Q 182.54 232.19 182.09 232.49
  Q 176.46 236.25 169.81 235.77
  C 167.57 235.61 165.05 234.50 162.77 233.79
  C 161.88 233.51 161.56 232.93 161.31 232.10
  Q 161.18 231.70 160.81 231.50
  C 157.63 229.80 156.35 233.78 153.89 234.91
  C 148.42 237.43 142.88 233.57 143.03 227.51
  Q 143.21 220.50 149.49 215.01
  C 155.89 209.43 162.11 210.50 169.77 211.88
  Q 171.06 212.11 172.10 211.59
  A 0.32 0.31 41.3 0 0 172.06 211.01
  C 163.77 208.08 157.01 208.05 148.89 211.34
  Q 146.97 212.11 147.15 210.05
  C 147.41 207.25 147.82 203.35 146.81 200.91
  Q 146.15 199.34 146.11 198.95
  Z
  M 206.22 219.57
  A 1.84 1.82 -16.6 0 0 205.31 221.23
  L 205.32 221.55
  A 0.88 0.88 0.0 0 0 206.66 222.26
  Q 216.54 216.26 226.70 213.36
  C 229.55 212.54 232.97 212.46 236.03 211.80
  Q 237.77 211.42 236.08 210.84
  Q 234.92 210.44 233.00 210.47
  Q 221.70 210.59 206.22 219.57
  Z
  M 156.88 216.38
  Q 153.54 216.41 152.19 218.36
  A 1.37 1.37 0.0 0 0 151.99 219.47
  Q 153.22 224.31 157.75 225.68
  C 159.90 226.33 161.19 226.91 162.96 225.91
  C 166.05 224.15 169.44 219.03 166.00 215.95
  C 163.35 213.58 159.16 216.35 156.88 216.38
  Z
  M 240.89 225.55
  Q 243.42 226.00 244.75 225.65
  Q 247.30 224.97 244.71 224.62
  Q 240.17 224.02 235.03 223.01
  C 231.40 222.30 228.35 222.58 224.81 222.90
  C 219.85 223.35 214.65 225.38 209.39 226.32
  Q 208.32 226.51 208.12 227.37
  A 1.01 1.00 2.1 0 0 209.26 228.59
  C 214.94 227.68 220.37 226.06 226.00 224.90
  Q 231.17 223.83 240.89 225.55
  Z
  M 169.88 309.40
  C 166.12 308.34 162.14 302.02 160.37 298.40
  A 0.48 0.48 0.0 0 0 159.48 298.49
  L 159.31 299.14
  Q 159.04 300.20 159.48 301.19
  C 161.62 306.00 164.88 310.20 169.40 312.63
  A 1.31 1.31 0.0 0 0 170.49 312.69
  L 173.77 311.39
  Q 174.20 311.22 174.60 311.46
  C 177.61 313.22 184.76 316.14 187.35 312.34
  Q 189.37 309.37 193.90 308.76
  A 0.97 0.96 -4.9 0 0 194.74 307.77
  L 194.73 307.38
  A 1.11 1.10 -9.3 0 0 193.29 306.35
  Q 189.03 307.69 184.69 306.73
  A 0.62 0.62 0.0 0 0 183.98 307.57
  L 184.67 309.33
  A 1.48 1.48 0.0 0 1 183.06 311.34
  Q 177.17 310.40 172.64 306.57
  A 1.46 1.46 0.0 0 0 170.32 307.21
  Q 170.04 308.00 170.36 308.88
  Q 170.63 309.61 169.88 309.40
  Z"
/>
<path fill="#30406f" d="
  M 286.52 128.18
  L 274.79 133.49
  Q 270.11 134.95 265.51 136.63
  Q 263.11 137.51 254.53 137.79
  A 1.02 1.02 0.0 0 1 253.48 136.72
  L 253.50 136.40
  Q 253.56 135.02 254.92 134.78
  C 267.21 132.52 279.16 128.17 288.73 122.19
  C 295.59 117.91 302.66 113.50 309.75 110.13
  Q 321.44 104.56 330.49 102.17
  C 336.57 100.56 343.10 98.62 348.96 97.83
  Q 363.34 95.89 377.77 98.07
  Q 379.42 98.32 380.41 99.15
  A 0.74 0.74 0.0 0 1 380.10 100.44
  C 375.61 101.42 370.89 100.16 366.26 100.45
  C 359.09 100.90 352.20 101.26 345.13 102.94
  C 336.79 104.92 331.65 106.62 323.03 109.79
  C 310.31 114.46 298.13 121.25 286.52 128.18
  Z"
/>
<path fill="#90ebfd" d="
  M 274.79 133.49
  L 286.52 128.18
  Q 286.80 129.57 287.76 129.14
  C 291.79 127.33 295.90 124.08 300.06 122.08
  Q 308.19 118.17 316.30 114.21
  C 319.52 112.64 323.56 111.49 327.10 110.53
  C 329.72 109.83 332.41 108.47 334.66 107.76
  Q 346.08 104.16 352.50 103.62
  Q 355.78 103.34 357.85 103.08
  C 362.37 102.51 366.12 102.47 370.30 102.37
  C 371.84 102.33 373.40 103.21 375.03 102.93
  A 1.66 1.66 0.0 0 1 376.72 105.44
  Q 374.03 109.84 371.05 113.90
  C 367.91 118.17 363.42 121.51 358.98 125.46
  C 354.66 129.31 348.56 131.04 342.99 132.88
  C 337.57 134.67 332.20 134.91 326.62 135.07
  C 319.92 135.25 313.17 136.22 306.26 135.93
  Q 304.18 135.85 300.80 136.38
  C 297.26 136.93 293.26 136.17 290.40 136.11
  Q 286.34 136.04 282.30 135.62
  Q 281.80 135.57 281.33 135.75
  Q 279.19 136.59 276.99 135.86
  Q 276.01 135.54 276.15 134.54
  Q 276.21 134.09 275.87 133.79
  Q 275.46 133.45 274.79 133.49
  Z"
/>
<path fill="#90ebfd" d="
  M 263.72 143.83
  L 265.66 143.90
  L 266.23 146.01
  Q 265.10 144.53 264.27 145.47
  Q 264.31 144.11 263.72 143.83
  Z"
/>
<path fill="#302c3c" d="
  M 266.23 146.01
  C 278.75 158.29 282.43 171.52 285.23 188.39
  C 286.21 194.31 289.09 197.89 290.95 203.21
  Q 292.47 207.53 294.29 211.74
  C 295.37 214.21 296.11 222.43 293.02 223.57
  C 289.79 224.76 290.12 227.17 289.14 229.79
  C 284.96 240.95 275.97 249.99 265.43 254.90
  C 259.38 257.72 251.08 259.61 244.08 261.15
  Q 240.71 261.89 244.16 261.85
  Q 251.51 261.77 260.25 262.09
  C 264.64 262.25 268.79 263.39 272.73 264.26
  C 285.94 267.15 321.65 277.61 317.49 297.69
  C 316.54 302.25 318.12 306.39 313.66 309.46
  Q 310.50 311.65 308.44 314.95
  A 1.64 1.58 -85.4 0 1 307.74 315.57
  Q 303.03 317.76 299.22 315.57
  Q 290.10 310.31 286.72 309.05
  Q 271.89 303.51 255.42 303.94
  A 0.81 0.80 81.9 0 0 254.66 304.96
  C 255.07 306.48 255.73 307.79 256.99 308.90
  C 260.93 312.38 264.51 316.59 268.40 319.61
  C 273.32 323.42 277.25 326.17 283.34 330.85
  C 285.67 332.64 289.92 336.12 292.93 336.87
  Q 293.43 336.99 293.84 336.69
  Q 303.27 329.85 313.03 336.47
  C 315.24 337.97 319.14 337.84 321.52 339.38
  C 324.35 341.21 325.91 343.67 326.03 347.20
  C 326.13 350.32 326.06 352.45 324.35 354.60
  Q 323.34 355.86 323.66 357.47
  C 324.80 363.23 325.92 368.18 320.26 371.86
  C 318.52 373.00 315.72 372.85 314.20 375.51
  C 309.85 383.07 303.89 383.33 296.25 380.17
  Q 295.73 379.95 295.51 380.47
  C 294.70 382.42 294.20 384.72 293.27 386.43
  Q 287.74 396.59 278.31 404.15
  Q 274.91 405.48 274.08 403.31
  C 279.48 398.21 284.80 393.34 288.33 386.79
  Q 293.92 376.41 295.12 364.72
  C 295.41 361.97 296.11 359.61 296.72 357.01
  C 297.34 354.40 294.96 349.40 293.16 346.07
  C 291.88 343.70 292.37 340.95 289.95 339.37
  C 283.66 335.28 277.74 331.01 271.58 326.82
  Q 266.07 323.08 262.86 320.06
  C 258.41 315.89 253.15 311.55 251.58 305.35
  A 1.53 1.53 0.0 0 0 250.00 304.20
  Q 247.29 304.39 244.34 303.59
  Q 243.69 303.41 243.46 303.05
  Q 243.24 302.72 243.33 302.32
  Q 243.45 301.83 243.94 301.70
  Q 244.79 301.47 245.62 301.41
  C 254.15 300.79 261.05 299.10 270.51 300.40
  C 281.55 301.91 289.40 304.12 298.18 310.27
  C 305.40 315.33 306.97 308.82 308.21 303.54
  Q 308.35 302.96 308.91 302.74
  L 310.88 301.97
  A 1.60 1.59 -22.3 0 0 311.77 299.86
  L 309.83 295.38
  A 1.03 1.03 0.0 0 1 311.09 293.99
  Q 313.20 294.65 314.44 296.45
  Q 315.14 297.47 315.40 296.26
  Q 315.81 294.27 314.80 292.07
  Q 309.96 281.55 299.32 276.77
  Q 281.96 268.96 263.21 266.10
  C 256.02 265.01 247.76 264.97 239.99 264.58
  C 235.03 264.34 230.17 265.35 225.07 265.71
  A 0.55 0.55 0.0 0 1 224.58 264.85
  Q 225.28 263.81 226.62 263.31
  C 236.86 259.47 247.15 258.09 257.79 254.56
  C 273.93 249.19 284.98 235.83 287.71 219.13
  A 0.90 0.90 0.0 0 1 288.88 218.42
  L 291.29 219.20
  A 0.66 0.66 0.0 0 0 292.15 218.60
  C 292.32 212.84 290.10 208.72 288.20 203.42
  Q 287.63 201.84 285.46 197.25
  Q 282.94 191.92 282.18 185.00
  Q 281.56 179.36 278.74 170.49
  Q 274.88 158.35 265.10 149.17
  Q 263.41 147.59 264.27 145.47
  Q 265.10 144.53 266.23 146.01
  Z
  M 310.36 368.96
  A 1.01 1.00 5.3 0 1 311.77 367.79
  Q 313.71 368.73 314.96 370.53
  A 0.75 0.74 63.2 0 0 315.80 370.81
  C 322.03 368.78 321.41 360.21 318.88 355.64
  A 1.06 1.05 -47.1 0 1 318.85 354.70
  C 320.41 351.29 323.06 342.32 317.45 340.47
  C 315.91 339.96 313.74 340.49 311.86 340.02
  Q 311.35 339.89 311.05 339.45
  C 306.72 333.20 299.88 334.51 295.05 339.28
  Q 294.72 339.60 294.72 340.06
  C 294.65 345.16 299.22 348.69 300.08 352.73
  Q 301.06 357.35 298.52 363.04
  C 297.25 365.89 298.16 368.99 297.83 371.85
  Q 297.62 373.73 297.28 375.49
  A 1.23 1.23 0.0 0 0 297.72 376.70
  C 302.78 380.78 309.12 379.57 311.17 373.13
  Q 311.35 372.57 311.19 372.01
  L 310.36 368.96
  Z"
/>
<path fill="#302c3c" d="
  M 190.21 174.23
  C 193.77 169.22 199.45 169.56 204.89 170.61
  A 0.48 0.48 0.0 0 1 205.07 171.48
  L 204.74 171.70
  Q 204.06 172.18 203.25 172.00
  Q 197.01 170.66 192.40 174.64
  Q 191.42 175.49 190.54 175.20
  A 0.64 0.63 26.6 0 1 190.21 174.23
  Z"
/>
<path fill="#302c3c" d="
  M 138.26 175.82
  Q 137.66 175.99 137.48 175.39
  C 135.95 170.19 146.06 170.59 148.60 171.54
  Q 149.36 171.82 148.88 172.48
  Q 148.85 172.53 148.46 172.65
  Q 148.25 172.72 148.01 172.70
  C 143.51 172.21 142.07 174.71 138.26 175.82
  Z"
/>
<path fill="#302c3c" d="
  M 210.04 200.20
  L 210.75 203.94
  Q 210.89 204.65 211.46 204.21
  Q 213.69 202.47 216.04 200.80
  Q 216.70 200.33 217.23 200.37
  A 0.87 0.87 0.0 0 1 217.94 201.66
  C 216.60 204.09 214.59 204.48 212.20 205.46
  A 1.07 1.07 0.0 0 0 211.60 206.14
  C 211.08 207.96 210.85 210.59 208.26 210.45
  A 1.66 1.64 31.3 0 0 207.33 210.67
  C 206.12 211.36 205.10 212.08 203.74 212.45
  C 199.19 213.69 194.36 215.64 189.92 216.06
  Q 186.79 216.36 183.53 216.22
  A 1.34 1.33 87.1 0 1 182.27 215.08
  C 180.97 205.75 184.48 193.29 195.97 192.32
  C 198.43 192.11 202.76 191.60 204.64 193.62
  Q 206.71 195.84 208.87 197.99
  Q 209.26 198.37 209.68 198.02
  C 211.14 196.82 213.31 195.31 215.17 195.01
  A 1.24 1.24 0.0 0 1 215.75 197.41
  L 210.69 199.09
  Q 209.88 199.36 210.04 200.20
  Z
  M 197.97 194.14
  Q 194.97 193.94 193.18 195.81
  Q 192.84 196.17 192.34 196.12
  Q 191.14 195.99 190.00 196.32
  Q 189.87 196.35 189.87 196.49
  Q 189.87 196.62 189.87 196.75
  Q 189.87 197.12 189.50 197.12
  L 189.00 197.12
  Q 188.44 197.12 188.13 197.59
  C 187.19 199.02 186.25 200.10 185.97 201.87
  Q 185.22 206.58 183.81 211.39
  A 2.08 2.08 0.0 0 0 186.13 214.03
  L 197.38 212.22
  Q 197.98 212.13 198.27 211.58
  Q 198.69 210.77 199.45 210.64
  Q 199.79 210.58 200.12 210.48
  Q 200.62 210.32 200.63 210.02
  Q 200.63 209.49 200.23 209.15
  Q 199.54 208.56 199.61 207.67
  C 199.70 206.58 199.66 205.56 200.14 204.74
  Q 200.38 204.34 200.38 203.87
  C 200.38 200.73 200.58 198.44 197.33 196.95
  A 0.74 0.74 0.0 0 1 197.33 195.61
  Q 197.50 195.53 198.02 195.66
  C 203.99 198.01 202.44 202.45 201.54 207.41
  Q 201.12 209.70 203.44 209.90
  L 205.34 210.06
  Q 207.92 210.27 208.05 207.69
  C 208.32 202.52 205.54 191.36 197.97 194.14
  Z"
/>
<path fill="#302c3c" d="
  M 146.11 198.95
  Q 146.15 199.34 146.81 200.91
  C 147.82 203.35 147.41 207.25 147.15 210.05
  Q 146.97 212.11 148.89 211.34
  C 157.01 208.05 163.77 208.08 172.06 211.01
  A 0.32 0.31 41.3 0 1 172.10 211.59
  Q 171.06 212.11 169.77 211.88
  C 162.11 210.50 155.89 209.43 149.49 215.01
  Q 143.21 220.50 143.03 227.51
  C 142.88 233.57 148.42 237.43 153.89 234.91
  C 156.35 233.78 157.63 229.80 160.81 231.50
  Q 161.18 231.70 161.31 232.10
  C 161.56 232.93 161.88 233.51 162.77 233.79
  C 165.05 234.50 167.57 235.61 169.81 235.77
  Q 176.46 236.25 182.09 232.49
  Q 182.54 232.19 182.23 231.76
  C 180.84 229.76 178.47 226.83 179.08 224.45
  Q 179.99 220.93 181.22 224.35
  C 184.10 232.34 190.95 232.45 197.59 233.83
  Q 199.00 234.13 197.79 234.91
  C 195.86 236.18 189.30 234.63 187.16 233.82
  C 186.05 233.40 184.82 233.83 183.78 234.59
  C 181.04 236.56 177.62 237.16 174.36 237.73
  C 171.45 238.23 172.15 239.71 170.34 240.96
  C 167.11 243.18 160.74 243.78 158.65 239.79
  C 156.82 236.32 155.60 237.82 152.75 238.04
  C 145.67 238.60 139.11 235.09 139.79 227.26
  C 140.24 222.00 142.09 219.21 144.68 215.62
  Q 147.11 212.25 143.30 213.90
  Q 138.02 216.18 132.97 213.49
  A 2.01 1.99 -84.6 0 1 132.00 212.30
  Q 130.09 205.82 132.83 200.28
  C 135.27 195.34 137.60 192.57 143.50 193.75
  C 150.62 195.17 152.88 199.41 153.80 206.76
  A 0.71 0.71 0.0 0 1 152.68 207.43
  L 152.23 207.11
  A 3.33 3.30 12.2 0 1 150.91 205.08
  Q 150.04 200.72 148.14 198.15
  Q 145.63 194.76 146.11 198.95
  Z
  M 136.78 201.99
  Q 137.36 200.66 138.78 200.00
  Q 140.81 199.05 142.65 197.83
  A 0.60 0.60 0.0 0 0 142.66 196.83
  Q 141.92 196.34 140.92 196.88
  Q 136.47 199.28 135.37 204.07
  C 135.10 205.25 134.32 206.36 134.34 207.79
  Q 134.35 208.32 134.68 208.63
  Q 135.00 208.93 135.43 209.11
  Q 135.96 209.32 136.27 208.84
  Q 137.29 207.28 138.89 206.30
  A 0.79 0.78 -50.1 0 0 138.77 204.90
  Q 137.39 204.37 136.78 202.98
  Q 136.56 202.49 136.78 201.99
  Z
  M 162.11 238.78
  Q 165.12 241.85 168.03 239.32
  Q 168.43 238.96 168.05 238.57
  Q 165.98 236.46 162.78 237.23
  Q 162.04 236.74 161.65 236.98
  Q 161.25 237.23 161.49 237.82
  Q 161.67 238.25 162.11 238.78
  Z"
/>
<path fill="#ffffff" d="
  M 198.02 195.66
  Q 197.50 195.45 197.42 194.99
  Q 197.30 194.39 197.97 194.14
  C 205.54 191.36 208.32 202.52 208.05 207.69
  Q 207.92 210.27 205.34 210.06
  L 203.44 209.90
  Q 201.12 209.70 201.54 207.41
  C 202.44 202.45 203.99 198.01 198.02 195.66
  Z"
/>
<path fill="#2a6b95" d="
  M 197.97 194.14
  Q 197.30 194.39 197.42 194.99
  Q 197.50 195.45 198.02 195.66
  Q 197.50 195.53 197.33 195.61
  A 0.74 0.74 0.0 0 0 197.33 196.95
  C 200.58 198.44 200.38 200.73 200.38 203.87
  Q 200.38 204.34 200.14 204.74
  C 199.66 205.56 199.70 206.58 199.61 207.67
  Q 199.54 208.56 200.23 209.15
  Q 200.63 209.49 200.63 210.02
  Q 200.62 210.32 200.12 210.48
  Q 199.79 210.58 199.45 210.64
  Q 198.69 210.77 198.27 211.58
  Q 197.98 212.13 197.38 212.22
  L 186.13 214.03
  A 2.08 2.08 0.0 0 1 183.81 211.39
  Q 185.22 206.58 185.97 201.87
  C 186.25 200.10 187.19 199.02 188.13 197.59
  Q 188.44 197.12 189.00 197.12
  L 189.50 197.12
  Q 189.87 197.12 189.87 196.75
  Q 189.87 196.62 189.87 196.49
  Q 189.87 196.35 190.00 196.32
  Q 191.14 195.99 192.34 196.12
  Q 192.84 196.17 193.18 195.81
  Q 194.97 193.94 197.97 194.14
  Z"
/>
<path fill="#90ebfd" d="
  M 136.78 202.98
  Q 137.39 204.37 138.77 204.90
  A 0.79 0.78 -50.1 0 1 138.89 206.30
  Q 137.29 207.28 136.27 208.84
  Q 135.96 209.32 135.43 209.11
  Q 135.00 208.93 134.68 208.63
  Q 134.35 208.32 134.34 207.79
  C 134.32 206.36 135.10 205.25 135.37 204.07
  Q 136.47 199.28 140.92 196.88
  Q 141.92 196.34 142.66 196.83
  A 0.60 0.60 0.0 0 1 142.65 197.83
  Q 140.81 199.05 138.78 200.00
  Q 137.36 200.66 136.78 201.99
  Q 136.56 202.49 136.78 202.98
  Z"
/>
<path fill="#302c3c" d="
  M 206.22 219.57
  Q 221.70 210.59 233.00 210.47
  Q 234.92 210.44 236.08 210.84
  Q 237.77 211.42 236.03 211.80
  C 232.97 212.46 229.55 212.54 226.70 213.36
  Q 216.54 216.26 206.66 222.26
  A 0.88 0.88 0.0 0 1 205.32 221.55
  L 205.31 221.23
  A 1.84 1.82 -16.6 0 1 206.22 219.57
  Z"
/>
<path fill="#30406f" d="
  M 156.88 216.38
  C 159.16 216.35 163.35 213.58 166.00 215.95
  C 169.44 219.03 166.05 224.15 162.96 225.91
  C 161.19 226.91 159.90 226.33 157.75 225.68
  Q 153.22 224.31 151.99 219.47
  A 1.37 1.37 0.0 0 1 152.19 218.36
  Q 153.54 216.41 156.88 216.38
  Z
  M 163.43 217.34
  L 155.92 219.13
  A 0.36 0.36 0.0 0 0 155.66 219.57
  L 155.79 220.11
  A 4.17 4.10 -13.4 0 0 160.79 223.13
  L 160.89 223.11
  A 4.17 4.10 -13.4 0 0 164.00 218.16
  L 163.87 217.61
  A 0.36 0.36 0.0 0 0 163.43 217.34
  Z"
/>
<path fill="#90ebfd" d="
  M 163.43 217.34
  A 0.36 0.36 0.0 0 1 163.87 217.61
  L 164.00 218.16
  A 4.17 4.10 -13.4 0 1 160.89 223.11
  L 160.79 223.13
  A 4.17 4.10 -13.4 0 1 155.79 220.11
  L 155.66 219.57
  A 0.36 0.36 0.0 0 1 155.92 219.13
  L 163.43 217.34
  Z"
/>
<path fill="#302c3c" d="
  M 240.89 225.55
  Q 231.17 223.83 226.00 224.90
  C 220.37 226.06 214.94 227.68 209.26 228.59
  A 1.01 1.00 2.1 0 1 208.12 227.37
  Q 208.32 226.51 209.39 226.32
  C 214.65 225.38 219.85 223.35 224.81 222.90
  C 228.35 222.58 231.40 222.30 235.03 223.01
  Q 240.17 224.02 244.71 224.62
  Q 247.30 224.97 244.75 225.65
  Q 243.42 226.00 240.89 225.55
  Z"
/>
<path fill="#90ebfd" d="
  M 162.78 237.23
  Q 162.11 237.48 162.11 238.78
  Q 161.67 238.25 161.49 237.82
  Q 161.25 237.23 161.65 236.98
  Q 162.04 236.74 162.78 237.23
  Z"
/>
<path fill="#ffffff" d="
  M 162.11 238.78
  Q 162.11 237.48 162.78 237.23
  Q 165.98 236.46 168.05 238.57
  Q 168.43 238.96 168.03 239.32
  Q 165.12 241.85 162.11 238.78
  Z"
/>
<path fill="#ffffff" d="
  M 104.24 273.20
  Q 101.44 271.06 99.80 267.95
  A 1.04 1.04 0.0 0 1 100.79 266.43
  C 106.79 266.86 112.24 267.35 116.52 271.75
  C 123.49 278.91 130.25 284.45 140.49 285.70
  C 146.40 286.43 155.32 281.73 159.79 278.04
  Q 161.96 276.25 161.40 279.00
  C 161.19 280.07 160.08 282.05 159.23 283.12
  C 155.24 288.11 146.65 300.08 148.04 306.65
  Q 148.81 310.29 148.78 310.90
  Q 148.64 314.00 147.18 316.78
  Q 146.95 317.23 146.44 317.27
  Q 145.02 317.38 143.74 317.07
  C 136.89 315.41 129.91 313.54 123.60 310.87
  Q 108.40 304.44 98.29 294.98
  C 95.03 291.93 87.51 282.25 90.00 277.48
  A 0.47 0.47 0.0 0 1 90.81 277.44
  Q 92.24 279.56 94.43 280.85
  A 1.06 1.06 0.0 0 0 95.80 280.57
  L 96.01 280.28
  A 1.65 1.64 -47.9 0 0 95.91 278.19
  C 93.31 275.31 89.16 271.96 94.50 268.54
  Q 95.66 267.80 96.09 269.11
  C 97.32 272.84 99.30 275.49 103.82 274.81
  Q 105.92 274.49 104.24 273.20
  Z
  M 110.59 280.10
  C 109.16 277.92 109.39 276.24 109.73 273.71
  A 1.26 1.26 0.0 0 0 108.22 272.31
  L 107.19 272.53
  Q 105.63 272.87 105.52 274.46
  C 105.39 276.14 105.14 277.86 105.92 279.46
  Q 107.59 282.85 109.98 284.27
  Q 114.07 286.72 111.99 282.43
  Q 111.64 281.70 110.59 280.10
  Z"
/>
<path fill="#302c3c" d="
  M 110.59 280.10
  Q 111.64 281.70 111.99 282.43
  Q 114.07 286.72 109.98 284.27
  Q 107.59 282.85 105.92 279.46
  C 105.14 277.86 105.39 276.14 105.52 274.46
  Q 105.63 272.87 107.19 272.53
  L 108.22 272.31
  A 1.26 1.26 0.0 0 1 109.73 273.71
  C 109.39 276.24 109.16 277.92 110.59 280.10
  Z"
/>
<path fill="#302c3c" d="
  M 170.36 308.88
  Q 170.04 308.00 170.32 307.21
  A 1.46 1.46 0.0 0 1 172.64 306.57
  Q 177.17 310.40 183.06 311.34
  A 1.48 1.48 0.0 0 0 184.67 309.33
  L 183.98 307.57
  A 0.62 0.62 0.0 0 1 184.69 306.73
  Q 189.03 307.69 193.29 306.35
  A 1.11 1.10 -9.3 0 1 194.73 307.38
  L 194.74 307.77
  A 0.97 0.96 -4.9 0 1 193.90 308.76
  Q 189.37 309.37 187.35 312.34
  C 184.76 316.14 177.61 313.22 174.60 311.46
  Q 174.20 311.22 173.77 311.39
  L 170.49 312.69
  A 1.31 1.31 0.0 0 1 169.40 312.63
  C 164.88 310.20 161.62 306.00 159.48 301.19
  Q 159.04 300.20 159.31 299.14
  L 159.48 298.49
  A 0.48 0.48 0.0 0 1 160.37 298.40
  C 162.14 302.02 166.12 308.34 169.88 309.40
  Q 170.63 309.61 170.36 308.88
  Z"
/>
<path fill="#ffffff" d="
  M 310.36 368.96
  L 311.19 372.01
  Q 311.35 372.57 311.17 373.13
  C 309.12 379.57 302.78 380.78 297.72 376.70
  A 1.23 1.23 0.0 0 1 297.28 375.49
  Q 297.62 373.73 297.83 371.85
  C 298.16 368.99 297.25 365.89 298.52 363.04
  Q 301.06 357.35 300.08 352.73
  C 299.22 348.69 294.65 345.16 294.72 340.06
  Q 294.72 339.60 295.05 339.28
  C 299.88 334.51 306.72 333.20 311.05 339.45
  Q 311.35 339.89 311.86 340.02
  C 313.74 340.49 315.91 339.96 317.45 340.47
  C 323.06 342.32 320.41 351.29 318.85 354.70
  A 1.06 1.05 -47.1 0 0 318.88 355.64
  C 321.41 360.21 322.03 368.78 315.80 370.81
  A 0.75 0.74 63.2 0 1 314.96 370.53
  Q 313.71 368.73 311.77 367.79
  A 1.01 1.00 5.3 0 0 310.36 368.96
  Z"
/>
<path fill="#30406f" d="
  M 175.77 393.31
  L 176.13 395.65
  Q 170.65 406.30 169.85 411.17
  C 169.14 415.51 166.72 421.26 161.44 420.98
  C 154.63 420.62 152.28 415.46 151.86 409.27
  A 1.85 1.84 -82.3 0 0 150.63 407.65
  Q 148.14 406.78 145.49 407.04
  A 1.44 1.43 -83.3 0 0 144.27 408.01
  C 142.54 413.15 139.87 418.24 133.24 416.74
  C 129.16 415.82 127.36 413.61 125.65 410.04
  Q 124.04 406.66 119.77 404.47
  C 115.16 402.11 115.15 397.69 115.60 392.50
  C 115.93 388.81 115.32 384.86 116.38 381.58
  C 119.40 372.17 127.68 368.79 136.87 368.13
  Q 137.44 368.08 137.46 367.51
  C 137.49 366.62 137.16 365.58 137.21 364.78
  C 137.71 357.56 140.91 348.82 146.49 344.61
  A 0.86 0.85 -36.4 0 1 147.70 344.79
  Q 148.27 345.59 147.38 346.57
  C 141.13 353.45 137.96 364.03 142.27 372.81
  A 1.31 1.30 70.8 0 0 143.71 373.51
  Q 145.08 373.21 146.49 373.40
  A 0.75 0.74 -89.1 0 1 147.13 374.07
  C 148.41 388.89 162.55 394.87 175.77 393.31
  Z
  M 126.39 395.01
  L 128.70 396.81
  Q 129.09 397.11 129.57 397.13
  Q 130.31 397.15 130.76 397.65
  C 131.61 398.58 132.45 399.20 133.40 400.00
  Q 133.77 400.32 134.27 400.34
  C 136.37 400.46 139.03 400.27 140.72 401.66
  C 142.71 403.31 147.22 404.72 149.79 405.24
  C 152.61 405.81 154.83 406.68 157.77 406.50
  Q 161.77 406.25 165.79 406.41
  Q 166.25 406.42 166.68 406.59
  L 167.94 407.07
  Q 168.46 407.26 168.83 406.85
  Q 172.14 403.24 171.69 398.09
  Q 173.62 395.72 168.46 395.79
  C 164.16 395.85 160.17 394.76 156.27 393.00
  C 154.12 392.03 152.63 390.35 150.84 388.80
  C 147.24 385.70 145.35 382.27 143.95 377.90
  Q 143.80 377.44 143.88 376.97
  Q 144.16 375.36 142.82 374.47
  Q 142.36 374.16 142.23 374.70
  Q 142.00 375.59 142.48 376.46
  Q 142.25 376.49 142.20 376.94
  Q 142.16 377.37 141.73 377.39
  Q 141.20 377.41 140.37 377.02
  Q 139.76 374.34 137.95 372.15
  A 1.06 1.06 0.0 0 0 137.14 371.75
  C 130.80 371.65 122.62 374.08 119.76 380.16
  C 118.67 382.47 119.07 385.28 119.09 387.87
  C 119.10 389.46 119.82 390.36 121.00 391.23
  C 122.79 392.57 124.44 393.98 126.39 395.01
  Z
  M 130.04 404.17
  A 1.44 1.44 0.0 0 1 131.99 404.56
  C 132.70 405.59 133.81 406.56 135.16 406.48
  Q 136.37 406.40 136.87 405.72
  A 1.49 1.49 0.0 0 0 135.82 403.35
  C 129.35 402.72 124.19 398.31 119.53 395.01
  A 0.71 0.71 0.0 0 0 118.49 395.28
  C 117.02 398.21 122.64 402.00 124.81 402.89
  C 126.67 403.65 127.49 404.43 127.03 406.47
  A 1.63 1.60 -50.5 0 0 127.11 407.40
  Q 129.14 412.46 134.50 413.58
  C 138.02 414.32 140.81 410.41 141.65 407.47
  A 0.78 0.77 -83.3 0 0 140.87 406.48
  L 140.44 406.51
  Q 139.09 406.58 138.63 407.85
  C 136.60 413.42 130.86 410.13 129.58 406.96
  Q 128.79 404.98 130.04 404.17
  Z
  M 157.74 411.51
  Q 158.13 410.31 156.98 409.77
  L 154.35 408.55
  Q 153.19 408.01 153.58 409.23
  C 154.50 412.15 155.22 415.70 158.12 417.06
  C 162.45 419.08 166.42 416.84 167.14 411.87
  A 0.87 0.87 0.0 0 0 166.22 410.88
  L 165.88 410.90
  Q 164.64 410.98 164.43 412.20
  C 163.48 417.72 156.09 416.70 157.74 411.51
  Z
  M 162.3600 410.1468
  A 1.85 0.84 -0.1 0 0 160.5085 409.3100
  A 1.85 0.84 -0.1 0 0 158.6600 410.1532
  A 1.85 0.84 -0.1 0 0 160.5115 410.9900
  A 1.85 0.84 -0.1 0 0 162.3600 410.1468
  Z"
/>
<path fill="#1998ea" d="
  M 140.37 377.02
  Q 140.72 377.10 140.61 377.52
  Q 140.49 378.00 139.99 377.90
  Q 138.38 377.55 137.79 378.92
  A 0.98 0.97 3.1 0 1 137.15 379.49
  L 132.22 380.91
  A 0.49 0.48 82.2 0 0 131.87 381.38
  L 131.87 381.87
  Q 131.87 382.12 132.12 382.11
  L 138.64 381.91
  Q 139.48 381.89 139.90 381.15
  Q 140.21 380.59 140.98 380.61
  Q 141.55 380.62 141.88 381.10
  Q 142.44 381.93 143.35 382.27
  Q 143.94 382.48 144.09 381.88
  Q 144.30 381.02 143.85 380.35
  Q 143.59 379.95 143.12 379.88
  Q 142.41 379.76 142.05 379.28
  Q 141.83 378.99 141.90 378.66
  Q 141.99 378.21 142.48 378.07
  Q 142.96 377.93 142.87 377.43
  Q 142.78 376.95 142.48 376.46
  Q 142.00 375.59 142.23 374.70
  Q 142.36 374.16 142.82 374.47
  Q 144.16 375.36 143.88 376.97
  Q 143.80 377.44 143.95 377.90
  C 145.35 382.27 147.24 385.70 150.84 388.80
  C 152.63 390.35 154.12 392.03 156.27 393.00
  C 160.17 394.76 164.16 395.85 168.46 395.79
  Q 173.62 395.72 171.69 398.09
  Q 169.00 398.04 166.22 397.95
  C 162.06 397.81 158.03 396.39 153.88 395.63
  C 151.82 395.25 149.91 396.13 147.66 395.77
  Q 136.18 393.94 129.90 391.11
  Q 125.82 389.26 120.95 383.46
  Q 120.60 383.04 120.09 383.25
  Q 119.38 383.53 119.60 384.52
  Q 119.91 385.85 120.80 387.12
  C 121.96 388.76 122.48 390.21 123.47 391.79
  Q 123.77 392.28 124.32 392.40
  Q 126.15 392.80 127.53 394.05
  A 0.48 0.47 -28.4 0 1 127.28 394.87
  L 126.39 395.01
  C 124.44 393.98 122.79 392.57 121.00 391.23
  C 119.82 390.36 119.10 389.46 119.09 387.87
  C 119.07 385.28 118.67 382.47 119.76 380.16
  C 122.62 374.08 130.80 371.65 137.14 371.75
  A 1.06 1.06 0.0 0 1 137.95 372.15
  Q 139.76 374.34 140.37 377.02
  Z"
/>
<path fill="#2a6b95" d="
  M 142.48 376.46
  Q 142.78 376.95 142.87 377.43
  Q 142.96 377.93 142.48 378.07
  Q 141.99 378.21 141.90 378.66
  Q 141.83 378.99 142.05 379.28
  Q 142.41 379.76 143.12 379.88
  Q 143.59 379.95 143.85 380.35
  Q 144.30 381.02 144.09 381.88
  Q 143.94 382.48 143.35 382.27
  Q 142.44 381.93 141.88 381.10
  Q 141.55 380.62 140.98 380.61
  Q 140.21 380.59 139.90 381.15
  Q 139.48 381.89 138.64 381.91
  L 132.12 382.11
  Q 131.87 382.12 131.87 381.87
  L 131.87 381.38
  A 0.49 0.48 82.2 0 1 132.22 380.91
  L 137.15 379.49
  A 0.98 0.97 3.1 0 0 137.79 378.92
  Q 138.38 377.55 139.99 377.90
  Q 140.49 378.00 140.61 377.52
  Q 140.72 377.10 140.37 377.02
  Q 141.20 377.41 141.73 377.39
  Q 142.16 377.37 142.20 376.94
  Q 142.25 376.49 142.48 376.46
  Z"
/>
<path fill="#2a6b95" d="
  M 171.69 398.09
  Q 172.14 403.24 168.83 406.85
  Q 168.46 407.26 167.94 407.07
  L 166.68 406.59
  Q 166.25 406.42 165.79 406.41
  Q 161.77 406.25 157.77 406.50
  C 154.83 406.68 152.61 405.81 149.79 405.24
  C 147.22 404.72 142.71 403.31 140.72 401.66
  C 139.03 400.27 136.37 400.46 134.27 400.34
  Q 133.77 400.32 133.40 400.00
  C 132.45 399.20 131.61 398.58 130.76 397.65
  Q 130.31 397.15 129.57 397.13
  Q 129.09 397.11 128.70 396.81
  L 126.39 395.01
  L 127.28 394.87
  A 0.48 0.47 -28.4 0 0 127.53 394.05
  Q 126.15 392.80 124.32 392.40
  Q 123.77 392.28 123.47 391.79
  C 122.48 390.21 121.96 388.76 120.80 387.12
  Q 119.91 385.85 119.60 384.52
  Q 119.38 383.53 120.09 383.25
  Q 120.60 383.04 120.95 383.46
  Q 125.82 389.26 129.90 391.11
  Q 136.18 393.94 147.66 395.77
  C 149.91 396.13 151.82 395.25 153.88 395.63
  C 158.03 396.39 162.06 397.81 166.22 397.95
  Q 169.00 398.04 171.69 398.09
  Z"
/>
<path fill="#bab4de" d="
  M 130.04 404.17
  Q 128.79 404.98 129.58 406.96
  C 130.86 410.13 136.60 413.42 138.63 407.85
  Q 139.09 406.58 140.44 406.51
  L 140.87 406.48
  A 0.78 0.77 -83.3 0 1 141.65 407.47
  C 140.81 410.41 138.02 414.32 134.50 413.58
  Q 129.14 412.46 127.11 407.40
  A 1.63 1.60 -50.5 0 1 127.03 406.47
  C 127.49 404.43 126.67 403.65 124.81 402.89
  C 122.64 402.00 117.02 398.21 118.49 395.28
  A 0.71 0.71 0.0 0 1 119.53 395.01
  C 124.19 398.31 129.35 402.72 135.82 403.35
  A 1.49 1.49 0.0 0 1 136.87 405.72
  Q 136.37 406.40 135.16 406.48
  C 133.81 406.56 132.70 405.59 131.99 404.56
  A 1.44 1.44 0.0 0 0 130.04 404.17
  Z"
/>
<path fill="#30406f" d="
  M 274.08 403.31
  Q 274.91 405.48 278.31 404.15
  Q 277.53 405.53 279.21 407.80
  C 282.07 411.65 281.38 414.42 280.27 418.95
  A 1.57 1.54 40.7 0 0 280.35 419.89
  Q 281.00 421.45 281.85 422.84
  C 283.89 426.18 284.59 431.94 280.86 434.55
  Q 273.98 439.36 267.41 434.50
  Q 267.02 434.20 266.55 434.38
  Q 263.75 435.41 262.27 437.92
  A 1.33 1.31 52.6 0 0 262.14 438.94
  Q 264.31 446.24 259.05 450.57
  C 253.34 455.26 247.36 451.89 243.16 446.93
  Q 242.83 446.54 242.33 446.41
  C 239.87 445.76 237.02 445.68 234.94 445.05
  Q 226.72 442.58 222.68 435.04
  C 220.59 431.15 221.89 426.11 222.86 422.09
  A 1.51 1.51 0.0 0 0 221.94 420.34
  Q 218.16 418.86 215.24 416.09
  L 216.15 415.95
  Q 216.64 415.87 216.54 415.38
  Q 216.47 415.01 216.25 414.66
  C 225.91 422.36 243.14 420.86 253.42 415.42
  C 256.32 413.89 259.54 411.06 263.15 409.30
  Q 268.88 406.52 274.08 403.31
  Z
  M 272.46 407.72
  Q 269.12 409.97 265.30 411.10
  Q 263.02 411.77 261.57 412.86
  Q 259.85 414.15 258.16 415.48
  Q 257.99 415.61 257.78 415.62
  Q 257.63 415.62 257.46 415.60
  Q 257.02 415.54 256.73 415.88
  C 250.97 422.51 242.67 422.56 234.21 422.92
  C 232.41 423.00 228.24 422.46 226.38 423.38
  Q 224.82 424.15 224.46 426.77
  Q 223.55 433.34 226.80 437.52
  Q 231.31 443.50 239.07 443.24
  Q 239.79 443.21 240.84 442.72
  C 242.13 442.12 243.41 442.67 244.53 442.12
  Q 244.93 441.92 245.32 442.14
  Q 245.60 442.30 245.91 442.32
  Q 246.37 442.35 247.01 441.93
  Q 249.87 440.09 253.09 439.03
  C 256.28 437.97 258.06 436.12 260.75 434.38
  Q 261.18 434.10 261.43 433.64
  L 262.24 432.10
  Q 262.47 431.68 262.93 431.54
  Q 267.03 430.29 268.61 432.67
  Q 274.68 435.82 279.71 431.20
  Q 281.29 429.74 281.16 427.79
  Q 281.12 427.23 280.60 427.45
  C 279.70 427.83 279.44 428.02 278.83 428.89
  Q 276.17 432.72 270.95 430.59
  Q 269.51 430.75 269.18 429.81
  Q 269.02 429.35 268.61 429.10
  Q 267.69 428.52 267.56 427.51
  Q 267.50 427.01 267.83 426.63
  Q 270.04 424.11 271.74 421.25
  Q 272.01 420.80 271.85 420.48
  Q 271.70 420.19 271.98 420.03
  Q 272.54 419.69 273.18 419.94
  Q 273.57 420.09 273.86 420.37
  Q 274.49 420.96 275.31 420.32
  Q 276.50 419.40 277.72 418.50
  Q 278.11 418.22 278.24 417.75
  C 279.48 413.38 277.60 410.65 275.88 407.01
  A 1.02 1.02 0.0 0 0 275.16 406.45
  Q 273.67 406.16 272.46 407.72
  Z
  M 277.77 426.23
  Q 279.85 425.95 279.46 423.66
  Q 279.12 421.61 277.72 423.14
  C 276.54 424.42 274.80 424.74 273.48 425.90
  Q 272.49 426.76 272.49 427.33
  Q 272.55 430.71 274.46 427.93
  Q 275.41 426.54 277.77 426.23
  Z
  M 249.98 445.92
  Q 249.33 444.91 248.14 445.09
  L 246.30 445.37
  Q 245.09 445.55 245.95 446.42
  C 249.85 450.34 254.63 451.51 258.60 446.70
  A 0.59 0.58 71.1 0 0 258.72 446.45
  L 259.98 440.35
  Q 260.27 438.98 259.06 439.68
  Q 257.16 440.79 257.32 443.29
  C 257.45 445.42 257.18 446.39 255.91 447.86
  Q 255.57 448.25 255.07 448.29
  Q 251.71 448.60 249.98 445.92
  Z
  M 254.74 441.12
  L 251.04 442.42
  A 0.12 0.12 0.0 0 0 250.97 442.57
  L 250.98 442.61
  A 1.52 1.24 -19.3 0 0 252.82 443.28
  L 253.88 442.91
  A 1.52 1.24 -19.3 0 0 254.90 441.23
  L 254.89 441.20
  A 0.12 0.12 0.0 0 0 254.74 441.12
  Z"
/>
<path fill="#2a6b95" d="
  M 270.95 430.59
  Q 268.29 430.93 268.61 432.67
  Q 267.03 430.29 262.93 431.54
  Q 262.47 431.68 262.24 432.10
  L 261.43 433.64
  Q 261.18 434.10 260.75 434.38
  C 258.06 436.12 256.28 437.97 253.09 439.03
  Q 249.87 440.09 247.01 441.93
  Q 246.37 442.35 245.91 442.32
  Q 245.60 442.30 245.32 442.14
  Q 244.93 441.92 244.53 442.12
  C 243.41 442.67 242.13 442.12 240.84 442.72
  Q 239.79 443.21 239.07 443.24
  Q 231.31 443.50 226.80 437.52
  C 230.68 437.50 234.86 437.79 238.36 437.26
  C 244.15 436.38 251.63 433.77 255.60 429.22
  C 257.56 426.98 259.26 425.19 261.86 423.41
  Q 266.55 420.19 271.01 416.47
  A 2.06 2.05 67.6 0 0 271.74 414.70
  Q 271.41 411.37 273.57 409.04
  A 0.76 0.76 0.0 0 0 273.08 407.77
  L 272.46 407.72
  Q 273.67 406.16 275.16 406.45
  A 1.02 1.02 0.0 0 1 275.88 407.01
  C 277.60 410.65 279.48 413.38 278.24 417.75
  Q 278.11 418.22 277.72 418.50
  Q 276.50 419.40 275.31 420.32
  Q 274.49 420.96 273.86 420.37
  Q 273.57 420.09 273.18 419.94
  Q 272.54 419.69 271.98 420.03
  Q 271.70 420.19 271.85 420.48
  Q 272.01 420.80 271.74 421.25
  Q 270.04 424.11 267.83 426.63
  Q 267.50 427.01 267.56 427.51
  Q 267.69 428.52 268.61 429.10
  Q 269.02 429.35 269.18 429.81
  Q 269.51 430.75 270.95 430.59
  Z"
/>
<path fill="#1998ea" d="
  M 272.46 407.72
  L 273.08 407.77
  A 0.76 0.76 0.0 0 1 273.57 409.04
  Q 271.41 411.37 271.74 414.70
  A 2.06 2.05 67.6 0 1 271.01 416.47
  Q 266.55 420.19 261.86 423.41
  C 259.26 425.19 257.56 426.98 255.60 429.22
  C 251.63 433.77 244.15 436.38 238.36 437.26
  C 234.86 437.79 230.68 437.50 226.80 437.52
  Q 223.55 433.34 224.46 426.77
  Q 224.82 424.15 226.38 423.38
  C 228.24 422.46 232.41 423.00 234.21 422.92
  C 242.67 422.56 250.97 422.51 256.73 415.88
  Q 257.02 415.54 257.46 415.60
  Q 257.63 415.62 257.78 415.62
  Q 257.99 415.61 258.16 415.48
  Q 259.85 414.15 261.57 412.86
  Q 263.02 411.77 265.30 411.10
  Q 269.12 409.97 272.46 407.72
  Z
  M 249.19 423.22
  C 247.60 422.68 245.44 423.85 243.68 423.88
  Q 237.95 423.99 233.13 425.25
  Q 230.66 425.90 232.98 426.97
  Q 235.05 427.93 238.19 427.78
  Q 238.73 427.75 239.21 428.02
  Q 241.22 429.19 243.48 428.19
  A 0.36 0.36 0.0 0 1 243.97 428.42
  Q 244.10 428.87 244.58 428.40
  Q 244.89 428.10 245.11 427.74
  C 246.07 426.20 248.12 425.90 249.47 424.84
  A 0.93 0.93 0.0 0 0 249.19 423.22
  Z"
/>
<path fill="#bab4de" d="
  M 157.74 411.51
  C 156.09 416.70 163.48 417.72 164.43 412.20
  Q 164.64 410.98 165.88 410.90
  L 166.22 410.88
  A 0.87 0.87 0.0 0 1 167.14 411.87
  C 166.42 416.84 162.45 419.08 158.12 417.06
  C 155.22 415.70 154.50 412.15 153.58 409.23
  Q 153.19 408.01 154.35 408.55
  L 156.98 409.77
  Q 158.13 410.31 157.74 411.51
  Z"
/>
<ellipse fill="#bab4de" cx="0.00" cy="0.00" transform="translate(160.51,410.15) rotate(-0.1)" rx="1.85" ry="0.84"/>
<path fill="#bab4de" d="
  M 277.77 426.23
  Q 275.41 426.54 274.46 427.93
  Q 272.55 430.71 272.49 427.33
  Q 272.49 426.76 273.48 425.90
  C 274.80 424.74 276.54 424.42 277.72 423.14
  Q 279.12 421.61 279.46 423.66
  Q 279.85 425.95 277.77 426.23
  Z"
/>
<path fill="#2a6b95" d="
  M 243.68 423.88
  C 245.44 423.85 247.60 422.68 249.19 423.22
  A 0.93 0.93 0.0 0 1 249.47 424.84
  C 248.12 425.90 246.07 426.20 245.11 427.74
  Q 244.89 428.10 244.58 428.40
  Q 244.10 428.87 243.97 428.42
  A 0.36 0.36 0.0 0 0 243.48 428.19
  Q 241.22 429.19 239.21 428.02
  Q 238.73 427.75 238.19 427.78
  Q 235.05 427.93 232.98 426.97
  Q 230.66 425.90 233.13 425.25
  Q 237.95 423.99 243.68 423.88
  Z"
/>
<path fill="#bab4de" d="
  M 268.61 432.67
  Q 268.29 430.93 270.95 430.59
  Q 276.17 432.72 278.83 428.89
  C 279.44 428.02 279.70 427.83 280.60 427.45
  Q 281.12 427.23 281.16 427.79
  Q 281.29 429.74 279.71 431.20
  Q 274.68 435.82 268.61 432.67
  Z"
/>
<path fill="#bab4de" d="
  M 249.98 445.92
  Q 251.71 448.60 255.07 448.29
  Q 255.57 448.25 255.91 447.86
  C 257.18 446.39 257.45 445.42 257.32 443.29
  Q 257.16 440.79 259.06 439.68
  Q 260.27 438.98 259.98 440.35
  L 258.72 446.45
  A 0.59 0.58 71.1 0 1 258.60 446.70
  C 254.63 451.51 249.85 450.34 245.95 446.42
  Q 245.09 445.55 246.30 445.37
  L 248.14 445.09
  Q 249.33 444.91 249.98 445.92
  Z"
/>
<path fill="#90ebfd" d="
  M 254.74 441.12
  A 0.12 0.12 0.0 0 1 254.89 441.20
  L 254.90 441.23
  A 1.52 1.24 -19.3 0 1 253.88 442.91
  L 252.82 443.28
  A 1.52 1.24 -19.3 0 1 250.98 442.61
  L 250.97 442.57
  A 0.12 0.12 0.0 0 1 251.04 442.42
  L 254.74 441.12
  Z"
/>
</svg>
