<?xml version="1.0" encoding="UTF-8" standalone="no"?>
<!DOCTYPE svg PUBLIC "-//W3C//DTD SVG 1.1//EN" "http://www.w3.org/Graphics/SVG/1.1/DTD/svg11.dtd">
<svg xmlns="http://www.w3.org/2000/svg" version="1.1" viewBox="0.00 0.00 563.00 511.00">
<g stroke-width="2.00" fill="none" stroke-linecap="butt">
<path stroke="#a1b7da" vector-effect="non-scaling-stroke" d="
  M 305.49 267.96
  Q 306.82 264.89 308.84 264.05
  C 327.02 256.47 339.21 242.61 340.64 222.39
  A 1.41 1.37 -22.1 0 1 341.02 221.52
  C 346.74 215.40 342.48 207.04 338.75 201.33
  Q 337.98 200.14 338.49 199.26
  A 1.18 1.18 0.0 0 0 338.22 197.74
  Q 331.75 192.45 329.27 184.88
  C 325.35 172.86 321.30 157.56 310.89 148.93
  C 308.21 146.71 304.08 145.32 300.72 143.18
  A 1.08 1.08 0.0 0 1 301.09 141.21
  C 307.83 139.89 314.81 139.67 321.62 138.75
  C 329.84 137.65 342.43 136.36 352.71 134.53
  Q 357.13 133.74 362.56 131.69
  C 372.90 127.79 383.21 125.45 392.73 119.55
  C 398.75 115.81 404.17 109.97 409.52 104.78
  Q 422.18 92.53 430.47 77.00
  C 434.38 69.66 433.80 57.26 423.00 56.28
  C 413.24 55.39 399.81 55.44 389.06 57.95
  C 386.90 58.45 384.54 58.35 382.75 58.72
  Q 368.78 61.60 365.03 63.01
  C 356.99 66.05 348.85 69.56 340.53 71.71
  A 0.92 0.92 0.0 0 1 339.38 70.80
  Q 339.40 69.69 340.17 68.31
  C 342.39 64.31 352.20 47.11 341.85 46.10
  Q 328.33 44.79 314.75 45.19
  C 287.08 46.01 261.22 60.15 239.92 77.79
  Q 233.70 82.94 228.77 88.90
  C 221.40 97.82 213.98 106.99 213.37 119.07
  C 213.24 121.57 212.51 122.78 210.15 123.91
  C 193.94 131.68 178.88 148.39 170.31 163.39
  Q 157.82 185.27 157.39 210.42
  C 157.34 213.29 158.01 216.42 158.26 219.48
  Q 158.31 220.04 157.94 220.48
  L 157.14 221.42
  A 0.80 0.80 0.0 0 0 157.08 222.39
  C 158.93 225.13 160.18 225.83 159.96 229.50
  Q 159.93 230.03 160.28 230.44
  Q 163.07 233.74 164.52 237.85
  A 1.81 1.80 64.1 0 1 163.79 239.98
  C 161.02 241.75 159.28 243.58 158.09 246.85
  C 157.28 249.08 156.44 253.62 153.89 254.39
  Q 150.80 255.33 148.92 256.36
  Q 148.83 256.41 148.83 256.52
  Q 148.82 256.68 148.82 256.84
  A 0.08 0.07 -8.7 0 0 148.92 256.91
  C 151.31 256.10 155.36 254.69 156.58 257.99
  C 157.28 259.89 159.37 264.02 157.55 265.79
  Q 154.19 269.06 152.39 271.65
  A 0.63 0.63 0.0 0 0 152.70 272.60
  L 153.07 272.72
  A 0.45 0.45 0.0 0 0 153.55 272.60
  Q 156.35 269.66 159.68 266.95
  C 161.75 265.28 166.55 268.59 168.08 270.09
  Q 173.68 275.59 180.50 277.93
  Q 195.03 282.93 201.70 285.36
  C 205.73 286.83 208.99 288.75 212.22 291.27
  C 214.27 292.87 212.85 295.60 211.38 297.14
  C 205.39 303.43 192.93 311.72 183.74 310.23
  C 175.79 308.93 168.06 302.99 161.22 298.53
  C 156.76 295.62 148.51 294.44 143.26 296.12
  C 139.63 297.28 135.61 301.29 133.83 303.80
  C 128.14 311.85 130.11 318.78 135.99 325.57
  C 150.24 342.03 177.71 350.06 199.50 349.31
  Q 202.91 349.19 203.10 352.49
  Q 203.67 362.30 207.64 370.69
  C 208.43 372.36 208.50 373.47 207.38 374.88
  C 201.60 382.13 198.52 385.92 200.06 395.83
  C 200.42 398.18 202.43 403.30 198.72 404.11
  C 187.93 406.48 175.99 415.34 178.94 427.86
  C 179.64 430.83 177.81 434.81 179.40 437.07
  Q 184.63 444.51 193.18 449.64
  Q 196.01 451.34 198.63 453.35
  C 201.31 455.39 205.79 454.90 208.94 454.66
  Q 212.99 454.34 215.82 450.27
  C 217.58 447.75 218.37 440.54 223.45 443.28
  C 226.41 444.88 225.82 450.04 229.16 451.37
  Q 233.45 453.07 237.31 455.52
  Q 241.90 458.43 243.48 458.90
  C 254.26 462.12 260.89 451.91 258.75 442.41
  A 1.26 1.26 0.0 0 1 259.01 441.32
  Q 267.61 430.94 261.92 418.40
  A 2.84 2.84 0.0 0 1 262.56 415.17
  L 266.22 411.71
  Q 267.68 410.34 268.37 412.21
  C 272.71 423.92 274.99 438.07 291.34 440.65
  C 295.11 441.25 298.41 442.92 302.02 444.07
  A 2.04 2.04 0.0 0 1 303.43 446.26
  C 302.71 452.17 302.23 459.30 305.86 464.49
  C 308.80 468.68 313.00 468.82 317.60 469.42
  C 321.26 469.89 324.26 471.79 327.05 472.65
  Q 330.73 473.78 336.75 474.24
  C 342.31 474.66 345.48 472.04 347.66 467.37
  C 349.82 462.77 348.19 459.48 345.90 455.36
  A 1.56 1.55 57.4 0 1 346.34 453.34
  C 349.35 451.14 353.14 452.26 356.50 452.51
  C 363.40 453.04 369.57 446.97 367.84 439.90
  C 367.20 437.27 365.29 435.13 363.37 433.23
  A 3.08 3.07 -66.9 0 1 362.46 430.95
  C 362.60 426.19 362.99 421.71 360.48 416.95
  C 359.92 415.88 359.66 414.46 360.27 413.52
  Q 364.63 406.94 368.59 400.12
  C 370.49 396.86 371.46 393.26 372.66 389.68
  A 1.87 1.86 -76.4 0 1 374.70 388.43
  C 383.81 389.80 387.92 387.15 392.14 379.50
  C 393.24 377.50 394.99 376.69 396.84 375.54
  Q 402.31 372.12 402.27 366.11
  C 402.25 363.60 400.76 360.60 399.93 358.01
  C 399.46 356.52 400.44 352.60 400.25 350.66
  C 399.65 344.70 395.49 339.78 389.25 339.42
  C 384.24 339.14 381.70 334.88 376.79 334.58
  C 371.33 334.23 367.46 337.19 363.82 340.85
  Q 362.38 342.29 360.64 341.23
  Q 354.84 337.70 348.97 334.70
  C 337.71 328.95 323.06 325.64 315.70 314.25
  A 1.40 1.40 0.0 0 1 316.14 312.30
  Q 318.04 311.12 320.51 310.78
  Q 330.51 309.38 340.57 309.92
  C 348.29 310.34 354.02 312.39 361.04 315.46
  C 364.84 317.13 371.54 317.88 375.35 315.49
  C 377.86 313.92 379.27 310.05 380.80 307.54
  C 383.23 303.58 385.09 294.02 382.24 290.01
  C 367.52 269.28 345.12 268.73 321.72 268.30
  C 318.00 268.23 314.61 269.10 311.00 269.80
  Q 307.97 270.38 305.67 268.67
  Q 305.30 268.39 305.49 267.96"
/>
<path stroke="#77aed4" vector-effect="non-scaling-stroke" d="
  M 267.50 126.52
  Q 270.87 119.81 276.77 113.77
  Q 296.00 94.05 320.54 81.52
  C 323.47 80.03 328.85 77.92 330.81 75.35
  C 335.28 69.48 343.96 57.85 343.30 50.28
  Q 343.26 49.79 342.78 49.66
  Q 338.99 48.60 334.25 48.53
  C 321.78 48.32 308.86 48.27 297.45 50.86
  C 287.93 53.02 277.92 56.53 269.57 61.68
  C 262.62 65.96 256.08 69.23 249.02 74.80
  Q 242.68 79.81 239.72 82.45
  Q 229.43 91.63 221.96 104.20
  C 219.34 108.60 216.61 113.28 216.17 118.01
  Q 216.01 119.77 215.63 121.51
  A 0.40 0.39 87.9 0 0 216.13 121.98
  Q 219.00 121.08 220.76 121.19
  Q 222.96 121.32 220.90 122.12
  Q 215.42 124.26 209.28 126.78
  Q 205.88 128.19 197.84 134.84
  Q 192.64 139.14 183.93 148.92
  C 176.83 156.90 173.52 163.65 169.11 172.05
  Q 165.93 178.12 164.47 183.39
  Q 161.28 194.92 160.41 206.89
  C 160.04 212.07 160.82 217.31 161.44 222.55
  A 1.29 1.28 5.3 0 0 162.33 223.62
  L 166.37 224.87
  A 1.10 1.09 -71.1 0 0 167.73 224.20
  C 168.96 220.78 169.25 218.48 172.34 215.88
  Q 176.94 212.01 181.96 214.98
  Q 189.87 219.66 191.58 228.61
  Q 191.69 229.16 192.21 228.94
  Q 202.78 224.45 211.96 228.85
  Q 216.03 230.80 211.55 230.27
  C 205.79 229.58 197.76 227.95 192.15 231.56
  C 185.22 236.01 180.78 242.04 182.65 250.94
  C 183.58 255.41 188.15 257.01 192.25 256.96
  C 196.04 256.90 197.37 254.24 199.64 251.87
  A 2.12 2.11 -45.7 0 1 202.67 251.83
  C 205.36 254.49 210.78 254.44 214.42 254.35
  C 219.44 254.21 223.42 252.76 226.58 249.04
  A 1.12 1.12 0.0 0 0 226.38 247.41
  Q 222.49 244.58 220.28 240.28
  Q 218.99 237.75 221.10 239.71
  Q 221.40 239.98 222.50 241.25
  C 227.15 246.63 237.46 248.71 244.64 248.11
  A 0.30 0.29 -21.4 0 1 244.91 248.22
  Q 245.40 248.79 244.35 249.10
  Q 238.14 250.89 231.74 249.48
  Q 231.23 249.36 230.81 249.68
  C 226.24 253.14 222.44 255.47 217.16 257.88
  C 215.83 258.49 214.59 261.55 213.17 262.59
  C 206.91 267.15 200.33 256.54 195.74 258.00
  C 191.47 259.35 184.34 259.66 181.61 255.23
  C 179.20 251.32 179.68 246.05 180.87 241.84
  A 0.80 0.80 0.0 0 0 180.28 240.84
  C 177.35 240.14 172.31 240.27 170.15 238.19
  C 168.73 236.83 168.75 234.42 168.20 232.60
  Q 167.86 231.50 166.73 231.71
  L 165.53 231.93
  Q 164.35 232.14 164.90 233.21
  C 166.11 235.56 169.33 239.87 165.87 241.90
  C 161.32 244.56 160.88 247.04 159.74 251.66
  C 159.07 254.34 163.25 254.69 164.81 255.19
  Q 166.99 255.89 164.72 256.19
  L 159.74 256.88
  A 0.54 0.53 -9.4 0 0 159.28 257.52
  L 160.05 261.41
  A 0.87 0.87 0.0 0 0 161.29 262.02
  Q 164.46 260.43 167.97 259.79
  Q 171.75 259.11 168.58 261.28
  L 167.02 262.35
  A 1.92 1.92 0.0 0 0 166.85 265.39
  C 169.33 267.55 171.62 270.17 174.39 271.81
  Q 178.93 274.50 183.20 275.86
  Q 194.80 279.54 203.24 282.67
  C 209.75 285.08 214.12 287.82 218.02 293.04
  Q 219.66 295.23 217.19 294.04
  Q 216.60 293.75 215.96 294.64
  Q 215.67 295.04 215.42 295.81
  Q 213.64 301.29 211.18 306.48
  C 207.19 314.88 205.28 321.87 203.72 330.45
  A 0.35 0.35 0.0 0 0 204.23 330.82
  Q 205.44 330.18 206.82 330.25
  Q 207.41 330.28 207.28 330.86
  C 206.99 332.18 206.41 333.36 206.21 334.59
  Q 204.47 345.73 206.38 356.78
  C 207.20 361.51 207.88 365.87 209.87 369.38
  Q 212.20 373.52 217.25 378.99
  Q 237.20 400.63 266.79 403.03
  Q 267.46 403.08 267.49 402.41
  C 267.83 393.78 274.99 382.52 281.49 377.05
  Q 281.70 376.87 281.89 377.07
  L 282.08 377.26
  A 0.57 0.57 0.0 0 1 282.11 378.03
  Q 275.25 386.08 271.91 396.12
  C 271.35 397.79 269.97 400.73 270.38 402.75
  C 272.84 414.86 273.93 428.65 285.79 435.75
  Q 287.52 436.79 288.18 435.23
  A 1.24 1.24 0.0 0 1 290.34 435.02
  C 292.92 438.75 298.00 440.42 302.26 441.15
  C 305.65 441.73 309.61 441.16 313.27 440.95
  Q 317.54 440.72 321.08 439.53
  C 326.63 437.66 332.48 436.04 336.84 431.65
  C 338.01 430.48 338.11 429.03 338.75 427.53
  Q 338.96 427.05 339.43 426.81
  Q 347.54 422.73 349.47 420.71
  C 355.66 414.27 358.76 410.00 363.23 402.58
  C 368.95 393.08 373.97 379.49 369.68 368.69
  A 1.36 1.35 -46.5 0 1 369.66 367.76
  Q 370.13 366.44 371.41 365.87
  Q 371.96 365.62 371.84 365.03
  Q 370.24 357.09 364.13 351.94
  C 361.66 349.87 364.48 346.98 360.62 345.09
  Q 355.23 342.43 349.85 339.72
  C 336.61 333.05 319.99 329.94 312.48 316.17
  C 310.79 313.07 308.34 315.00 305.73 314.93
  Q 304.95 314.90 305.51 314.36
  Q 306.51 313.39 307.82 312.84
  C 314.54 310.00 321.43 307.68 328.61 307.05
  C 341.77 305.90 352.10 308.60 364.99 313.54
  Q 366.67 314.18 370.17 313.78
  Q 372.86 313.47 374.01 311.81
  C 376.80 307.81 373.59 304.56 371.82 301.19
  Q 370.89 299.42 372.62 300.41
  Q 375.13 301.86 377.35 303.71
  A 0.76 0.75 18.6 0 0 378.59 303.10
  C 378.42 299.25 375.25 296.38 372.34 294.23
  A 0.41 0.41 0.0 0 1 372.28 293.63
  L 372.45 293.44
  A 0.94 0.92 37.9 0 1 373.64 293.30
  L 379.29 296.96
  A 0.71 0.71 0.0 0 0 380.37 296.52
  C 381.34 292.39 377.89 288.80 374.63 285.63
  Q 365.48 276.75 352.99 273.99
  Q 341.08 271.36 336.75 271.16
  Q 314.77 270.12 293.02 273.34
  Q 286.91 274.25 281.18 276.54
  Q 278.93 277.44 277.19 277.55
  Q 275.21 277.67 276.77 276.44
  C 281.18 272.98 285.43 271.02 291.39 268.83
  Q 296.99 266.78 307.24 262.75
  Q 325.67 255.50 334.11 238.39
  C 337.64 231.23 337.99 224.74 337.51 216.67
  Q 337.48 216.09 338.05 216.00
  Q 339.18 215.85 340.16 216.40
  A 0.79 0.79 0.0 0 0 341.33 215.78
  Q 342.06 208.13 336.43 203.32
  Q 334.99 202.08 333.78 198.25
  C 332.47 194.09 328.56 191.21 327.33 187.20
  C 322.23 170.65 317.04 151.21 300.05 144.36
  C 297.90 143.49 294.82 141.02 291.63 141.57
  Q 289.64 141.90 291.36 140.86
  C 297.23 137.31 304.71 138.34 311.49 137.49
  Q 331.12 135.02 350.73 132.46
  Q 356.60 131.69 362.13 129.65
  C 370.03 126.73 378.94 123.81 385.77 120.34
  C 394.79 115.75 401.21 108.52 408.56 102.32
  Q 415.36 96.59 422.32 86.77
  C 426.75 80.53 435.66 63.21 422.83 59.87
  C 416.15 58.12 408.73 59.30 402.01 59.81
  Q 382.56 61.30 363.99 67.25
  Q 359.01 68.85 341.14 75.52
  C 336.33 77.31 331.80 80.02 327.01 82.25
  C 309.19 90.55 292.82 102.46 278.39 115.76
  C 274.90 118.97 271.57 123.19 268.01 126.88
  Q 266.56 128.37 267.50 126.52"
/>
<path stroke="#a1b7da" vector-effect="non-scaling-stroke" d="
  M 181.97 230.12
  A 1.35 1.34 73.3 0 1 183.17 230.77
  L 184.77 233.45
  A 0.73 0.71 -28.6 0 0 185.72 233.72
  Q 188.21 232.43 189.97 230.25
  A 1.08 1.08 0.0 0 0 190.16 229.22
  C 188.91 225.55 184.67 218.86 180.13 218.04
  Q 179.42 217.92 179.80 218.52
  C 181.94 221.91 185.39 225.70 180.50 228.81
  Q 180.41 228.87 180.12 229.36
  Q 180.00 229.58 180.11 229.87
  Q 180.25 230.19 180.60 230.18
  L 181.97 230.12"
/>
<path stroke="#9fb0a4" vector-effect="non-scaling-stroke" d="
  M 175.66 225.63
  L 171.05 226.79
  A 1.95 1.95 0.0 0 0 169.63 229.16
  L 169.67 229.31
  A 6.63 4.25 75.9 0 0 175.41 234.71
  L 175.56 234.67
  A 6.63 4.25 75.9 0 0 178.07 227.20
  L 178.03 227.05
  A 1.95 1.95 0.0 0 0 175.66 225.63"
/>
<path stroke="#68a6d2" vector-effect="non-scaling-stroke" d="
  M 167.8719 228.0840
  A 0.87 0.87 0.0 0 0 167.1297 227.1027
  L 163.9799 226.6656
  A 0.87 0.87 0.0 0 0 162.9986 227.4078
  L 162.8281 228.6360
  A 0.87 0.87 0.0 0 0 163.5703 229.6173
  L 166.7201 230.0544
  A 0.87 0.87 0.0 0 0 167.7014 229.3122
  L 167.8719 228.0840"
/>
<path stroke="#9484d6" vector-effect="non-scaling-stroke" d="
  M 200.01 255.41
  L 199.92 255.66
  A 0.67 0.66 -67.1 0 0 200.25 256.49
  C 203.04 257.86 208.31 261.36 211.01 261.24
  A 1.33 1.31 -71.3 0 0 211.95 260.77
  Q 212.75 259.80 212.88 258.55
  A 0.85 0.84 -85.4 0 0 212.09 257.62
  Q 206.11 257.27 200.52 255.18
  A 0.39 0.38 20.2 0 0 200.01 255.41"
/>
<path stroke="#77aed4" vector-effect="non-scaling-stroke" d="
  M 140.36 315.64
  L 135.17 311.93
  A 1.32 1.32 0.0 0 0 133.09 312.93
  Q 132.82 317.51 135.63 320.96
  C 143.57 330.72 152.92 336.69 165.40 341.04
  C 170.97 342.99 177.21 344.17 183.19 345.45
  C 189.73 346.85 195.37 347.00 201.75 346.63
  A 0.80 0.79 3.8 0 0 202.48 346.00
  Q 203.10 343.02 203.25 339.80
  C 203.34 337.82 201.33 336.69 200.97 334.81
  Q 200.62 333.03 200.92 330.88
  Q 202.90 316.81 209.29 303.83
  Q 210.75 300.85 208.30 303.09
  Q 202.18 308.71 192.72 311.76
  C 180.80 315.61 171.80 308.95 162.44 303.05
  C 154.35 297.96 149.38 295.93 140.69 299.53
  A 1.44 1.43 -37.4 0 0 140.36 301.99
  L 145.39 305.89
  Q 148.00 307.91 144.73 307.44
  Q 141.44 306.96 139.42 304.04
  Q 138.13 302.19 136.78 303.99
  L 135.69 305.43
  Q 134.09 307.56 135.94 309.48
  Q 138.55 312.18 140.73 315.28
  Q 141.60 316.52 140.36 315.64"
/>
<path stroke="#77aed4" vector-effect="non-scaling-stroke" d="
  M 390.40 374.53
  Q 391.60 374.29 393.01 374.39
  C 398.44 374.76 400.43 368.98 399.60 364.62
  C 399.08 361.89 397.58 359.82 397.70 356.70
  C 397.89 351.43 398.16 346.44 393.28 343.27
  C 390.68 341.58 386.03 340.87 382.60 339.71
  Q 378.11 338.18 375.71 338.44
  C 372.92 338.73 366.65 340.97 366.81 344.74
  C 367.05 350.28 371.52 353.77 373.40 358.70
  Q 375.29 363.66 375.44 369.03
  C 375.49 370.83 374.07 371.73 374.06 373.69
  Q 374.04 378.81 374.53 383.62
  A 1.68 1.68 0.0 0 0 375.70 385.06
  C 381.99 387.05 390.87 383.55 389.67 375.57
  A 0.93 0.93 0.0 0 1 390.40 374.53"
/>
<path stroke="#77aed4" vector-effect="non-scaling-stroke" d="
  M 224.63 419.85
  C 233.84 422.64 246.83 424.23 255.29 418.62
  Q 256.76 417.64 255.00 417.46
  Q 254.11 417.37 253.39 416.76
  A 0.78 0.77 56.7 0 1 253.66 415.43
  Q 260.74 413.23 267.11 409.41
  Q 267.57 409.13 267.67 408.60
  C 267.98 406.86 266.90 405.85 265.17 405.60
  C 260.73 404.98 256.09 405.17 251.98 404.31
  Q 243.95 402.64 240.62 400.88
  C 236.34 398.62 231.54 396.44 227.86 393.87
  Q 218.11 387.05 211.20 377.13
  Q 210.45 376.05 209.44 376.90
  C 202.75 382.48 200.70 391.96 204.20 400.73
  C 205.08 402.94 206.11 409.35 209.83 407.22
  Q 211.60 406.22 212.32 408.11
  Q 215.78 417.17 224.63 419.85"
/>
<path stroke="#9fb0a4" vector-effect="non-scaling-stroke" d="
  M 204.99 414.47
  A 1.43 1.43 0.0 0 0 206.45 414.85
  L 209.24 414.00
  A 1.43 1.43 0.0 0 0 209.73 411.53
  L 202.74 405.79
  A 1.43 1.43 0.0 0 0 201.58 405.49
  L 199.84 405.81
  A 1.43 1.43 0.0 0 0 199.07 408.20
  L 204.99 414.47"
/>
<path stroke="#9fb0a4" vector-effect="non-scaling-stroke" d="
  M 194.93 415.42
  A 2.43 2.43 0.0 0 0 196.81 416.50
  L 199.67 416.68
  A 2.43 2.43 0.0 0 0 201.69 412.71
  L 198.09 408.36
  A 2.43 2.43 0.0 0 0 195.22 407.70
  L 193.67 408.40
  A 2.43 2.43 0.0 0 0 192.64 411.95
  L 194.93 415.42"
/>
<path stroke="#55a194" vector-effect="non-scaling-stroke" d="
  M 183.84 415.97
  Q 179.26 420.44 181.01 426.58
  Q 181.66 428.84 183.79 430.40
  Q 186.26 432.20 188.50 433.10
  C 199.00 437.32 210.77 440.32 222.39 441.07
  C 227.76 441.41 233.27 441.87 238.53 441.38
  Q 248.33 440.48 257.96 438.37
  C 261.28 437.64 261.37 434.23 261.42 431.56
  A 0.20 0.20 0.0 0 0 261.20 431.36
  L 256.82 431.67
  Q 256.31 431.71 256.50 431.23
  L 256.77 430.54"
/>
<path stroke="#9fb0a4" vector-effect="non-scaling-stroke" d="
  M 256.77 430.54
  L 260.25 429.34
  A 1.86 1.84 84.4 0 0 261.48 427.83
  Q 261.92 424.43 261.07 421.22
  Q 260.28 418.19 258.05 420.40
  C 254.36 424.05 245.22 425.54 240.25 425.34
  C 230.89 424.97 223.11 423.88 216.09 417.63
  Q 214.45 416.18 211.59 415.23
  A 1.49 1.43 42.6 0 0 210.65 415.25
  Q 205.60 417.13 200.26 417.76
  C 195.35 418.35 192.86 415.06 191.07 411.42
  A 1.18 1.18 0.0 0 0 189.57 410.85
  Q 185.86 412.34 183.84 415.97"
/>
<path stroke="#b1e282" vector-effect="non-scaling-stroke" d="
  M 256.77 430.54
  Q 249.17 431.78 241.61 433.23
  C 232.22 435.03 222.89 435.09 213.62 433.08
  C 206.49 431.53 200.38 430.41 193.37 426.46
  C 188.20 423.54 184.35 421.66 183.84 415.97"
/>
<path stroke="#55a194" vector-effect="non-scaling-stroke" d="
  M 311.19 460.13
  Q 311.48 460.39 311.35 461.31
  Q 311.27 461.86 310.72 461.88
  Q 309.29 461.93 308.12 461.10
  A 0.40 0.40 0.0 0 0 307.49 461.47
  C 308.16 467.22 315.58 467.04 321.00 467.53
  C 325.46 467.95 328.83 465.15 332.36 462.71
  C 339.34 457.86 345.68 451.61 349.68 446.40
  C 353.27 441.74 359.68 435.94 360.12 428.87
  Q 360.33 425.47 359.30 422.11
  Q 359.22 421.86 359.00 421.99
  Q 358.87 422.06 358.71 422.14
  A 0.20 0.19 76.7 0 1 358.43 421.96
  L 358.36 420.00
  Q 358.35 419.87 358.31 419.96
  Q 358.29 420.01 358.28 420.07
  Q 358.25 420.37 358.23 420.41
  Q 358.18 420.49 358.12 420.57"
/>
<path stroke="#9fb0a4" vector-effect="non-scaling-stroke" d="
  M 358.12 420.57
  Q 358.34 418.31 357.01 417.99
  A 0.89 0.87 -58.4 0 0 356.24 418.18
  Q 350.40 423.13 344.26 427.25
  C 342.11 428.69 339.70 432.59 337.31 434.65
  C 335.52 436.20 333.65 437.57 332.23 439.45
  C 330.32 441.99 328.49 446.15 325.65 447.42
  C 322.46 448.84 314.30 449.58 312.90 444.72
  A 0.86 0.82 87.9 0 0 312.29 444.13
  C 310.65 443.74 307.74 443.55 306.70 445.16
  C 303.18 450.60 307.02 456.40 311.19 460.13"
/>
<path stroke="#b1e282" vector-effect="non-scaling-stroke" d="
  M 358.12 420.57
  C 355.91 428.39 352.21 434.42 347.50 440.73
  C 344.13 445.24 338.86 449.15 335.56 452.31
  Q 324.84 462.57 311.19 460.13"
/>
<path stroke="#9484d6" vector-effect="non-scaling-stroke" d="
  M 186.33 434.56
  Q 184.55 432.86 182.34 431.81
  A 1.11 1.11 0.0 0 0 180.78 432.59
  C 179.98 436.44 182.57 438.10 185.05 440.25
  Q 186.15 441.21 187.52 443.19
  Q 189.62 446.21 193.43 447.18
  Q 194.22 447.38 195.00 447.68
  Q 195.69 447.95 196.27 448.63
  Q 203.11 456.46 212.18 451.18
  Q 216.68 448.56 215.35 442.54
  A 0.79 0.79 0.0 0 0 214.76 441.95
  Q 213.39 441.65 212.01 441.89
  Q 211.54 441.98 211.07 441.85
  Q 204.05 439.89 197.06 437.85
  C 194.36 437.06 190.98 435.05 187.17 434.92
  Q 186.68 434.90 186.33 434.56"
/>
<path stroke="#9484d6" vector-effect="non-scaling-stroke" d="
  M 361.66 439.87
  Q 362.55 440.35 362.90 441.50
  C 364.59 446.93 359.02 446.92 355.82 445.20
  Q 353.94 444.19 352.51 445.79
  L 352.20 446.13
  Q 350.74 447.77 352.70 448.75
  Q 357.35 451.09 361.77 449.40
  C 367.98 447.02 367.55 438.63 362.51 435.00
  Q 361.26 434.10 360.49 435.43
  L 356.39 442.48
  A 0.71 0.70 -56.2 0 0 356.56 443.38
  Q 357.78 444.35 359.36 444.38
  Q 361.13 444.42 361.12 442.65
  L 361.12 440.20
  Q 361.11 439.57 361.66 439.87"
/>
<path stroke="#9fb0a4" vector-effect="non-scaling-stroke" d="
  M 328.62 440.22
  L 314.06 443.77
  A 0.10 0.10 0.0 0 0 313.99 443.89
  L 314.00 443.92
  A 7.41 5.01 -13.7 0 0 322.38 447.03
  L 322.73 446.94
  A 7.41 5.01 -13.7 0 0 328.75 440.32
  L 328.74 440.29
  A 0.10 0.10 0.0 0 0 328.62 440.22"
/>
<path stroke="#9484d6" vector-effect="non-scaling-stroke" d="
  M 241.14 446.40
  Q 241.13 445.22 241.81 446.18
  Q 244.28 449.69 248.46 448.20
  Q 248.93 448.03 249.11 447.56
  Q 249.86 445.64 249.57 443.56
  Q 249.45 442.69 248.56 442.69
  Q 244.77 442.72 241.23 444.06
  Q 240.85 444.21 240.45 444.13
  Q 238.61 443.77 236.78 444.04
  Q 235.64 444.22 235.56 445.37
  Q 235.41 447.49 236.53 449.67
  Q 241.01 458.38 250.88 456.27
  C 257.99 454.75 259.49 440.57 253.16 441.92
  A 1.47 1.46 85.9 0 0 252.01 443.26
  C 251.85 445.99 251.22 449.40 248.15 450.16
  C 245.77 450.74 241.16 449.23 241.14 446.40"
/>
<path stroke="#9484d6" vector-effect="non-scaling-stroke" d="
  M 233.27 450.82
  A 0.91 0.91 0.0 0 0 234.46 449.83
  L 233.77 444.93
  A 0.91 0.91 0.0 0 0 233.01 444.16
  L 227.50 443.33
  A 0.91 0.91 0.0 0 0 226.51 444.55
  L 228.10 448.75
  A 0.91 0.91 0.0 0 0 228.66 449.30
  L 233.27 450.82"
/>
<path stroke="#9484d6" vector-effect="non-scaling-stroke" d="
  M 330.48 468.76
  C 334.37 472.36 338.87 474.62 343.34 470.09
  C 345.30 468.11 347.65 460.48 344.04 458.21
  A 1.08 1.08 0.0 0 0 342.39 459.16
  C 342.48 461.77 343.07 466.22 339.25 466.68
  C 337.81 466.85 336.61 465.72 335.41 464.98
  Q 334.98 464.72 334.48 464.76
  Q 331.31 465.02 329.66 467.54
  Q 329.38 467.96 328.88 467.94
  Q 326.90 467.88 325.19 468.88
  Q 324.52 469.27 325.17 469.69
  Q 327.18 471.02 329.68 470.88
  A 0.54 0.54 0.0 0 0 330.08 470.02
  Q 329.76 469.58 329.78 469.06
  A 0.42 0.42 0.0 0 1 330.48 468.76"
/>
<path stroke="#9484d6" vector-effect="non-scaling-stroke" d="
  M 339.65 460.66
  L 335.86 462.71
  A 0.24 0.24 0.0 0 0 335.77 463.03
  L 335.83 463.15
  A 3.23 2.33 61.6 0 0 339.41 464.88
  L 339.52 464.82
  A 3.23 2.33 61.6 0 0 340.03 460.88
  L 339.97 460.76
  A 0.24 0.24 0.0 0 0 339.65 460.66"
/>
<path stroke="#9de4f1" vector-effect="non-scaling-stroke" d="
  M 300.89 129.01
  C 303.29 130.04 307.70 128.96 309.87 128.89
  C 310.45 128.87 311.61 128.04 312.43 127.90
  C 325.32 125.61 338.08 124.30 351.16 121.42
  Q 357.56 120.01 364.46 117.51
  C 369.97 115.50 375.93 113.85 380.99 110.86
  Q 383.12 109.60 386.24 107.99
  C 391.71 105.16 396.81 100.13 401.37 94.79
  C 403.39 92.41 407.35 86.77 410.79 83.09
  Q 413.19 80.53 413.87 78.74
  Q 414.81 76.23 414.78 73.34"
/>
<path stroke="#77aed4" vector-effect="non-scaling-stroke" d="
  M 414.78 73.34
  Q 415.90 72.97 416.25 72.50
  Q 417.15 71.26 415.78 70.35
  Q 415.28 70.02 414.69 69.95
  C 403.27 68.47 392.33 71.76 381.95 76.16
  C 377.14 78.19 372.29 79.97 367.73 82.49
  C 358.95 87.34 350.39 91.38 342.49 97.73
  C 333.31 105.11 324.49 112.98 314.10 118.60
  Q 303.81 124.16 286.42 132.03
  Q 286.29 132.09 286.28 132.24
  Q 286.28 132.38 286.26 132.54
  Q 286.23 132.88 286.57 132.85
  Q 294.17 132.33 300.89 129.01"
/>
<path stroke="#68a6d2" vector-effect="non-scaling-stroke" d="
  M 414.78 73.34
  Q 402.70 72.72 390.64 76.92
  C 377.08 81.64 368.50 86.28 357.54 92.07
  C 346.67 97.81 336.57 107.64 326.60 114.56
  C 316.91 121.29 309.81 124.45 300.89 129.01"
/>
<path stroke="#77aed4" vector-effect="non-scaling-stroke" d="
  M 225.01 186.99
  C 228.04 183.02 233.88 180.07 238.98 181.56
  Q 241.24 182.23 239.90 180.29
  Q 239.59 179.84 238.12 179.43
  C 231.82 177.66 224.96 179.03 224.53 186.82
  Q 224.48 187.69 225.01 186.99"
/>
<path stroke="#77aed4" vector-effect="non-scaling-stroke" d="
  M 180.05 191.41
  A 0.58 0.58 0.0 0 0 180.67 190.62
  C 178.43 184.79 170.32 190.30 168.59 193.73
  Q 167.86 195.17 169.24 194.32
  C 173.17 191.88 174.64 190.65 180.05 191.41"
/>
<path stroke="#77aed4" vector-effect="non-scaling-stroke" d="
  M 251.62 211.26
  C 250.82 210.48 250.97 209.47 251.74 208.64
  C 253.11 207.15 256.05 204.18 256.11 202.10
  Q 256.13 201.37 255.54 201.81
  L 249.77 206.20
  A 2.03 2.02 -33.1 0 1 246.77 205.57
  Q 244.56 201.58 239.50 201.85
  C 232.99 202.20 224.41 207.38 223.67 214.49
  Q 223.17 219.35 223.30 228.75
  Q 223.33 230.59 223.63 231.50
  Q 224.14 233.02 225.66 232.52
  Q 235.87 229.16 244.97 225.06
  C 247.03 224.13 251.92 221.15 253.06 219.25
  Q 253.33 218.81 253.18 218.31
  C 251.68 213.04 258.51 212.29 258.41 209.08
  Q 258.39 208.45 257.89 208.83
  Q 255.53 210.60 252.71 211.52
  A 1.09 1.08 58.1 0 1 251.62 211.26"
/>
<path stroke="#77aed4" vector-effect="non-scaling-stroke" d="
  M 281.27 216.22
  C 270.39 218.08 255.18 223.58 248.71 232.93
  A 0.54 0.54 0.0 0 0 249.22 233.78
  Q 250.02 233.69 250.83 233.07
  Q 262.96 223.91 277.21 218.69
  Q 279.76 217.75 281.48 216.81
  Q 283.12 215.91 281.27 216.22"
/>
<path stroke="#77aed4" vector-effect="non-scaling-stroke" d="
  M 290.31 230.11
  Q 273.53 228.24 260.09 234.30
  Q 256.63 235.86 254.18 238.81
  A 0.74 0.74 0.0 0 0 254.58 240.00
  Q 255.48 240.21 256.47 239.63
  C 265.13 234.44 275.81 232.49 285.74 231.78
  Q 288.58 231.58 290.39 231.10
  Q 292.95 230.41 290.31 230.11"
/>
<path stroke="#77aed4" vector-effect="non-scaling-stroke" d="
  M 207.04 235.96
  C 205.56 231.70 196.58 234.25 193.91 236.06
  C 186.22 241.28 198.59 247.74 202.71 245.19
  C 205.18 243.66 208.13 239.11 207.04 235.96"
/>
<path stroke="#77aed4" vector-effect="non-scaling-stroke" d="
  M 230.34 334.49
  C 231.85 334.83 233.32 335.42 234.74 335.52
  C 237.72 335.73 244.52 335.50 246.54 332.97
  A 0.85 0.84 -46.2 0 0 246.52 331.89
  Q 245.17 330.33 245.72 330.01
  Q 248.62 328.33 250.57 326.46
  Q 252.05 325.04 250.21 325.95
  C 248.45 326.82 243.43 329.15 241.21 328.69
  Q 238.36 328.10 239.62 330.92
  L 240.15 332.12
  Q 240.45 332.79 239.72 332.92
  Q 232.34 334.19 226.55 329.24
  Q 225.78 328.58 224.74 328.98
  Q 224.18 329.20 224.36 329.77
  L 225.13 332.23
  Q 225.66 333.94 223.99 333.30
  C 218.18 331.08 216.55 326.41 212.71 322.12
  Q 211.51 320.78 211.98 322.52
  Q 215.27 334.77 227.87 337.13
  Q 228.39 337.23 228.78 336.86
  Q 229.57 336.10 229.70 334.95
  Q 229.77 334.37 230.34 334.49"
/>
<path stroke="#a1b7da" vector-effect="non-scaling-stroke" d="
  M 250.78 217.51
  C 249.22 211.20 245.72 203.43 237.55 205.19
  A 0.92 0.92 0.0 0 0 237.18 206.82
  C 240.10 209.07 243.11 211.53 242.00 215.95
  Q 241.83 216.64 241.81 217.40
  Q 241.80 217.90 242.17 218.24
  L 246.02 221.78
  Q 246.83 222.53 247.79 221.96
  C 249.63 220.85 251.44 220.19 250.78 217.51"
/>
<path stroke="#9fb0a4" vector-effect="non-scaling-stroke" d="
  M 225.14 217.88
  C 225.56 221.64 227.97 223.43 230.90 225.38
  A 2.27 2.27 0.0 0 0 233.97 224.84
  C 236.06 222.01 239.95 215.44 234.20 213.58
  A 0.86 0.85 -58.9 0 0 233.33 213.80
  Q 230.70 216.60 226.91 215.51
  A 1.09 1.07 31.5 0 0 225.86 215.75
  Q 224.99 216.56 225.14 217.88"
/>
<path stroke="#9484d6" vector-effect="non-scaling-stroke" d="
  M 204.54 239.26
  A 2.16 2.16 0.0 0 0 202.16 236.35
  L 197.50 237.17
  A 2.16 2.16 0.0 0 0 196.77 237.44
  L 195.09 238.43
  A 2.16 2.16 0.0 0 0 195.46 242.32
  L 200.40 244.10
  A 2.16 2.16 0.0 0 0 203.14 242.85
  L 204.54 239.26"
/>
<path stroke="#77aed4" vector-effect="non-scaling-stroke" d="
  M 151.67 305.75
  Q 150.82 312.12 156.55 314.70
  Q 158.50 315.57 157.14 313.93
  Q 153.88 309.98 153.55 304.81
  Q 153.51 304.17 152.88 304.31
  Q 152.39 304.41 152.11 304.86
  Q 151.70 305.52 151.67 305.75"
/>
</g>
<path fill="none" d="
  M 0.00 0.00
  L 563.00 0.00
  L 563.00 511.00
  L 0.00 511.00
  L 0.00 0.00
  Z
  M 305.49 267.96
  Q 306.82 264.89 308.84 264.05
  C 327.02 256.47 339.21 242.61 340.64 222.39
  A 1.41 1.37 -22.1 0 1 341.02 221.52
  C 346.74 215.40 342.48 207.04 338.75 201.33
  Q 337.98 200.14 338.49 199.26
  A 1.18 1.18 0.0 0 0 338.22 197.74
  Q 331.75 192.45 329.27 184.88
  C 325.35 172.86 321.30 157.56 310.89 148.93
  C 308.21 146.71 304.08 145.32 300.72 143.18
  A 1.08 1.08 0.0 0 1 301.09 141.21
  C 307.83 139.89 314.81 139.67 321.62 138.75
  C 329.84 137.65 342.43 136.36 352.71 134.53
  Q 357.13 133.74 362.56 131.69
  C 372.90 127.79 383.21 125.45 392.73 119.55
  C 398.75 115.81 404.17 109.97 409.52 104.78
  Q 422.18 92.53 430.47 77.00
  C 434.38 69.66 433.80 57.26 423.00 56.28
  C 413.24 55.39 399.81 55.44 389.06 57.95
  C 386.90 58.45 384.54 58.35 382.75 58.72
  Q 368.78 61.60 365.03 63.01
  C 356.99 66.05 348.85 69.56 340.53 71.71
  A 0.92 0.92 0.0 0 1 339.38 70.80
  Q 339.40 69.69 340.17 68.31
  C 342.39 64.31 352.20 47.11 341.85 46.10
  Q 328.33 44.79 314.75 45.19
  C 287.08 46.01 261.22 60.15 239.92 77.79
  Q 233.70 82.94 228.77 88.90
  C 221.40 97.82 213.98 106.99 213.37 119.07
  C 213.24 121.57 212.51 122.78 210.15 123.91
  C 193.94 131.68 178.88 148.39 170.31 163.39
  Q 157.82 185.27 157.39 210.42
  C 157.34 213.29 158.01 216.42 158.26 219.48
  Q 158.31 220.04 157.94 220.48
  L 157.14 221.42
  A 0.80 0.80 0.0 0 0 157.08 222.39
  C 158.93 225.13 160.18 225.83 159.96 229.50
  Q 159.93 230.03 160.28 230.44
  Q 163.07 233.74 164.52 237.85
  A 1.81 1.80 64.1 0 1 163.79 239.98
  C 161.02 241.75 159.28 243.58 158.09 246.85
  C 157.28 249.08 156.44 253.62 153.89 254.39
  Q 150.80 255.33 148.92 256.36
  Q 148.83 256.41 148.83 256.52
  Q 148.82 256.68 148.82 256.84
  A 0.08 0.07 -8.7 0 0 148.92 256.91
  C 151.31 256.10 155.36 254.69 156.58 257.99
  C 157.28 259.89 159.37 264.02 157.55 265.79
  Q 154.19 269.06 152.39 271.65
  A 0.63 0.63 0.0 0 0 152.70 272.60
  L 153.07 272.72
  A 0.45 0.45 0.0 0 0 153.55 272.60
  Q 156.35 269.66 159.68 266.95
  C 161.75 265.28 166.55 268.59 168.08 270.09
  Q 173.68 275.59 180.50 277.93
  Q 195.03 282.93 201.70 285.36
  C 205.73 286.83 208.99 288.75 212.22 291.27
  C 214.27 292.87 212.85 295.60 211.38 297.14
  C 205.39 303.43 192.93 311.72 183.74 310.23
  C 175.79 308.93 168.06 302.99 161.22 298.53
  C 156.76 295.62 148.51 294.44 143.26 296.12
  C 139.63 297.28 135.61 301.29 133.83 303.80
  C 128.14 311.85 130.11 318.78 135.99 325.57
  C 150.24 342.03 177.71 350.06 199.50 349.31
  Q 202.91 349.19 203.10 352.49
  Q 203.67 362.30 207.64 370.69
  C 208.43 372.36 208.50 373.47 207.38 374.88
  C 201.60 382.13 198.52 385.92 200.06 395.83
  C 200.42 398.18 202.43 403.30 198.72 404.11
  C 187.93 406.48 175.99 415.34 178.94 427.86
  C 179.64 430.83 177.81 434.81 179.40 437.07
  Q 184.63 444.51 193.18 449.64
  Q 196.01 451.34 198.63 453.35
  C 201.31 455.39 205.79 454.90 208.94 454.66
  Q 212.99 454.34 215.82 450.27
  C 217.58 447.75 218.37 440.54 223.45 443.28
  C 226.41 444.88 225.82 450.04 229.16 451.37
  Q 233.45 453.07 237.31 455.52
  Q 241.90 458.43 243.48 458.90
  C 254.26 462.12 260.89 451.91 258.75 442.41
  A 1.26 1.26 0.0 0 1 259.01 441.32
  Q 267.61 430.94 261.92 418.40
  A 2.84 2.84 0.0 0 1 262.56 415.17
  L 266.22 411.71
  Q 267.68 410.34 268.37 412.21
  C 272.71 423.92 274.99 438.07 291.34 440.65
  C 295.11 441.25 298.41 442.92 302.02 444.07
  A 2.04 2.04 0.0 0 1 303.43 446.26
  C 302.71 452.17 302.23 459.30 305.86 464.49
  C 308.80 468.68 313.00 468.82 317.60 469.42
  C 321.26 469.89 324.26 471.79 327.05 472.65
  Q 330.73 473.78 336.75 474.24
  C 342.31 474.66 345.48 472.04 347.66 467.37
  C 349.82 462.77 348.19 459.48 345.90 455.36
  A 1.56 1.55 57.4 0 1 346.34 453.34
  C 349.35 451.14 353.14 452.26 356.50 452.51
  C 363.40 453.04 369.57 446.97 367.84 439.90
  C 367.20 437.27 365.29 435.13 363.37 433.23
  A 3.08 3.07 -66.9 0 1 362.46 430.95
  C 362.60 426.19 362.99 421.71 360.48 416.95
  C 359.92 415.88 359.66 414.46 360.27 413.52
  Q 364.63 406.94 368.59 400.12
  C 370.49 396.86 371.46 393.26 372.66 389.68
  A 1.87 1.86 -76.4 0 1 374.70 388.43
  C 383.81 389.80 387.92 387.15 392.14 379.50
  C 393.24 377.50 394.99 376.69 396.84 375.54
  Q 402.31 372.12 402.27 366.11
  C 402.25 363.60 400.76 360.60 399.93 358.01
  C 399.46 356.52 400.44 352.60 400.25 350.66
  C 399.65 344.70 395.49 339.78 389.25 339.42
  C 384.24 339.14 381.70 334.88 376.79 334.58
  C 371.33 334.23 367.46 337.19 363.82 340.85
  Q 362.38 342.29 360.64 341.23
  Q 354.84 337.70 348.97 334.70
  C 337.71 328.95 323.06 325.64 315.70 314.25
  A 1.40 1.40 0.0 0 1 316.14 312.30
  Q 318.04 311.12 320.51 310.78
  Q 330.51 309.38 340.57 309.92
  C 348.29 310.34 354.02 312.39 361.04 315.46
  C 364.84 317.13 371.54 317.88 375.35 315.49
  C 377.86 313.92 379.27 310.05 380.80 307.54
  C 383.23 303.58 385.09 294.02 382.24 290.01
  C 367.52 269.28 345.12 268.73 321.72 268.30
  C 318.00 268.23 314.61 269.10 311.00 269.80
  Q 307.97 270.38 305.67 268.67
  Q 305.30 268.39 305.49 267.96
  Z"
/>
<path fill="#426fb5" d="
  M 305.67 268.67
  Q 307.97 270.38 311.00 269.80
  C 314.61 269.10 318.00 268.23 321.72 268.30
  C 345.12 268.73 367.52 269.28 382.24 290.01
  C 385.09 294.02 383.23 303.58 380.80 307.54
  C 379.27 310.05 377.86 313.92 375.35 315.49
  C 371.54 317.88 364.84 317.13 361.04 315.46
  C 354.02 312.39 348.29 310.34 340.57 309.92
  Q 330.51 309.38 320.51 310.78
  Q 318.04 311.12 316.14 312.30
  A 1.40 1.40 0.0 0 0 315.70 314.25
  C 323.06 325.64 337.71 328.95 348.97 334.70
  Q 354.84 337.70 360.64 341.23
  Q 362.38 342.29 363.82 340.85
  C 367.46 337.19 371.33 334.23 376.79 334.58
  C 381.70 334.88 384.24 339.14 389.25 339.42
  C 395.49 339.78 399.65 344.70 400.25 350.66
  C 400.44 352.60 399.46 356.52 399.93 358.01
  C 400.76 360.60 402.25 363.60 402.27 366.11
  Q 402.31 372.12 396.84 375.54
  C 394.99 376.69 393.24 377.50 392.14 379.50
  C 387.92 387.15 383.81 389.80 374.70 388.43
  A 1.87 1.86 -76.4 0 0 372.66 389.68
  C 371.46 393.26 370.49 396.86 368.59 400.12
  Q 364.63 406.94 360.27 413.52
  C 359.66 414.46 359.92 415.88 360.48 416.95
  C 362.99 421.71 362.60 426.19 362.46 430.95
  A 3.08 3.07 -66.9 0 0 363.37 433.23
  C 365.29 435.13 367.20 437.27 367.84 439.90
  C 369.57 446.97 363.40 453.04 356.50 452.51
  C 353.14 452.26 349.35 451.14 346.34 453.34
  A 1.56 1.55 57.4 0 0 345.90 455.36
  C 348.19 459.48 349.82 462.77 347.66 467.37
  C 345.48 472.04 342.31 474.66 336.75 474.24
  Q 330.73 473.78 327.05 472.65
  C 324.26 471.79 321.26 469.89 317.60 469.42
  C 313.00 468.82 308.80 468.68 305.86 464.49
  C 302.23 459.30 302.71 452.17 303.43 446.26
  A 2.04 2.04 0.0 0 0 302.02 444.07
  C 298.41 442.92 295.11 441.25 291.34 440.65
  C 274.99 438.07 272.71 423.92 268.37 412.21
  Q 267.68 410.34 266.22 411.71
  L 262.56 415.17
  A 2.84 2.84 0.0 0 0 261.92 418.40
  Q 267.61 430.94 259.01 441.32
  A 1.26 1.26 0.0 0 0 258.75 442.41
  C 260.89 451.91 254.26 462.12 243.48 458.90
  Q 241.90 458.43 237.31 455.52
  Q 233.45 453.07 229.16 451.37
  C 225.82 450.04 226.41 444.88 223.45 443.28
  C 218.37 440.54 217.58 447.75 215.82 450.27
  Q 212.99 454.34 208.94 454.66
  C 205.79 454.90 201.31 455.39 198.63 453.35
  Q 196.01 451.34 193.18 449.64
  Q 184.63 444.51 179.40 437.07
  C 177.81 434.81 179.64 430.83 178.94 427.86
  C 175.99 415.34 187.93 406.48 198.72 404.11
  C 202.43 403.30 200.42 398.18 200.06 395.83
  C 198.52 385.92 201.60 382.13 207.38 374.88
  C 208.50 373.47 208.43 372.36 207.64 370.69
  Q 203.67 362.30 203.10 352.49
  Q 202.91 349.19 199.50 349.31
  C 177.71 350.06 150.24 342.03 135.99 325.57
  C 130.11 318.78 128.14 311.85 133.83 303.80
  C 135.61 301.29 139.63 297.28 143.26 296.12
  C 148.51 294.44 156.76 295.62 161.22 298.53
  C 168.06 302.99 175.79 308.93 183.74 310.23
  C 192.93 311.72 205.39 303.43 211.38 297.14
  C 212.85 295.60 214.27 292.87 212.22 291.27
  C 208.99 288.75 205.73 286.83 201.70 285.36
  Q 195.03 282.93 180.50 277.93
  Q 173.68 275.59 168.08 270.09
  C 166.55 268.59 161.75 265.28 159.68 266.95
  Q 156.35 269.66 153.55 272.60
  A 0.45 0.45 0.0 0 1 153.07 272.72
  L 152.70 272.60
  A 0.63 0.63 0.0 0 1 152.39 271.65
  Q 154.19 269.06 157.55 265.79
  C 159.37 264.02 157.28 259.89 156.58 257.99
  C 155.36 254.69 151.31 256.10 148.92 256.91
  A 0.08 0.07 -8.7 0 1 148.82 256.84
  Q 148.82 256.68 148.83 256.52
  Q 148.83 256.41 148.92 256.36
  Q 150.80 255.33 153.89 254.39
  C 156.44 253.62 157.28 249.08 158.09 246.85
  C 159.28 243.58 161.02 241.75 163.79 239.98
  A 1.81 1.80 64.1 0 0 164.52 237.85
  Q 163.07 233.74 160.28 230.44
  Q 159.93 230.03 159.96 229.50
  C 160.18 225.83 158.93 225.13 157.08 222.39
  A 0.80 0.80 0.0 0 1 157.14 221.42
  L 157.94 220.48
  Q 158.31 220.04 158.26 219.48
  C 158.01 216.42 157.34 213.29 157.39 210.42
  Q 157.82 185.27 170.31 163.39
  C 178.88 148.39 193.94 131.68 210.15 123.91
  C 212.51 122.78 213.24 121.57 213.37 119.07
  C 213.98 106.99 221.40 97.82 228.77 88.90
  Q 233.70 82.94 239.92 77.79
  C 261.22 60.15 287.08 46.01 314.75 45.19
  Q 328.33 44.79 341.85 46.10
  C 352.20 47.11 342.39 64.31 340.17 68.31
  Q 339.40 69.69 339.38 70.80
  A 0.92 0.92 0.0 0 0 340.53 71.71
  C 348.85 69.56 356.99 66.05 365.03 63.01
  Q 368.78 61.60 382.75 58.72
  C 384.54 58.35 386.90 58.45 389.06 57.95
  C 399.81 55.44 413.24 55.39 423.00 56.28
  C 433.80 57.26 434.38 69.66 430.47 77.00
  Q 422.18 92.53 409.52 104.78
  C 404.17 109.97 398.75 115.81 392.73 119.55
  C 383.21 125.45 372.90 127.79 362.56 131.69
  Q 357.13 133.74 352.71 134.53
  C 342.43 136.36 329.84 137.65 321.62 138.75
  C 314.81 139.67 307.83 139.89 301.09 141.21
  A 1.08 1.08 0.0 0 0 300.72 143.18
  C 304.08 145.32 308.21 146.71 310.89 148.93
  C 321.30 157.56 325.35 172.86 329.27 184.88
  Q 331.75 192.45 338.22 197.74
  A 1.18 1.18 0.0 0 1 338.49 199.26
  Q 337.98 200.14 338.75 201.33
  C 342.48 207.04 346.74 215.40 341.02 221.52
  A 1.41 1.37 -22.1 0 0 340.64 222.39
  C 339.21 242.61 327.02 256.47 308.84 264.05
  Q 306.82 264.89 305.49 267.96
  Q 305.30 268.39 305.67 268.67
  Z
  M 267.50 126.52
  Q 270.87 119.81 276.77 113.77
  Q 296.00 94.05 320.54 81.52
  C 323.47 80.03 328.85 77.92 330.81 75.35
  C 335.28 69.48 343.96 57.85 343.30 50.28
  Q 343.26 49.79 342.78 49.66
  Q 338.99 48.60 334.25 48.53
  C 321.78 48.32 308.86 48.27 297.45 50.86
  C 287.93 53.02 277.92 56.53 269.57 61.68
  C 262.62 65.96 256.08 69.23 249.02 74.80
  Q 242.68 79.81 239.72 82.45
  Q 229.43 91.63 221.96 104.20
  C 219.34 108.60 216.61 113.28 216.17 118.01
  Q 216.01 119.77 215.63 121.51
  A 0.40 0.39 87.9 0 0 216.13 121.98
  Q 219.00 121.08 220.76 121.19
  Q 222.96 121.32 220.90 122.12
  Q 215.42 124.26 209.28 126.78
  Q 205.88 128.19 197.84 134.84
  Q 192.64 139.14 183.93 148.92
  C 176.83 156.90 173.52 163.65 169.11 172.05
  Q 165.93 178.12 164.47 183.39
  Q 161.28 194.92 160.41 206.89
  C 160.04 212.07 160.82 217.31 161.44 222.55
  A 1.29 1.28 5.3 0 0 162.33 223.62
  L 166.37 224.87
  A 1.10 1.09 -71.1 0 0 167.73 224.20
  C 168.96 220.78 169.25 218.48 172.34 215.88
  Q 176.94 212.01 181.96 214.98
  Q 189.87 219.66 191.58 228.61
  Q 191.69 229.16 192.21 228.94
  Q 202.78 224.45 211.96 228.85
  Q 216.03 230.80 211.55 230.27
  C 205.79 229.58 197.76 227.95 192.15 231.56
  C 185.22 236.01 180.78 242.04 182.65 250.94
  C 183.58 255.41 188.15 257.01 192.25 256.96
  C 196.04 256.90 197.37 254.24 199.64 251.87
  A 2.12 2.11 -45.7 0 1 202.67 251.83
  C 205.36 254.49 210.78 254.44 214.42 254.35
  C 219.44 254.21 223.42 252.76 226.58 249.04
  A 1.12 1.12 0.0 0 0 226.38 247.41
  Q 222.49 244.58 220.28 240.28
  Q 218.99 237.75 221.10 239.71
  Q 221.40 239.98 222.50 241.25
  C 227.15 246.63 237.46 248.71 244.64 248.11
  A 0.30 0.29 -21.4 0 1 244.91 248.22
  Q 245.40 248.79 244.35 249.10
  Q 238.14 250.89 231.74 249.48
  Q 231.23 249.36 230.81 249.68
  C 226.24 253.14 222.44 255.47 217.16 257.88
  C 215.83 258.49 214.59 261.55 213.17 262.59
  C 206.91 267.15 200.33 256.54 195.74 258.00
  C 191.47 259.35 184.34 259.66 181.61 255.23
  C 179.20 251.32 179.68 246.05 180.87 241.84
  A 0.80 0.80 0.0 0 0 180.28 240.84
  C 177.35 240.14 172.31 240.27 170.15 238.19
  C 168.73 236.83 168.75 234.42 168.20 232.60
  Q 167.86 231.50 166.73 231.71
  L 165.53 231.93
  Q 164.35 232.14 164.90 233.21
  C 166.11 235.56 169.33 239.87 165.87 241.90
  C 161.32 244.56 160.88 247.04 159.74 251.66
  C 159.07 254.34 163.25 254.69 164.81 255.19
  Q 166.99 255.89 164.72 256.19
  L 159.74 256.88
  A 0.54 0.53 -9.4 0 0 159.28 257.52
  L 160.05 261.41
  A 0.87 0.87 0.0 0 0 161.29 262.02
  Q 164.46 260.43 167.97 259.79
  Q 171.75 259.11 168.58 261.28
  L 167.02 262.35
  A 1.92 1.92 0.0 0 0 166.85 265.39
  C 169.33 267.55 171.62 270.17 174.39 271.81
  Q 178.93 274.50 183.20 275.86
  Q 194.80 279.54 203.24 282.67
  C 209.75 285.08 214.12 287.82 218.02 293.04
  Q 219.66 295.23 217.19 294.04
  Q 216.60 293.75 215.96 294.64
  Q 215.67 295.04 215.42 295.81
  Q 213.64 301.29 211.18 306.48
  C 207.19 314.88 205.28 321.87 203.72 330.45
  A 0.35 0.35 0.0 0 0 204.23 330.82
  Q 205.44 330.18 206.82 330.25
  Q 207.41 330.28 207.28 330.86
  C 206.99 332.18 206.41 333.36 206.21 334.59
  Q 204.47 345.73 206.38 356.78
  C 207.20 361.51 207.88 365.87 209.87 369.38
  Q 212.20 373.52 217.25 378.99
  Q 237.20 400.63 266.79 403.03
  Q 267.46 403.08 267.49 402.41
  C 267.83 393.78 274.99 382.52 281.49 377.05
  Q 281.70 376.87 281.89 377.07
  L 282.08 377.26
  A 0.57 0.57 0.0 0 1 282.11 378.03
  Q 275.25 386.08 271.91 396.12
  C 271.35 397.79 269.97 400.73 270.38 402.75
  C 272.84 414.86 273.93 428.65 285.79 435.75
  Q 287.52 436.79 288.18 435.23
  A 1.24 1.24 0.0 0 1 290.34 435.02
  C 292.92 438.75 298.00 440.42 302.26 441.15
  C 305.65 441.73 309.61 441.16 313.27 440.95
  Q 317.54 440.72 321.08 439.53
  C 326.63 437.66 332.48 436.04 336.84 431.65
  C 338.01 430.48 338.11 429.03 338.75 427.53
  Q 338.96 427.05 339.43 426.81
  Q 347.54 422.73 349.47 420.71
  C 355.66 414.27 358.76 410.00 363.23 402.58
  C 368.95 393.08 373.97 379.49 369.68 368.69
  A 1.36 1.35 -46.5 0 1 369.66 367.76
  Q 370.13 366.44 371.41 365.87
  Q 371.96 365.62 371.84 365.03
  Q 370.24 357.09 364.13 351.94
  C 361.66 349.87 364.48 346.98 360.62 345.09
  Q 355.23 342.43 349.85 339.72
  C 336.61 333.05 319.99 329.94 312.48 316.17
  C 310.79 313.07 308.34 315.00 305.73 314.93
  Q 304.95 314.90 305.51 314.36
  Q 306.51 313.39 307.82 312.84
  C 314.54 310.00 321.43 307.68 328.61 307.05
  C 341.77 305.90 352.10 308.60 364.99 313.54
  Q 366.67 314.18 370.17 313.78
  Q 372.86 313.47 374.01 311.81
  C 376.80 307.81 373.59 304.56 371.82 301.19
  Q 370.89 299.42 372.62 300.41
  Q 375.13 301.86 377.35 303.71
  A 0.76 0.75 18.6 0 0 378.59 303.10
  C 378.42 299.25 375.25 296.38 372.34 294.23
  A 0.41 0.41 0.0 0 1 372.28 293.63
  L 372.45 293.44
  A 0.94 0.92 37.9 0 1 373.64 293.30
  L 379.29 296.96
  A 0.71 0.71 0.0 0 0 380.37 296.52
  C 381.34 292.39 377.89 288.80 374.63 285.63
  Q 365.48 276.75 352.99 273.99
  Q 341.08 271.36 336.75 271.16
  Q 314.77 270.12 293.02 273.34
  Q 286.91 274.25 281.18 276.54
  Q 278.93 277.44 277.19 277.55
  Q 275.21 277.67 276.77 276.44
  C 281.18 272.98 285.43 271.02 291.39 268.83
  Q 296.99 266.78 307.24 262.75
  Q 325.67 255.50 334.11 238.39
  C 337.64 231.23 337.99 224.74 337.51 216.67
  Q 337.48 216.09 338.05 216.00
  Q 339.18 215.85 340.16 216.40
  A 0.79 0.79 0.0 0 0 341.33 215.78
  Q 342.06 208.13 336.43 203.32
  Q 334.99 202.08 333.78 198.25
  C 332.47 194.09 328.56 191.21 327.33 187.20
  C 322.23 170.65 317.04 151.21 300.05 144.36
  C 297.90 143.49 294.82 141.02 291.63 141.57
  Q 289.64 141.90 291.36 140.86
  C 297.23 137.31 304.71 138.34 311.49 137.49
  Q 331.12 135.02 350.73 132.46
  Q 356.60 131.69 362.13 129.65
  C 370.03 126.73 378.94 123.81 385.77 120.34
  C 394.79 115.75 401.21 108.52 408.56 102.32
  Q 415.36 96.59 422.32 86.77
  C 426.75 80.53 435.66 63.21 422.83 59.87
  C 416.15 58.12 408.73 59.30 402.01 59.81
  Q 382.56 61.30 363.99 67.25
  Q 359.01 68.85 341.14 75.52
  C 336.33 77.31 331.80 80.02 327.01 82.25
  C 309.19 90.55 292.82 102.46 278.39 115.76
  C 274.90 118.97 271.57 123.19 268.01 126.88
  Q 266.56 128.37 267.50 126.52
  Z
  M 181.97 230.12
  A 1.35 1.34 73.3 0 1 183.17 230.77
  L 184.77 233.45
  A 0.73 0.71 -28.6 0 0 185.72 233.72
  Q 188.21 232.43 189.97 230.25
  A 1.08 1.08 0.0 0 0 190.16 229.22
  C 188.91 225.55 184.67 218.86 180.13 218.04
  Q 179.42 217.92 179.80 218.52
  C 181.94 221.91 185.39 225.70 180.50 228.81
  Q 180.41 228.87 180.12 229.36
  Q 180.00 229.58 180.11 229.87
  Q 180.25 230.19 180.60 230.18
  L 181.97 230.12
  Z
  M 175.66 225.63
  L 171.05 226.79
  A 1.95 1.95 0.0 0 0 169.63 229.16
  L 169.67 229.31
  A 6.63 4.25 75.9 0 0 175.41 234.71
  L 175.56 234.67
  A 6.63 4.25 75.9 0 0 178.07 227.20
  L 178.03 227.05
  A 1.95 1.95 0.0 0 0 175.66 225.63
  Z
  M 167.8719 228.0840
  A 0.87 0.87 0.0 0 0 167.1297 227.1027
  L 163.9799 226.6656
  A 0.87 0.87 0.0 0 0 162.9986 227.4078
  L 162.8281 228.6360
  A 0.87 0.87 0.0 0 0 163.5703 229.6173
  L 166.7201 230.0544
  A 0.87 0.87 0.0 0 0 167.7014 229.3122
  L 167.8719 228.0840
  Z
  M 200.01 255.41
  L 199.92 255.66
  A 0.67 0.66 -67.1 0 0 200.25 256.49
  C 203.04 257.86 208.31 261.36 211.01 261.24
  A 1.33 1.31 -71.3 0 0 211.95 260.77
  Q 212.75 259.80 212.88 258.55
  A 0.85 0.84 -85.4 0 0 212.09 257.62
  Q 206.11 257.27 200.52 255.18
  A 0.39 0.38 20.2 0 0 200.01 255.41
  Z
  M 140.36 315.64
  L 135.17 311.93
  A 1.32 1.32 0.0 0 0 133.09 312.93
  Q 132.82 317.51 135.63 320.96
  C 143.57 330.72 152.92 336.69 165.40 341.04
  C 170.97 342.99 177.21 344.17 183.19 345.45
  C 189.73 346.85 195.37 347.00 201.75 346.63
  A 0.80 0.79 3.8 0 0 202.48 346.00
  Q 203.10 343.02 203.25 339.80
  C 203.34 337.82 201.33 336.69 200.97 334.81
  Q 200.62 333.03 200.92 330.88
  Q 202.90 316.81 209.29 303.83
  Q 210.75 300.85 208.30 303.09
  Q 202.18 308.71 192.72 311.76
  C 180.80 315.61 171.80 308.95 162.44 303.05
  C 154.35 297.96 149.38 295.93 140.69 299.53
  A 1.44 1.43 -37.4 0 0 140.36 301.99
  L 145.39 305.89
  Q 148.00 307.91 144.73 307.44
  Q 141.44 306.96 139.42 304.04
  Q 138.13 302.19 136.78 303.99
  L 135.69 305.43
  Q 134.09 307.56 135.94 309.48
  Q 138.55 312.18 140.73 315.28
  Q 141.60 316.52 140.36 315.64
  Z
  M 390.40 374.53
  Q 391.60 374.29 393.01 374.39
  C 398.44 374.76 400.43 368.98 399.60 364.62
  C 399.08 361.89 397.58 359.82 397.70 356.70
  C 397.89 351.43 398.16 346.44 393.28 343.27
  C 390.68 341.58 386.03 340.87 382.60 339.71
  Q 378.11 338.18 375.71 338.44
  C 372.92 338.73 366.65 340.97 366.81 344.74
  C 367.05 350.28 371.52 353.77 373.40 358.70
  Q 375.29 363.66 375.44 369.03
  C 375.49 370.83 374.07 371.73 374.06 373.69
  Q 374.04 378.81 374.53 383.62
  A 1.68 1.68 0.0 0 0 375.70 385.06
  C 381.99 387.05 390.87 383.55 389.67 375.57
  A 0.93 0.93 0.0 0 1 390.40 374.53
  Z
  M 224.63 419.85
  C 233.84 422.64 246.83 424.23 255.29 418.62
  Q 256.76 417.64 255.00 417.46
  Q 254.11 417.37 253.39 416.76
  A 0.78 0.77 56.7 0 1 253.66 415.43
  Q 260.74 413.23 267.11 409.41
  Q 267.57 409.13 267.67 408.60
  C 267.98 406.86 266.90 405.85 265.17 405.60
  C 260.73 404.98 256.09 405.17 251.98 404.31
  Q 243.95 402.64 240.62 400.88
  C 236.34 398.62 231.54 396.44 227.86 393.87
  Q 218.11 387.05 211.20 377.13
  Q 210.45 376.05 209.44 376.90
  C 202.75 382.48 200.70 391.96 204.20 400.73
  C 205.08 402.94 206.11 409.35 209.83 407.22
  Q 211.60 406.22 212.32 408.11
  Q 215.78 417.17 224.63 419.85
  Z
  M 204.99 414.47
  A 1.43 1.43 0.0 0 0 206.45 414.85
  L 209.24 414.00
  A 1.43 1.43 0.0 0 0 209.73 411.53
  L 202.74 405.79
  A 1.43 1.43 0.0 0 0 201.58 405.49
  L 199.84 405.81
  A 1.43 1.43 0.0 0 0 199.07 408.20
  L 204.99 414.47
  Z
  M 194.93 415.42
  A 2.43 2.43 0.0 0 0 196.81 416.50
  L 199.67 416.68
  A 2.43 2.43 0.0 0 0 201.69 412.71
  L 198.09 408.36
  A 2.43 2.43 0.0 0 0 195.22 407.70
  L 193.67 408.40
  A 2.43 2.43 0.0 0 0 192.64 411.95
  L 194.93 415.42
  Z
  M 183.84 415.97
  Q 179.26 420.44 181.01 426.58
  Q 181.66 428.84 183.79 430.40
  Q 186.26 432.20 188.50 433.10
  C 199.00 437.32 210.77 440.32 222.39 441.07
  C 227.76 441.41 233.27 441.87 238.53 441.38
  Q 248.33 440.48 257.96 438.37
  C 261.28 437.64 261.37 434.23 261.42 431.56
  A 0.20 0.20 0.0 0 0 261.20 431.36
  L 256.82 431.67
  Q 256.31 431.71 256.50 431.23
  L 256.77 430.54
  L 260.25 429.34
  A 1.86 1.84 84.4 0 0 261.48 427.83
  Q 261.92 424.43 261.07 421.22
  Q 260.28 418.19 258.05 420.40
  C 254.36 424.05 245.22 425.54 240.25 425.34
  C 230.89 424.97 223.11 423.88 216.09 417.63
  Q 214.45 416.18 211.59 415.23
  A 1.49 1.43 42.6 0 0 210.65 415.25
  Q 205.60 417.13 200.26 417.76
  C 195.35 418.35 192.86 415.06 191.07 411.42
  A 1.18 1.18 0.0 0 0 189.57 410.85
  Q 185.86 412.34 183.84 415.97
  Z
  M 311.19 460.13
  Q 311.48 460.39 311.35 461.31
  Q 311.27 461.86 310.72 461.88
  Q 309.29 461.93 308.12 461.10
  A 0.40 0.40 0.0 0 0 307.49 461.47
  C 308.16 467.22 315.58 467.04 321.00 467.53
  C 325.46 467.95 328.83 465.15 332.36 462.71
  C 339.34 457.86 345.68 451.61 349.68 446.40
  C 353.27 441.74 359.68 435.94 360.12 428.87
  Q 360.33 425.47 359.30 422.11
  Q 359.22 421.86 359.00 421.99
  Q 358.87 422.06 358.71 422.14
  A 0.20 0.19 76.7 0 1 358.43 421.96
  L 358.36 420.00
  Q 358.35 419.87 358.31 419.96
  Q 358.29 420.01 358.28 420.07
  Q 358.25 420.37 358.23 420.41
  Q 358.18 420.49 358.12 420.57
  Q 358.34 418.31 357.01 417.99
  A 0.89 0.87 -58.4 0 0 356.24 418.18
  Q 350.40 423.13 344.26 427.25
  C 342.11 428.69 339.70 432.59 337.31 434.65
  C 335.52 436.20 333.65 437.57 332.23 439.45
  C 330.32 441.99 328.49 446.15 325.65 447.42
  C 322.46 448.84 314.30 449.58 312.90 444.72
  A 0.86 0.82 87.9 0 0 312.29 444.13
  C 310.65 443.74 307.74 443.55 306.70 445.16
  C 303.18 450.60 307.02 456.40 311.19 460.13
  Z
  M 186.33 434.56
  Q 184.55 432.86 182.34 431.81
  A 1.11 1.11 0.0 0 0 180.78 432.59
  C 179.98 436.44 182.57 438.10 185.05 440.25
  Q 186.15 441.21 187.52 443.19
  Q 189.62 446.21 193.43 447.18
  Q 194.22 447.38 195.00 447.68
  Q 195.69 447.95 196.27 448.63
  Q 203.11 456.46 212.18 451.18
  Q 216.68 448.56 215.35 442.54
  A 0.79 0.79 0.0 0 0 214.76 441.95
  Q 213.39 441.65 212.01 441.89
  Q 211.54 441.98 211.07 441.85
  Q 204.05 439.89 197.06 437.85
  C 194.36 437.06 190.98 435.05 187.17 434.92
  Q 186.68 434.90 186.33 434.56
  Z
  M 361.66 439.87
  Q 362.55 440.35 362.90 441.50
  C 364.59 446.93 359.02 446.92 355.82 445.20
  Q 353.94 444.19 352.51 445.79
  L 352.20 446.13
  Q 350.74 447.77 352.70 448.75
  Q 357.35 451.09 361.77 449.40
  C 367.98 447.02 367.55 438.63 362.51 435.00
  Q 361.26 434.10 360.49 435.43
  L 356.39 442.48
  A 0.71 0.70 -56.2 0 0 356.56 443.38
  Q 357.78 444.35 359.36 444.38
  Q 361.13 444.42 361.12 442.65
  L 361.12 440.20
  Q 361.11 439.57 361.66 439.87
  Z
  M 328.62 440.22
  L 314.06 443.77
  A 0.10 0.10 0.0 0 0 313.99 443.89
  L 314.00 443.92
  A 7.41 5.01 -13.7 0 0 322.38 447.03
  L 322.73 446.94
  A 7.41 5.01 -13.7 0 0 328.75 440.32
  L 328.74 440.29
  A 0.10 0.10 0.0 0 0 328.62 440.22
  Z
  M 241.14 446.40
  Q 241.13 445.22 241.81 446.18
  Q 244.28 449.69 248.46 448.20
  Q 248.93 448.03 249.11 447.56
  Q 249.86 445.64 249.57 443.56
  Q 249.45 442.69 248.56 442.69
  Q 244.77 442.72 241.23 444.06
  Q 240.85 444.21 240.45 444.13
  Q 238.61 443.77 236.78 444.04
  Q 235.64 444.22 235.56 445.37
  Q 235.41 447.49 236.53 449.67
  Q 241.01 458.38 250.88 456.27
  C 257.99 454.75 259.49 440.57 253.16 441.92
  A 1.47 1.46 85.9 0 0 252.01 443.26
  C 251.85 445.99 251.22 449.40 248.15 450.16
  C 245.77 450.74 241.16 449.23 241.14 446.40
  Z
  M 233.27 450.82
  A 0.91 0.91 0.0 0 0 234.46 449.83
  L 233.77 444.93
  A 0.91 0.91 0.0 0 0 233.01 444.16
  L 227.50 443.33
  A 0.91 0.91 0.0 0 0 226.51 444.55
  L 228.10 448.75
  A 0.91 0.91 0.0 0 0 228.66 449.30
  L 233.27 450.82
  Z
  M 330.48 468.76
  C 334.37 472.36 338.87 474.62 343.34 470.09
  C 345.30 468.11 347.65 460.48 344.04 458.21
  A 1.08 1.08 0.0 0 0 342.39 459.16
  C 342.48 461.77 343.07 466.22 339.25 466.68
  C 337.81 466.85 336.61 465.72 335.41 464.98
  Q 334.98 464.72 334.48 464.76
  Q 331.31 465.02 329.66 467.54
  Q 329.38 467.96 328.88 467.94
  Q 326.90 467.88 325.19 468.88
  Q 324.52 469.27 325.17 469.69
  Q 327.18 471.02 329.68 470.88
  A 0.54 0.54 0.0 0 0 330.08 470.02
  Q 329.76 469.58 329.78 469.06
  A 0.42 0.42 0.0 0 1 330.48 468.76
  Z
  M 339.65 460.66
  L 335.86 462.71
  A 0.24 0.24 0.0 0 0 335.77 463.03
  L 335.83 463.15
  A 3.23 2.33 61.6 0 0 339.41 464.88
  L 339.52 464.82
  A 3.23 2.33 61.6 0 0 340.03 460.88
  L 339.97 460.76
  A 0.24 0.24 0.0 0 0 339.65 460.66
  Z"
/>
<path fill="#abecf2" d="
  M 267.50 126.52
  Q 266.56 128.37 268.01 126.88
  C 271.57 123.19 274.90 118.97 278.39 115.76
  C 292.82 102.46 309.19 90.55 327.01 82.25
  C 331.80 80.02 336.33 77.31 341.14 75.52
  Q 359.01 68.85 363.99 67.25
  Q 382.56 61.30 402.01 59.81
  C 408.73 59.30 416.15 58.12 422.83 59.87
  C 435.66 63.21 426.75 80.53 422.32 86.77
  Q 415.36 96.59 408.56 102.32
  C 401.21 108.52 394.79 115.75 385.77 120.34
  C 378.94 123.81 370.03 126.73 362.13 129.65
  Q 356.60 131.69 350.73 132.46
  Q 331.12 135.02 311.49 137.49
  C 304.71 138.34 297.23 137.31 291.36 140.86
  Q 289.64 141.90 291.63 141.57
  C 294.82 141.02 297.90 143.49 300.05 144.36
  C 317.04 151.21 322.23 170.65 327.33 187.20
  C 328.56 191.21 332.47 194.09 333.78 198.25
  Q 334.99 202.08 336.43 203.32
  Q 342.06 208.13 341.33 215.78
  A 0.79 0.79 0.0 0 1 340.16 216.40
  Q 339.18 215.85 338.05 216.00
  Q 337.48 216.09 337.51 216.67
  C 337.99 224.74 337.64 231.23 334.11 238.39
  Q 325.67 255.50 307.24 262.75
  Q 296.99 266.78 291.39 268.83
  C 285.43 271.02 281.18 272.98 276.77 276.44
  Q 275.21 277.67 277.19 277.55
  Q 278.93 277.44 281.18 276.54
  Q 286.91 274.25 293.02 273.34
  Q 314.77 270.12 336.75 271.16
  Q 341.08 271.36 352.99 273.99
  Q 365.48 276.75 374.63 285.63
  C 377.89 288.80 381.34 292.39 380.37 296.52
  A 0.71 0.71 0.0 0 1 379.29 296.96
  L 373.64 293.30
  A 0.94 0.92 37.9 0 0 372.45 293.44
  L 372.28 293.63
  A 0.41 0.41 0.0 0 0 372.34 294.23
  C 375.25 296.38 378.42 299.25 378.59 303.10
  A 0.76 0.75 18.6 0 1 377.35 303.71
  Q 375.13 301.86 372.62 300.41
  Q 370.89 299.42 371.82 301.19
  C 373.59 304.56 376.80 307.81 374.01 311.81
  Q 372.86 313.47 370.17 313.78
  Q 366.67 314.18 364.99 313.54
  C 352.10 308.60 341.77 305.90 328.61 307.05
  C 321.43 307.68 314.54 310.00 307.82 312.84
  Q 306.51 313.39 305.51 314.36
  Q 304.95 314.90 305.73 314.93
  C 308.34 315.00 310.79 313.07 312.48 316.17
  C 319.99 329.94 336.61 333.05 349.85 339.72
  Q 355.23 342.43 360.62 345.09
  C 364.48 346.98 361.66 349.87 364.13 351.94
  Q 370.24 357.09 371.84 365.03
  Q 371.96 365.62 371.41 365.87
  Q 370.13 366.44 369.66 367.76
  A 1.36 1.35 -46.5 0 0 369.68 368.69
  C 373.97 379.49 368.95 393.08 363.23 402.58
  C 358.76 410.00 355.66 414.27 349.47 420.71
  Q 347.54 422.73 339.43 426.81
  Q 338.96 427.05 338.75 427.53
  C 338.11 429.03 338.01 430.48 336.84 431.65
  C 332.48 436.04 326.63 437.66 321.08 439.53
  Q 317.54 440.72 313.27 440.95
  C 309.61 441.16 305.65 441.73 302.26 441.15
  C 298.00 440.42 292.92 438.75 290.34 435.02
  A 1.24 1.24 0.0 0 0 288.18 435.23
  Q 287.52 436.79 285.79 435.75
  C 273.93 428.65 272.84 414.86 270.38 402.75
  C 269.97 400.73 271.35 397.79 271.91 396.12
  Q 275.25 386.08 282.11 378.03
  A 0.57 0.57 0.0 0 0 282.08 377.26
  L 281.89 377.07
  Q 281.70 376.87 281.49 377.05
  C 274.99 382.52 267.83 393.78 267.49 402.41
  Q 267.46 403.08 266.79 403.03
  Q 237.20 400.63 217.25 378.99
  Q 212.20 373.52 209.87 369.38
  C 207.88 365.87 207.20 361.51 206.38 356.78
  Q 204.47 345.73 206.21 334.59
  C 206.41 333.36 206.99 332.18 207.28 330.86
  Q 207.41 330.28 206.82 330.25
  Q 205.44 330.18 204.23 330.82
  A 0.35 0.35 0.0 0 1 203.72 330.45
  C 205.28 321.87 207.19 314.88 211.18 306.48
  Q 213.64 301.29 215.42 295.81
  Q 215.67 295.04 215.96 294.64
  Q 216.60 293.75 217.19 294.04
  Q 219.66 295.23 218.02 293.04
  C 214.12 287.82 209.75 285.08 203.24 282.67
  Q 194.80 279.54 183.20 275.86
  Q 178.93 274.50 174.39 271.81
  C 171.62 270.17 169.33 267.55 166.85 265.39
  A 1.92 1.92 0.0 0 1 167.02 262.35
  L 168.58 261.28
  Q 171.75 259.11 167.97 259.79
  Q 164.46 260.43 161.29 262.02
  A 0.87 0.87 0.0 0 1 160.05 261.41
  L 159.28 257.52
  A 0.54 0.53 -9.4 0 1 159.74 256.88
  L 164.72 256.19
  Q 166.99 255.89 164.81 255.19
  C 163.25 254.69 159.07 254.34 159.74 251.66
  C 160.88 247.04 161.32 244.56 165.87 241.90
  C 169.33 239.87 166.11 235.56 164.90 233.21
  Q 164.35 232.14 165.53 231.93
  L 166.73 231.71
  Q 167.86 231.50 168.20 232.60
  C 168.75 234.42 168.73 236.83 170.15 238.19
  C 172.31 240.27 177.35 240.14 180.28 240.84
  A 0.80 0.80 0.0 0 1 180.87 241.84
  C 179.68 246.05 179.20 251.32 181.61 255.23
  C 184.34 259.66 191.47 259.35 195.74 258.00
  C 200.33 256.54 206.91 267.15 213.17 262.59
  C 214.59 261.55 215.83 258.49 217.16 257.88
  C 222.44 255.47 226.24 253.14 230.81 249.68
  Q 231.23 249.36 231.74 249.48
  Q 238.14 250.89 244.35 249.10
  Q 245.40 248.79 244.91 248.22
  A 0.30 0.29 -21.4 0 0 244.64 248.11
  C 237.46 248.71 227.15 246.63 222.50 241.25
  Q 221.40 239.98 221.10 239.71
  Q 218.99 237.75 220.28 240.28
  Q 222.49 244.58 226.38 247.41
  A 1.12 1.12 0.0 0 1 226.58 249.04
  C 223.42 252.76 219.44 254.21 214.42 254.35
  C 210.78 254.44 205.36 254.49 202.67 251.83
  A 2.12 2.11 -45.7 0 0 199.64 251.87
  C 197.37 254.24 196.04 256.90 192.25 256.96
  C 188.15 257.01 183.58 255.41 182.65 250.94
  C 180.78 242.04 185.22 236.01 192.15 231.56
  C 197.76 227.95 205.79 229.58 211.55 230.27
  Q 216.03 230.80 211.96 228.85
  Q 202.78 224.45 192.21 228.94
  Q 191.69 229.16 191.58 228.61
  Q 189.87 219.66 181.96 214.98
  Q 176.94 212.01 172.34 215.88
  C 169.25 218.48 168.96 220.78 167.73 224.20
  A 1.10 1.09 -71.1 0 1 166.37 224.87
  L 162.33 223.62
  A 1.29 1.28 5.3 0 1 161.44 222.55
  C 160.82 217.31 160.04 212.07 160.41 206.89
  Q 161.28 194.92 164.47 183.39
  Q 165.93 178.12 169.11 172.05
  C 173.52 163.65 176.83 156.90 183.93 148.92
  Q 192.64 139.14 197.84 134.84
  Q 205.88 128.19 209.28 126.78
  Q 215.42 124.26 220.90 122.12
  Q 222.96 121.32 220.76 121.19
  Q 219.00 121.08 216.13 121.98
  A 0.40 0.39 87.9 0 1 215.63 121.51
  Q 216.01 119.77 216.17 118.01
  C 216.61 113.28 219.34 108.60 221.96 104.20
  Q 229.43 91.63 239.72 82.45
  Q 242.68 79.81 249.02 74.80
  C 256.08 69.23 262.62 65.96 269.57 61.68
  C 277.92 56.53 287.93 53.02 297.45 50.86
  C 308.86 48.27 321.78 48.32 334.25 48.53
  Q 338.99 48.60 342.78 49.66
  Q 343.26 49.79 343.30 50.28
  C 343.96 57.85 335.28 69.48 330.81 75.35
  C 328.85 77.92 323.47 80.03 320.54 81.52
  Q 296.00 94.05 276.77 113.77
  Q 270.87 119.81 267.50 126.52
  Z
  M 300.89 129.01
  C 303.29 130.04 307.70 128.96 309.87 128.89
  C 310.45 128.87 311.61 128.04 312.43 127.90
  C 325.32 125.61 338.08 124.30 351.16 121.42
  Q 357.56 120.01 364.46 117.51
  C 369.97 115.50 375.93 113.85 380.99 110.86
  Q 383.12 109.60 386.24 107.99
  C 391.71 105.16 396.81 100.13 401.37 94.79
  C 403.39 92.41 407.35 86.77 410.79 83.09
  Q 413.19 80.53 413.87 78.74
  Q 414.81 76.23 414.78 73.34
  Q 415.90 72.97 416.25 72.50
  Q 417.15 71.26 415.78 70.35
  Q 415.28 70.02 414.69 69.95
  C 403.27 68.47 392.33 71.76 381.95 76.16
  C 377.14 78.19 372.29 79.97 367.73 82.49
  C 358.95 87.34 350.39 91.38 342.49 97.73
  C 333.31 105.11 324.49 112.98 314.10 118.60
  Q 303.81 124.16 286.42 132.03
  Q 286.29 132.09 286.28 132.24
  Q 286.28 132.38 286.26 132.54
  Q 286.23 132.88 286.57 132.85
  Q 294.17 132.33 300.89 129.01
  Z
  M 225.01 186.99
  C 228.04 183.02 233.88 180.07 238.98 181.56
  Q 241.24 182.23 239.90 180.29
  Q 239.59 179.84 238.12 179.43
  C 231.82 177.66 224.96 179.03 224.53 186.82
  Q 224.48 187.69 225.01 186.99
  Z
  M 180.05 191.41
  A 0.58 0.58 0.0 0 0 180.67 190.62
  C 178.43 184.79 170.32 190.30 168.59 193.73
  Q 167.86 195.17 169.24 194.32
  C 173.17 191.88 174.64 190.65 180.05 191.41
  Z
  M 251.62 211.26
  C 250.82 210.48 250.97 209.47 251.74 208.64
  C 253.11 207.15 256.05 204.18 256.11 202.10
  Q 256.13 201.37 255.54 201.81
  L 249.77 206.20
  A 2.03 2.02 -33.1 0 1 246.77 205.57
  Q 244.56 201.58 239.50 201.85
  C 232.99 202.20 224.41 207.38 223.67 214.49
  Q 223.17 219.35 223.30 228.75
  Q 223.33 230.59 223.63 231.50
  Q 224.14 233.02 225.66 232.52
  Q 235.87 229.16 244.97 225.06
  C 247.03 224.13 251.92 221.15 253.06 219.25
  Q 253.33 218.81 253.18 218.31
  C 251.68 213.04 258.51 212.29 258.41 209.08
  Q 258.39 208.45 257.89 208.83
  Q 255.53 210.60 252.71 211.52
  A 1.09 1.08 58.1 0 1 251.62 211.26
  Z
  M 281.27 216.22
  C 270.39 218.08 255.18 223.58 248.71 232.93
  A 0.54 0.54 0.0 0 0 249.22 233.78
  Q 250.02 233.69 250.83 233.07
  Q 262.96 223.91 277.21 218.69
  Q 279.76 217.75 281.48 216.81
  Q 283.12 215.91 281.27 216.22
  Z
  M 290.31 230.11
  Q 273.53 228.24 260.09 234.30
  Q 256.63 235.86 254.18 238.81
  A 0.74 0.74 0.0 0 0 254.58 240.00
  Q 255.48 240.21 256.47 239.63
  C 265.13 234.44 275.81 232.49 285.74 231.78
  Q 288.58 231.58 290.39 231.10
  Q 292.95 230.41 290.31 230.11
  Z
  M 207.04 235.96
  C 205.56 231.70 196.58 234.25 193.91 236.06
  C 186.22 241.28 198.59 247.74 202.71 245.19
  C 205.18 243.66 208.13 239.11 207.04 235.96
  Z
  M 230.34 334.49
  C 231.85 334.83 233.32 335.42 234.74 335.52
  C 237.72 335.73 244.52 335.50 246.54 332.97
  A 0.85 0.84 -46.2 0 0 246.52 331.89
  Q 245.17 330.33 245.72 330.01
  Q 248.62 328.33 250.57 326.46
  Q 252.05 325.04 250.21 325.95
  C 248.45 326.82 243.43 329.15 241.21 328.69
  Q 238.36 328.10 239.62 330.92
  L 240.15 332.12
  Q 240.45 332.79 239.72 332.92
  Q 232.34 334.19 226.55 329.24
  Q 225.78 328.58 224.74 328.98
  Q 224.18 329.20 224.36 329.77
  L 225.13 332.23
  Q 225.66 333.94 223.99 333.30
  C 218.18 331.08 216.55 326.41 212.71 322.12
  Q 211.51 320.78 211.98 322.52
  Q 215.27 334.77 227.87 337.13
  Q 228.39 337.23 228.78 336.86
  Q 229.57 336.10 229.70 334.95
  Q 229.77 334.37 230.34 334.49
  Z"
/>
<path fill="#426fb5" d="
  M 414.78 73.34
  Q 402.70 72.72 390.64 76.92
  C 377.08 81.64 368.50 86.28 357.54 92.07
  C 346.67 97.81 336.57 107.64 326.60 114.56
  C 316.91 121.29 309.81 124.45 300.89 129.01
  Q 294.17 132.33 286.57 132.85
  Q 286.23 132.88 286.26 132.54
  Q 286.28 132.38 286.28 132.24
  Q 286.29 132.09 286.42 132.03
  Q 303.81 124.16 314.10 118.60
  C 324.49 112.98 333.31 105.11 342.49 97.73
  C 350.39 91.38 358.95 87.34 367.73 82.49
  C 372.29 79.97 377.14 78.19 381.95 76.16
  C 392.33 71.76 403.27 68.47 414.69 69.95
  Q 415.28 70.02 415.78 70.35
  Q 417.15 71.26 416.25 72.50
  Q 415.90 72.97 414.78 73.34
  Z"
/>
<path fill="#8edcef" d="
  M 414.78 73.34
  Q 414.81 76.23 413.87 78.74
  Q 413.19 80.53 410.79 83.09
  C 407.35 86.77 403.39 92.41 401.37 94.79
  C 396.81 100.13 391.71 105.16 386.24 107.99
  Q 383.12 109.60 380.99 110.86
  C 375.93 113.85 369.97 115.50 364.46 117.51
  Q 357.56 120.01 351.16 121.42
  C 338.08 124.30 325.32 125.61 312.43 127.90
  C 311.61 128.04 310.45 128.87 309.87 128.89
  C 307.70 128.96 303.29 130.04 300.89 129.01
  C 309.81 124.45 316.91 121.29 326.60 114.56
  C 336.57 107.64 346.67 97.81 357.54 92.07
  C 368.50 86.28 377.08 81.64 390.64 76.92
  Q 402.70 72.72 414.78 73.34
  Z"
/>
<path fill="#426fb5" d="
  M 238.98 181.56
  C 233.88 180.07 228.04 183.02 225.01 186.99
  Q 224.48 187.69 224.53 186.82
  C 224.96 179.03 231.82 177.66 238.12 179.43
  Q 239.59 179.84 239.90 180.29
  Q 241.24 182.23 238.98 181.56
  Z"
/>
<path fill="#426fb5" d="
  M 180.05 191.41
  C 174.64 190.65 173.17 191.88 169.24 194.32
  Q 167.86 195.17 168.59 193.73
  C 170.32 190.30 178.43 184.79 180.67 190.62
  A 0.58 0.58 0.0 0 1 180.05 191.41
  Z"
/>
<path fill="#426fb5" d="
  M 252.71 211.52
  Q 255.53 210.60 257.89 208.83
  Q 258.39 208.45 258.41 209.08
  C 258.51 212.29 251.68 213.04 253.18 218.31
  Q 253.33 218.81 253.06 219.25
  C 251.92 221.15 247.03 224.13 244.97 225.06
  Q 235.87 229.16 225.66 232.52
  Q 224.14 233.02 223.63 231.50
  Q 223.33 230.59 223.30 228.75
  Q 223.17 219.35 223.67 214.49
  C 224.41 207.38 232.99 202.20 239.50 201.85
  Q 244.56 201.58 246.77 205.57
  A 2.03 2.02 -33.1 0 0 249.77 206.20
  L 255.54 201.81
  Q 256.13 201.37 256.11 202.10
  C 256.05 204.18 253.11 207.15 251.74 208.64
  C 250.97 209.47 250.82 210.48 251.62 211.26
  A 1.09 1.08 58.1 0 0 252.71 211.52
  Z
  M 250.78 217.51
  C 249.22 211.20 245.72 203.43 237.55 205.19
  A 0.92 0.92 0.0 0 0 237.18 206.82
  C 240.10 209.07 243.11 211.53 242.00 215.95
  Q 241.83 216.64 241.81 217.40
  Q 241.80 217.90 242.17 218.24
  L 246.02 221.78
  Q 246.83 222.53 247.79 221.96
  C 249.63 220.85 251.44 220.19 250.78 217.51
  Z
  M 225.14 217.88
  C 225.56 221.64 227.97 223.43 230.90 225.38
  A 2.27 2.27 0.0 0 0 233.97 224.84
  C 236.06 222.01 239.95 215.44 234.20 213.58
  A 0.86 0.85 -58.9 0 0 233.33 213.80
  Q 230.70 216.60 226.91 215.51
  A 1.09 1.07 31.5 0 0 225.86 215.75
  Q 224.99 216.56 225.14 217.88
  Z"
/>
<path fill="#ffffff" d="
  M 237.55 205.19
  C 245.72 203.43 249.22 211.20 250.78 217.51
  C 251.44 220.19 249.63 220.85 247.79 221.96
  Q 246.83 222.53 246.02 221.78
  L 242.17 218.24
  Q 241.80 217.90 241.81 217.40
  Q 241.83 216.64 242.00 215.95
  C 243.11 211.53 240.10 209.07 237.18 206.82
  A 0.92 0.92 0.0 0 1 237.55 205.19
  Z"
/>
<path fill="#fbf192" d="
  M 225.14 217.88
  Q 224.99 216.56 225.86 215.75
  A 1.09 1.07 31.5 0 1 226.91 215.51
  Q 230.70 216.60 233.33 213.80
  A 0.86 0.85 -58.9 0 1 234.20 213.58
  C 239.95 215.44 236.06 222.01 233.97 224.84
  A 2.27 2.27 0.0 0 1 230.90 225.38
  C 227.97 223.43 225.56 221.64 225.14 217.88
  Z"
/>
<path fill="#426fb5" d="
  M 281.27 216.22
  Q 283.12 215.91 281.48 216.81
  Q 279.76 217.75 277.21 218.69
  Q 262.96 223.91 250.83 233.07
  Q 250.02 233.69 249.22 233.78
  A 0.54 0.54 0.0 0 1 248.71 232.93
  C 255.18 223.58 270.39 218.08 281.27 216.22
  Z"
/>
<path fill="#ffffff" d="
  M 181.97 230.12
  L 180.60 230.18
  Q 180.25 230.19 180.11 229.87
  Q 180.00 229.58 180.12 229.36
  Q 180.41 228.87 180.50 228.81
  C 185.39 225.70 181.94 221.91 179.80 218.52
  Q 179.42 217.92 180.13 218.04
  C 184.67 218.86 188.91 225.55 190.16 229.22
  A 1.08 1.08 0.0 0 1 189.97 230.25
  Q 188.21 232.43 185.72 233.72
  A 0.73 0.71 -28.6 0 1 184.77 233.45
  L 183.17 230.77
  A 1.35 1.34 73.3 0 0 181.97 230.12
  Z"
/>
<path fill="#fbf192" d="
  M 175.66 225.63
  A 1.95 1.95 0.0 0 1 178.03 227.05
  L 178.07 227.20
  A 6.63 4.25 75.9 0 1 175.56 234.67
  L 175.41 234.71
  A 6.63 4.25 75.9 0 1 169.67 229.31
  L 169.63 229.16
  A 1.95 1.95 0.0 0 1 171.05 226.79
  L 175.66 225.63
  Z"
/>
<rect fill="#8edcef" x="-2.46" y="-1.49" transform="translate(165.35,228.36) rotate(7.9)" width="4.92" height="2.98" rx="0.87"/>
<path fill="#426fb5" d="
  M 290.31 230.11
  Q 292.95 230.41 290.39 231.10
  Q 288.58 231.58 285.74 231.78
  C 275.81 232.49 265.13 234.44 256.47 239.63
  Q 255.48 240.21 254.58 240.00
  A 0.74 0.74 0.0 0 1 254.18 238.81
  Q 256.63 235.86 260.09 234.30
  Q 273.53 228.24 290.31 230.11
  Z"
/>
<path fill="#426fb5" d="
  M 193.91 236.06
  C 196.58 234.25 205.56 231.70 207.04 235.96
  C 208.13 239.11 205.18 243.66 202.71 245.19
  C 198.59 247.74 186.22 241.28 193.91 236.06
  Z
  M 204.54 239.26
  A 2.16 2.16 0.0 0 0 202.16 236.35
  L 197.50 237.17
  A 2.16 2.16 0.0 0 0 196.77 237.44
  L 195.09 238.43
  A 2.16 2.16 0.0 0 0 195.46 242.32
  L 200.40 244.10
  A 2.16 2.16 0.0 0 0 203.14 242.85
  L 204.54 239.26
  Z"
/>
<path fill="#e698f6" d="
  M 204.54 239.26
  L 203.14 242.85
  A 2.16 2.16 0.0 0 1 200.40 244.10
  L 195.46 242.32
  A 2.16 2.16 0.0 0 1 195.09 238.43
  L 196.77 237.44
  A 2.16 2.16 0.0 0 1 197.50 237.17
  L 202.16 236.35
  A 2.16 2.16 0.0 0 1 204.54 239.26
  Z"
/>
<path fill="#e698f6" d="
  M 200.52 255.18
  Q 206.11 257.27 212.09 257.62
  A 0.85 0.84 -85.4 0 1 212.88 258.55
  Q 212.75 259.80 211.95 260.77
  A 1.33 1.31 -71.3 0 1 211.01 261.24
  C 208.31 261.36 203.04 257.86 200.25 256.49
  A 0.67 0.66 -67.1 0 1 199.92 255.66
  L 200.01 255.41
  A 0.39 0.38 20.2 0 1 200.52 255.18
  Z"
/>
<path fill="#abecf2" d="
  M 140.73 315.28
  Q 138.55 312.18 135.94 309.48
  Q 134.09 307.56 135.69 305.43
  L 136.78 303.99
  Q 138.13 302.19 139.42 304.04
  Q 141.44 306.96 144.73 307.44
  Q 148.00 307.91 145.39 305.89
  L 140.36 301.99
  A 1.44 1.43 -37.4 0 1 140.69 299.53
  C 149.38 295.93 154.35 297.96 162.44 303.05
  C 171.80 308.95 180.80 315.61 192.72 311.76
  Q 202.18 308.71 208.30 303.09
  Q 210.75 300.85 209.29 303.83
  Q 202.90 316.81 200.92 330.88
  Q 200.62 333.03 200.97 334.81
  C 201.33 336.69 203.34 337.82 203.25 339.80
  Q 203.10 343.02 202.48 346.00
  A 0.80 0.79 3.8 0 1 201.75 346.63
  C 195.37 347.00 189.73 346.85 183.19 345.45
  C 177.21 344.17 170.97 342.99 165.40 341.04
  C 152.92 336.69 143.57 330.72 135.63 320.96
  Q 132.82 317.51 133.09 312.93
  A 1.32 1.32 0.0 0 1 135.17 311.93
  L 140.36 315.64
  Q 141.60 316.52 140.73 315.28
  Z
  M 151.67 305.75
  Q 150.82 312.12 156.55 314.70
  Q 158.50 315.57 157.14 313.93
  Q 153.88 309.98 153.55 304.81
  Q 153.51 304.17 152.88 304.31
  Q 152.39 304.41 152.11 304.86
  Q 151.70 305.52 151.67 305.75
  Z"
/>
<path fill="#426fb5" d="
  M 151.67 305.75
  Q 151.70 305.52 152.11 304.86
  Q 152.39 304.41 152.88 304.31
  Q 153.51 304.17 153.55 304.81
  Q 153.88 309.98 157.14 313.93
  Q 158.50 315.57 156.55 314.70
  Q 150.82 312.12 151.67 305.75
  Z"
/>
<path fill="#426fb5" d="
  M 229.70 334.95
  Q 229.57 336.10 228.78 336.86
  Q 228.39 337.23 227.87 337.13
  Q 215.27 334.77 211.98 322.52
  Q 211.51 320.78 212.71 322.12
  C 216.55 326.41 218.18 331.08 223.99 333.30
  Q 225.66 333.94 225.13 332.23
  L 224.36 329.77
  Q 224.18 329.20 224.74 328.98
  Q 225.78 328.58 226.55 329.24
  Q 232.34 334.19 239.72 332.92
  Q 240.45 332.79 240.15 332.12
  L 239.62 330.92
  Q 238.36 328.10 241.21 328.69
  C 243.43 329.15 248.45 326.82 250.21 325.95
  Q 252.05 325.04 250.57 326.46
  Q 248.62 328.33 245.72 330.01
  Q 245.17 330.33 246.52 331.89
  A 0.85 0.84 -46.2 0 1 246.54 332.97
  C 244.52 335.50 237.72 335.73 234.74 335.52
  C 233.32 335.42 231.85 334.83 230.34 334.49
  Q 229.77 334.37 229.70 334.95
  Z"
/>
<path fill="#abecf2" d="
  M 390.40 374.53
  A 0.93 0.93 0.0 0 0 389.67 375.57
  C 390.87 383.55 381.99 387.05 375.70 385.06
  A 1.68 1.68 0.0 0 1 374.53 383.62
  Q 374.04 378.81 374.06 373.69
  C 374.07 371.73 375.49 370.83 375.44 369.03
  Q 375.29 363.66 373.40 358.70
  C 371.52 353.77 367.05 350.28 366.81 344.74
  C 366.65 340.97 372.92 338.73 375.71 338.44
  Q 378.11 338.18 382.60 339.71
  C 386.03 340.87 390.68 341.58 393.28 343.27
  C 398.16 346.44 397.89 351.43 397.70 356.70
  C 397.58 359.82 399.08 361.89 399.60 364.62
  C 400.43 368.98 398.44 374.76 393.01 374.39
  Q 391.60 374.29 390.40 374.53
  Z"
/>
<path fill="#abecf2" d="
  M 224.63 419.85
  Q 215.78 417.17 212.32 408.11
  Q 211.60 406.22 209.83 407.22
  C 206.11 409.35 205.08 402.94 204.20 400.73
  C 200.70 391.96 202.75 382.48 209.44 376.90
  Q 210.45 376.05 211.20 377.13
  Q 218.11 387.05 227.86 393.87
  C 231.54 396.44 236.34 398.62 240.62 400.88
  Q 243.95 402.64 251.98 404.31
  C 256.09 405.17 260.73 404.98 265.17 405.60
  C 266.90 405.85 267.98 406.86 267.67 408.60
  Q 267.57 409.13 267.11 409.41
  Q 260.74 413.23 253.66 415.43
  A 0.78 0.77 56.7 0 0 253.39 416.76
  Q 254.11 417.37 255.00 417.46
  Q 256.76 417.64 255.29 418.62
  C 246.83 424.23 233.84 422.64 224.63 419.85
  Z"
/>
<path fill="#fbf192" d="
  M 204.99 414.47
  L 199.07 408.20
  A 1.43 1.43 0.0 0 1 199.84 405.81
  L 201.58 405.49
  A 1.43 1.43 0.0 0 1 202.74 405.79
  L 209.73 411.53
  A 1.43 1.43 0.0 0 1 209.24 414.00
  L 206.45 414.85
  A 1.43 1.43 0.0 0 1 204.99 414.47
  Z"
/>
<path fill="#fbf192" d="
  M 194.93 415.42
  L 192.64 411.95
  A 2.43 2.43 0.0 0 1 193.67 408.40
  L 195.22 407.70
  A 2.43 2.43 0.0 0 1 198.09 408.36
  L 201.69 412.71
  A 2.43 2.43 0.0 0 1 199.67 416.68
  L 196.81 416.50
  A 2.43 2.43 0.0 0 1 194.93 415.42
  Z"
/>
<path fill="#fbf192" d="
  M 256.77 430.54
  Q 249.17 431.78 241.61 433.23
  C 232.22 435.03 222.89 435.09 213.62 433.08
  C 206.49 431.53 200.38 430.41 193.37 426.46
  C 188.20 423.54 184.35 421.66 183.84 415.97
  Q 185.86 412.34 189.57 410.85
  A 1.18 1.18 0.0 0 1 191.07 411.42
  C 192.86 415.06 195.35 418.35 200.26 417.76
  Q 205.60 417.13 210.65 415.25
  A 1.49 1.43 42.6 0 1 211.59 415.23
  Q 214.45 416.18 216.09 417.63
  C 223.11 423.88 230.89 424.97 240.25 425.34
  C 245.22 425.54 254.36 424.05 258.05 420.40
  Q 260.28 418.19 261.07 421.22
  Q 261.92 424.43 261.48 427.83
  A 1.86 1.84 84.4 0 1 260.25 429.34
  L 256.77 430.54
  Z"
/>
<path fill="#67d372" d="
  M 183.84 415.97
  C 184.35 421.66 188.20 423.54 193.37 426.46
  C 200.38 430.41 206.49 431.53 213.62 433.08
  C 222.89 435.09 232.22 435.03 241.61 433.23
  Q 249.17 431.78 256.77 430.54
  L 256.50 431.23
  Q 256.31 431.71 256.82 431.67
  L 261.20 431.36
  A 0.20 0.20 0.0 0 1 261.42 431.56
  C 261.37 434.23 261.28 437.64 257.96 438.37
  Q 248.33 440.48 238.53 441.38
  C 233.27 441.87 227.76 441.41 222.39 441.07
  C 210.77 440.32 199.00 437.32 188.50 433.10
  Q 186.26 432.20 183.79 430.40
  Q 181.66 428.84 181.01 426.58
  Q 179.26 420.44 183.84 415.97
  Z"
/>
<path fill="#fbf192" d="
  M 358.12 420.57
  C 355.91 428.39 352.21 434.42 347.50 440.73
  C 344.13 445.24 338.86 449.15 335.56 452.31
  Q 324.84 462.57 311.19 460.13
  C 307.02 456.40 303.18 450.60 306.70 445.16
  C 307.74 443.55 310.65 443.74 312.29 444.13
  A 0.86 0.82 87.9 0 1 312.90 444.72
  C 314.30 449.58 322.46 448.84 325.65 447.42
  C 328.49 446.15 330.32 441.99 332.23 439.45
  C 333.65 437.57 335.52 436.20 337.31 434.65
  C 339.70 432.59 342.11 428.69 344.26 427.25
  Q 350.40 423.13 356.24 418.18
  A 0.89 0.87 -58.4 0 1 357.01 417.99
  Q 358.34 418.31 358.12 420.57
  Z"
/>
<path fill="#67d372" d="
  M 311.19 460.13
  Q 324.84 462.57 335.56 452.31
  C 338.86 449.15 344.13 445.24 347.50 440.73
  C 352.21 434.42 355.91 428.39 358.12 420.57
  Q 358.18 420.49 358.23 420.41
  Q 358.25 420.37 358.28 420.07
  Q 358.29 420.01 358.31 419.96
  Q 358.35 419.87 358.36 420.00
  L 358.43 421.96
  A 0.20 0.19 76.7 0 0 358.71 422.14
  Q 358.87 422.06 359.00 421.99
  Q 359.22 421.86 359.30 422.11
  Q 360.33 425.47 360.12 428.87
  C 359.68 435.94 353.27 441.74 349.68 446.40
  C 345.68 451.61 339.34 457.86 332.36 462.71
  C 328.83 465.15 325.46 467.95 321.00 467.53
  C 315.58 467.04 308.16 467.22 307.49 461.47
  A 0.40 0.40 0.0 0 1 308.12 461.10
  Q 309.29 461.93 310.72 461.88
  Q 311.27 461.86 311.35 461.31
  Q 311.48 460.39 311.19 460.13
  Z"
/>
<path fill="#e698f6" d="
  M 187.17 434.92
  C 190.98 435.05 194.36 437.06 197.06 437.85
  Q 204.05 439.89 211.07 441.85
  Q 211.54 441.98 212.01 441.89
  Q 213.39 441.65 214.76 441.95
  A 0.79 0.79 0.0 0 1 215.35 442.54
  Q 216.68 448.56 212.18 451.18
  Q 203.11 456.46 196.27 448.63
  Q 195.69 447.95 195.00 447.68
  Q 194.22 447.38 193.43 447.18
  Q 189.62 446.21 187.52 443.19
  Q 186.15 441.21 185.05 440.25
  C 182.57 438.10 179.98 436.44 180.78 432.59
  A 1.11 1.11 0.0 0 1 182.34 431.81
  Q 184.55 432.86 186.33 434.56
  Q 186.68 434.90 187.17 434.92
  Z"
/>
<path fill="#e698f6" d="
  M 361.12 440.20
  L 361.12 442.65
  Q 361.13 444.42 359.36 444.38
  Q 357.78 444.35 356.56 443.38
  A 0.71 0.70 -56.2 0 1 356.39 442.48
  L 360.49 435.43
  Q 361.26 434.10 362.51 435.00
  C 367.55 438.63 367.98 447.02 361.77 449.40
  Q 357.35 451.09 352.70 448.75
  Q 350.74 447.77 352.20 446.13
  L 352.51 445.79
  Q 353.94 444.19 355.82 445.20
  C 359.02 446.92 364.59 446.93 362.90 441.50
  Q 362.55 440.35 361.66 439.87
  Q 361.11 439.57 361.12 440.20
  Z"
/>
<path fill="#fbf192" d="
  M 328.62 440.22
  A 0.10 0.10 0.0 0 1 328.74 440.29
  L 328.75 440.32
  A 7.41 5.01 -13.7 0 1 322.73 446.94
  L 322.38 447.03
  A 7.41 5.01 -13.7 0 1 314.00 443.92
  L 313.99 443.89
  A 0.10 0.10 0.0 0 1 314.06 443.77
  L 328.62 440.22
  Z"
/>
<path fill="#e698f6" d="
  M 241.14 446.40
  C 241.16 449.23 245.77 450.74 248.15 450.16
  C 251.22 449.40 251.85 445.99 252.01 443.26
  A 1.47 1.46 85.9 0 1 253.16 441.92
  C 259.49 440.57 257.99 454.75 250.88 456.27
  Q 241.01 458.38 236.53 449.67
  Q 235.41 447.49 235.56 445.37
  Q 235.64 444.22 236.78 444.04
  Q 238.61 443.77 240.45 444.13
  Q 240.85 444.21 241.23 444.06
  Q 244.77 442.72 248.56 442.69
  Q 249.45 442.69 249.57 443.56
  Q 249.86 445.64 249.11 447.56
  Q 248.93 448.03 248.46 448.20
  Q 244.28 449.69 241.81 446.18
  Q 241.13 445.22 241.14 446.40
  Z"
/>
<path fill="#e698f6" d="
  M 233.27 450.82
  L 228.66 449.30
  A 0.91 0.91 0.0 0 1 228.10 448.75
  L 226.51 444.55
  A 0.91 0.91 0.0 0 1 227.50 443.33
  L 233.01 444.16
  A 0.91 0.91 0.0 0 1 233.77 444.93
  L 234.46 449.83
  A 0.91 0.91 0.0 0 1 233.27 450.82
  Z"
/>
<path fill="#e698f6" d="
  M 329.78 469.06
  Q 329.76 469.58 330.08 470.02
  A 0.54 0.54 0.0 0 1 329.68 470.88
  Q 327.18 471.02 325.17 469.69
  Q 324.52 469.27 325.19 468.88
  Q 326.90 467.88 328.88 467.94
  Q 329.38 467.96 329.66 467.54
  Q 331.31 465.02 334.48 464.76
  Q 334.98 464.72 335.41 464.98
  C 336.61 465.72 337.81 466.85 339.25 466.68
  C 343.07 466.22 342.48 461.77 342.39 459.16
  A 1.08 1.08 0.0 0 1 344.04 458.21
  C 347.65 460.48 345.30 468.11 343.34 470.09
  C 338.87 474.62 334.37 472.36 330.48 468.76
  A 0.42 0.42 0.0 0 0 329.78 469.06
  Z"
/>
<path fill="#e698f6" d="
  M 339.65 460.66
  A 0.24 0.24 0.0 0 1 339.97 460.76
  L 340.03 460.88
  A 3.23 2.33 61.6 0 1 339.52 464.82
  L 339.41 464.88
  A 3.23 2.33 61.6 0 1 335.83 463.15
  L 335.77 463.03
  A 0.24 0.24 0.0 0 1 335.86 462.71
  L 339.65 460.66
  Z"
/>
</svg>
