<svg width="296" height="68" viewBox="0 0 296 68" fill="none" xmlns="http://www.w3.org/2000/svg">
<path d="M5.13867 25.0618C10.8795 23.3146 16.1708 19.9822 21.5408 17.366C32.497 12.0284 44.2171 9.06697 56.2495 7.33817C78.2781 4.17315 108.764 2.16412 127.649 16.5109C136.804 23.4654 143.098 38.419 135.423 48.771C127.841 58.9981 115.806 63.9859 103.202 61.6751C93.1691 59.8358 89.2572 51.8581 89.0927 42.3967C88.9525 34.3393 88.4565 27.3321 95.5058 21.9524C106.15 13.8294 120.468 9.3938 133.557 7.72685C153.019 5.24827 176.015 7.39189 194.035 15.4226C202.565 19.2241 243.417 40.3181 225.907 54.4457C219.76 59.4052 208.451 63.7242 200.409 61.7139C192.295 59.6853 190.202 48.6175 189.876 41.6194C188.936 21.4043 210.709 10.7239 228.161 8.65967C245.243 6.63916 259.833 9.16766 275.424 16.3554C279.64 18.2995 288.287 20.472 290.582 25.0618" stroke="white" stroke-width="10" stroke-linecap="round"/>
</svg>
