<svg width="240" height="241" viewBox="0 0 240 241" fill="none" xmlns="http://www.w3.org/2000/svg">
<path d="M107.996 18.4646C107.996 29.6456 103.828 40.2331 102.89 51.2712C102.312 58.0839 103.999 65.7246 101.97 72.3193C101.095 75.1632 98.8279 77.1136 97.8272 79.8932C96.5677 83.3919 94.3736 86.1352 92.1781 89.0992C90.4634 91.4141 87.4463 91.9994 84.8971 92.7815C74.4177 95.9968 63.6238 97.2235 53.3877 101.318C42.7171 105.586 31.7129 109.731 21.3762 114.708C18.7791 115.959 15.9328 116.3 13.2582 117.303C12.0436 117.758 21.1514 119.85 22.2131 120.19C39.7383 125.798 56.9606 131.091 73.3478 139.397C80.0568 142.797 87.2612 146.608 94.3959 149.105C96.5582 149.862 98.2038 149.587 98.2038 152.202C98.2038 155.092 97.3611 155.991 98.7896 158.562C100.281 161.247 99.865 164.833 99.5429 167.768C98.6997 175.45 98.2038 182.781 98.2038 190.532C98.2038 197.782 95.9524 201.064 89.9185 203.922C87.604 205.018 84.8268 208.899 85.4411 211.664C85.6529 212.617 85.0784 215.499 85.4411 214.593C87.3657 209.781 93.7819 205.477 97.618 202.416C106.194 195.572 117.272 193.725 124.943 186.054C128.838 182.159 133.611 176.972 139.045 175.3C143.923 173.799 148.895 174.145 153.942 173.584C168.836 171.93 184.932 178.684 196.498 187.937C198.137 189.248 201.601 192.343 203.654 192.457C205.406 192.554 207.174 192.364 208.926 192.457C210.891 192.56 216.335 194.931 213.069 190.992C202.959 178.8 190.016 169.717 183.149 155.047C179.548 147.352 177.702 139.611 174.655 131.823C172.447 126.18 169.382 121.251 167.667 115.462C167.052 113.387 167.548 111.158 166.914 109.017C166.565 107.84 165.993 105.895 165.993 104.707C165.993 102.664 165.913 101.878 167.96 100.899C172.776 98.596 176.477 95.4372 180.973 92.6978C189.572 87.4599 198.439 82.1238 207.42 77.6336C211.24 75.7233 213.816 73.7254 216.626 70.6036C217.94 69.143 219.33 63.6573 216.416 63.6573C211.951 63.6573 205.744 67.4411 201.77 69.3064C194.938 72.5134 188.096 75.8168 181.057 78.5542C171.998 82.0774 163.125 84.7992 153.649 87.3417C151.011 88.0494 147.338 89.9361 144.568 89.9361C143.05 89.9361 141.445 85.2736 141.137 84.2451C140.345 81.6053 139.955 78.5332 138.71 76.0435C138.06 74.7442 136.496 74.1356 135.864 73.0306C132.639 67.3869 128.909 61.673 126.491 55.4557C124.179 49.5108 125.15 42.1045 121.553 36.7091C120.612 35.2969 119.287 35.2449 118.708 33.3615C118.276 31.9576 118.137 30.7966 117.745 29.428C116.908 26.4954 116.452 35.4194 116.323 38.4666C115.956 47.0795 115.689 55.7953 115.528 64.4105C115.323 75.365 111.727 84.7858 104.271 92.6142C104.047 92.8502 99.8723 96.4155 99.8776 96.4221C100.951 97.7635 106.949 96.4249 107.912 96.2965C121.006 94.5506 134.096 92.1045 146.995 89.2665C153.509 87.8335 159.915 85.9849 166.411 84.4962C170.107 83.6492 169.483 83.9021 165.658 84.1614C150.831 85.1666 136.092 87.6317 121.47 90.1871C99.1658 94.0849 76.5998 98.246 55.0615 105.377C47.177 107.987 34.8212 110.553 28.6154 116.759C26.853 118.521 27.8571 118.642 29.9963 118.642C40.7759 118.642 51.6912 119.153 62.3844 117.554C79.7406 114.958 97.1563 111.243 114.272 107.344C127.854 104.249 141.296 100.618 155.113 98.8909C157.811 98.5537 161.113 97.5519 163.733 97.5519C164.925 97.5519 161.534 98.4883 160.386 98.8072C152.772 100.922 145.277 103.843 137.873 106.59C127.216 110.545 116.722 115.057 106.196 119.353C101.267 121.365 96.4459 124.1 91.5923 126.007C89.0466 127.007 85.4771 130.693 82.763 130.693C82.0725 130.693 81.6426 130.693 82.7211 130.693C87.5555 130.693 92.3728 130.579 97.1995 130.275C115.407 129.127 133.374 125.873 151.514 124.082C156.981 123.542 162.843 123.615 168.253 124.5C177.872 126.074 163.871 127.494 160.846 128.099C141.355 131.997 122.437 134.277 104.983 144.251C103.758 144.951 101.692 146.732 101.049 148.017C100.508 149.099 117.991 148.448 119.629 148.31C129.916 147.445 139.568 144.319 149.631 142.828C155.657 141.936 143.504 148.009 142.309 148.77C133.943 154.094 124.264 157.135 115.277 161.24C113.27 162.157 109.502 163.761 109.502 166.471C109.502 168.861 108.713 172.12 111.929 172.12C117.434 172.12 122.563 172.745 127.579 170.237C135.637 166.208 141.285 160.247 150.929 160.068C156.369 159.968 159.749 159.924 164.068 163.458C164.431 163.755 166.662 165.064 166.662 165.634C166.662 169.193 163.011 159.512 161.474 156.302C154.804 142.374 156.201 125.585 156.201 110.524C156.201 103.787 147.209 108.32 145.238 111.905C138.866 123.49 130.467 129.082 117.285 132.2C106.747 134.692 96.4656 135.212 85.734 135.212C83.8751 135.212 77.4551 136.185 76.528 134.125C74.9404 130.596 79.78 124.89 81.6332 122.408C91.7573 108.849 105.833 99.6757 119.503 90.0198C126.13 85.3385 135.084 79.5286 138.877 71.9427" stroke="#F5F865" stroke-opacity="0.8" stroke-width="20" stroke-linecap="round"/>
<path d="M95 89.5L113 3L154.5 71L236 51L168.5 107.5L236 203L159.5 166.5L66.5 237.5L95 159L3 112.5L95 89.5Z" stroke="white" stroke-width="2"/>
</svg>
