<svg width="149" height="153" viewBox="0 0 149 153" fill="none" xmlns="http://www.w3.org/2000/svg">
<path d="M97.9535 31.0752C94.4444 35.9944 90.8781 40.8566 87.5481 45.9018C83.8686 51.4764 80.362 57.234 76.4184 62.6285C72.5117 67.9724 68.3688 73.1343 64.8031 78.7167C63.6562 80.5122 63.1959 82.0497 62.8786 84.1038C62.713 85.1752 62.1938 86.2266 61.6158 87.1315C59.2607 90.8185 55.3003 92.9576 52.0403 95.7787C49.3153 98.1368 46.5875 100.56 43.7571 102.787C42.6515 103.657 41.4593 104.757 40.7594 105.992C39.727 107.812 38.6879 109.712 37.4238 111.376C36.6608 112.38 35.9407 113.417 35.1321 114.385C35.0572 114.475 34.7237 114.948 35.0108 114.599C35.701 113.76 36.3109 112.917 37.0888 112.145C45.1528 104.142 55.5148 99.4289 65.1684 93.6971C69.506 91.1216 73.6916 88.2566 78.1623 85.9085C82.4845 83.6384 87.2402 82.1668 91.7492 80.313C94.8822 79.0248 97.8775 78.0124 101.231 77.4551C104.226 76.9573 107.155 76.2884 110.08 75.4802C112.069 74.9307 114.272 74.5956 116.164 73.7736C117.909 73.0156 119.428 72.07 121.037 71.0878C121.536 70.7838 122.106 70.2675 122.637 70.047C122.943 69.9197 122.874 69.8928 122.53 69.8253C121.569 69.6364 120.578 69.549 119.607 69.4288C116.388 69.0306 113.07 69.467 109.837 69.5199C107.066 69.5653 104.308 69.0885 101.569 68.7264C100.159 68.5399 98.7463 68.5877 97.344 68.3288C94.7922 67.8576 92.4293 66.7018 89.8834 66.288C86.424 65.7257 82.8657 65.5113 79.4703 64.6316C76.1586 63.7736 72.8017 63.1013 69.4924 62.2432C67.352 61.6881 65.1485 61.3558 62.9912 60.8776C59.7182 60.152 56.3926 59.4357 53.0834 58.9527C52.1109 58.8107 51.284 58.4198 50.3328 58.18C48.8901 57.8164 47.4565 57.9232 46.0002 57.7414C42.8357 57.3466 39.6873 56.2908 36.4851 56.3521C35.6877 56.3673 34.9582 56.3178 34.1795 56.1648C33.3478 56.0013 33.478 55.9083 34.3938 56.4276C37.6979 58.3012 41.2056 59.7453 44.5083 61.6181C48.5818 63.928 52.8246 65.9295 56.7612 68.4652C61.9668 71.8182 67.5019 74.8674 71.8713 79.3139C74.0533 81.5344 76.0417 83.8515 77.9937 86.2771C80.3948 89.2609 82.2947 92.6701 84.4686 95.8217C86.3057 98.485 88.1094 101.23 89.647 104.076C90.6285 105.893 91.9328 107.596 92.7081 109.515C93.2772 110.925 93.5022 112.465 93.6113 113.973C93.7234 115.524 93.658 117.116 93.8423 118.655C93.9018 119.152 93.9931 119.682 93.9671 120.179C93.9299 120.892 93.6206 121.585 93.5452 122.311C93.4159 123.557 94.2291 124.574 94.8255 125.57C94.886 125.671 95.3487 126.775 95.1536 126.664C94.231 126.141 94.027 125.663 93.7836 124.596C93.3151 122.54 93.8019 120.282 93.6121 118.171C93.146 112.989 91.0991 108.128 90.4632 102.975C90.1244 100.23 89.6676 97.5635 88.6196 94.9968C87.6859 92.71 87.0332 90.3797 87.5357 87.9037C87.982 85.7044 88.6186 83.4325 89.2111 81.2653C89.8278 79.0096 90.0395 76.8791 90.0185 74.5384C90.0063 73.1716 90.0556 71.8464 90.1793 70.4821C90.3191 68.9398 89.7461 67.3689 89.7 65.8107C89.6413 63.8225 89.9726 61.887 90.2162 59.9176C90.4916 57.6913 90.3627 55.4267 90.685 53.2004C90.7999 52.4073 90.9246 51.4197 91.353 50.7234C91.6754 50.1993 92.0877 49.7745 92.391 49.2131C93.0446 48.0036 93.4117 46.5745 93.8043 45.2616C94.0527 44.4309 93.9799 43.4435 94.3106 42.6425C94.5991 41.9436 94.7444 41.3223 94.8013 40.5493C94.8669 39.6568 95.5657 38.4894 96.0156 37.696C96.4397 36.948 96.7249 36.1248 97.1641 35.3502C97.8439 34.1514 95.7955 37.7429 95.1324 38.951C93.523 41.8833 92.3549 45.0416 90.9566 48.0768C89.4646 51.3156 88.0571 54.5762 86.311 57.693C84.9019 60.2086 83.7452 62.8585 82.3253 65.3625C81.2011 67.3451 79.6799 69.0669 78.5617 71.0388C78.1958 71.6841 77.9257 72.2539 77.6992 72.9514C77.3851 73.9183 76.7522 74.5733 76.2484 75.4386C74.4381 78.5482 72.6223 81.6848 70.7646 84.7713C69.7921 86.3871 68.3702 87.9064 66.8581 89.0446C65.6582 89.9477 64.6577 90.9965 63.5514 91.993C62.9533 92.5317 62.4286 93.0814 61.8507 93.622C61.8034 93.6663 61.3946 94.2289 61.4531 94.2342C61.5823 94.2457 62.251 93.6742 62.2732 93.6598C63.1081 93.1205 64.0067 92.6879 64.898 92.2521C68.682 90.402 72.6061 88.7679 76.3164 86.7791C79.2656 85.1983 82.1744 83.5889 85.019 81.8247C87.9181 80.0266 91.1011 79.0581 94.3352 78.0659C98.2743 76.8575 102.186 75.7002 106.021 74.1675C106.537 73.9612 106.967 73.6455 107.391 73.2996C107.638 73.0982 107.024 72.992 106.944 72.9853C105.524 72.8666 103.967 73.2594 102.584 73.5202C98.3081 74.3266 94.0343 75.2605 89.7246 75.8753C87.6369 76.1731 85.3533 76.4752 83.2593 76.1547C81.0153 75.8113 78.8551 75.1003 76.8904 73.9862C72.6978 71.6088 67.9726 70.9616 63.4907 69.3749C61.0577 68.5136 58.7131 67.4014 56.2985 66.4873C55.1176 66.0403 54.0389 65.5903 52.9509 64.9523C52.8177 64.8743 50.8825 63.0612 51.0702 62.8768C51.3664 62.5857 52.5933 63.2414 52.8464 63.3391C55.1362 64.2227 57.4772 64.9412 59.8202 65.6689C64.4433 67.1046 69.0214 68.329 73.7491 69.329C75.1481 69.6249 76.7425 69.6555 78.0752 70.1171C79.5381 70.6238 81.1039 70.9962 82.6408 71.2126C84.9659 71.5399 87.293 71.3867 89.6275 71.8645C91.5857 72.2653 93.6536 73.2915 95.6578 73.3667C96.1472 73.385 96.915 73.2375 97.3685 73.4285C97.5173 73.4912 97.6551 73.4561 97.3053 73.4331C95.2962 73.3011 93.283 73.0874 91.2804 72.8825C86.9847 72.443 82.6636 72.1435 78.3474 72.431C75.4291 72.6254 72.6768 72.352 69.9147 71.393C68.3804 70.8602 66.9234 70.1509 65.5125 69.3508C64.9477 69.0305 65.3229 68.7598 65.6004 68.2705C65.953 67.6486 66.2966 66.6549 66.9319 66.2605C67.2845 66.0416 67.9956 66.5229 68.2909 66.6578C69.3149 67.1253 70.4039 67.6516 71.3134 68.3212C74.1496 70.4095 73.1154 73.4811 71.7912 76.1806C71.1558 77.476 70.1887 78.3021 69.1993 79.2922C68.0839 80.4086 68.7127 82.0012 67.9844 83.2856C67.6221 83.9244 67.2599 84.5633 66.8976 85.2021C66.7975 85.3787 66.2972 86.0125 66.3327 86.234C66.4947 87.2449 75.1814 82.8563 75.7841 82.5216C77.5263 81.554 79.2073 80.5162 80.8606 79.4061C81.1088 79.2394 82.165 78.2614 82.4835 78.288C82.5973 78.2975 82.4621 82.3906 82.4768 82.8555C82.5071 83.8102 82.4885 84.8296 82.8576 85.7253C83.2284 86.625 83.2971 87.7156 83.2691 88.6833C83.2527 89.2496 83.7411 89.708 83.8231 90.2689C83.9053 90.8309 82.0633 89.7669 81.9102 89.6383C81.1879 89.0311 80.4529 88.3578 79.6311 87.8918C79.1603 87.6248 78.6059 87.0728 78.1221 87.581C77.4068 88.3323 77.3669 88.7531 76.1931 88.9897C74.837 89.2632 73.206 90.0933 72.4795 91.3745C72.277 91.7316 72.1785 91.8509 71.776 91.9745C70.9023 92.243 70.2129 92.9037 69.49 93.4432C67.3312 95.0549 65.5064 97.1233 63.3264 98.7072C62.5295 99.2863 61.4456 99.5946 60.5752 100.053C58.0743 101.371 55.538 102.627 52.9376 103.735C51.7561 104.238 50.4508 104.478 49.243 104.929C47.3405 105.64 45.2556 106.712 43.6513 107.975C43.0325 108.462 42.3129 109.404 41.4656 109.48C41.2508 109.499 40.3275 109.734 40.3816 109.612C40.8661 108.523 42.6122 107.659 43.5143 107.059C46.8749 104.826 50.3123 102.677 53.748 100.561C57.0513 98.5275 60.3813 96.476 63.895 94.8216C66.7987 93.4545 69.7615 92.262 72.6235 90.8002C75.761 89.1977 78.7431 87.2854 82.0475 86.0328C82.265 85.9504 83.2925 85.7592 83.2791 85.7827C82.7988 86.6297 81.3897 86.7591 80.5728 86.8717C78.9455 87.0961 77.529 87.3316 75.9518 87.8136C74.817 88.1604 73.7018 88.6304 72.607 89.0854C71.8884 89.3841 72.3935 90.335 72.6146 90.7447C73.8137 92.9669 74.9124 95.335 76.2777 97.4536C77.9451 100.041 80.5005 101.941 82.3456 104.406C83.3401 105.735 83.7319 107.577 84.8012 108.796C86.0961 110.271 87.8208 111.289 89.1129 112.795C89.3993 113.128 89.7693 113.677 89.9381 114.08C90.44 115.277 92.1904 116.035 92.9966 117.086C93.2249 117.383 93.9076 117.935 93.6347 118.416C93.4103 118.812 93.4544 117.524 93.3864 117.075C93.1691 115.639 92.8391 114.335 92.3069 112.981C90.9645 109.565 90.6245 105.764 89.0438 102.452C87.7089 99.6554 84.7015 97.768 82.428 95.7544C80.8507 94.3573 79.0098 93.4406 77.2363 92.3463C76.8647 92.1169 76.6697 91.5245 76.6161 91.1267C76.4684 90.0319 77.0569 92.1905 77.1452 92.4358C78.0157 94.8547 79.8663 97.0116 81.4078 99.0306C82.161 100.017 82.933 100.953 83.8297 101.807C84.9626 102.885 86.6885 103.561 87.4994 104.927C88.1704 106.057 88.4981 107.421 88.9881 108.637C89.1029 108.922 89.2168 109.202 89.361 109.474C89.5609 109.85 89.3865 108.614 89.298 108.197C88.3635 103.796 87.0247 99.4672 86.6281 94.9675C86.5116 93.645 86.4123 92.3198 86.3167 90.9966C86.2928 90.6664 86.3807 90.2431 86.544 89.955C87.1319 88.9183 88.1655 88.0557 89.0098 87.226C90.7529 85.5131 92.3656 83.7022 93.9569 81.8474C95.4272 80.1335 96.7535 79.8594 98.9082 80.0737C100.899 80.2717 103.04 80.0315 105.028 79.9413C106.66 79.8673 109.201 79.8618 110.684 78.9003C111.058 78.6574 112.335 78.0853 111.172 78.6624C108.384 80.0462 105.348 80.8756 102.537 82.2523C99.4195 83.7788 96.4232 86.1583 93.0257 87.0309C91.3874 87.4516 89.5835 87.3227 87.9026 87.577C86.4701 87.7937 85.1377 88.1133 83.8147 88.7C83.5904 88.7994 82.7569 89.2264 82.8505 89.1724C84.1128 88.4442 86.1198 88.1899 87.4713 87.8571C92.5959 86.5953 97.889 85.9918 102.967 84.5548C105.792 83.7553 108.62 82.7198 111.301 81.5309C112.598 80.9557 113.95 80.7601 115.269 80.2994C117.532 79.5086 119.293 77.8271 121.345 76.6308C122.384 76.0255 123.449 75.2982 124.652 75.1054C125.252 75.0093 125.815 74.924 126.356 74.6991C127.049 74.4111 127.56 73.9992 127.941 73.3274C128.214 72.8465 128.606 72.4759 128.884 71.9851C129.254 71.3332 128.877 71.3535 128.201 71.2143C126.662 70.8976 125.07 71.0576 123.507 71.0752C121.249 71.1008 119.001 71.3279 116.742 71.2958C114.828 71.2685 112.93 71.1003 111.014 71.2167C106.112 71.5147 101.2 72.757 96.3906 73.7116C90.1949 74.9412 84.2265 77.1342 77.9952 78.1951C73.7252 78.922 68.7698 79.5355 65.242 82.3561C64.2516 83.1479 63.2729 84.2269 62.6453 85.3338C62.4809 85.6236 62.1102 86.7065 62.0903 86.0989C62.0487 84.8258 60.9142 83.1523 60.361 82.0304C59.9062 81.1081 59.5497 80.1918 59.0258 79.2954C57.25 76.2569 54.4655 74.3748 52.3013 71.6679C50.185 69.021 47.6051 67.0471 45.1698 64.7581C44.0229 63.6801 42.6869 62.4016 41.316 61.6243C40.8604 61.3659 39.1628 59.8307 40.2212 60.4586C43.5426 62.429 46.9744 64.5109 50.1066 66.8007C53.0895 68.9814 56.5274 70.7367 59.2302 73.276C60.7411 74.6955 62.1589 76.1832 63.7995 77.4614C65.1916 78.5459 66.8705 79.8243 67.971 81.2093C68.6436 82.0557 69.0305 83.0548 69.6175 83.9291C70.129 84.6908 70.7383 85.3896 71.1972 86.1972C71.6978 87.0781 71.8242 88.0918 72.0624 89.0491C72.5632 91.0611 72.3169 93.2629 71.2962 95.0628C70.4815 96.4997 68.7055 97.2213 67.2542 97.8667C64.7521 98.9794 62.204 99.8238 59.6346 100.751C58.2912 101.236 56.9732 101.682 55.5864 102.018C54.7079 102.23 53.847 102.339 53.0257 102.725C51.3041 103.534 49.6339 104.515 48.1491 105.702C48.0276 105.799 48.5076 104.618 48.5675 104.466C49.3834 102.386 50.392 100.216 51.4932 98.2738C52.3547 96.7546 53.0691 95.1745 53.9277 93.6602C55.5616 90.7789 56.7073 87.7864 57.9909 84.7329C59.6061 80.8909 61.4143 77.2543 63.4645 73.6387" stroke="#C7C953" stroke-width="6" stroke-linecap="round"/>
<path d="M137.442 73.0039C125.114 68.8385 111.498 67.462 98.7707 64.9311C80.9575 61.3888 62.9697 58.1376 44.9645 55.7244C39.3921 54.9776 33.0453 53.4283 27.3729 53.8383C26.5373 53.8987 26.6674 54.156 27.2373 54.6424C31.6597 58.4165 36.5191 61.7056 41.1289 65.2427C55.4299 76.2157 66.5542 89.7959 78.3913 103.271C86.4979 112.5 91.6936 122.629 96.2251 133.967C98.1112 138.687 97.196 131.711 97.0587 129.955C96.2844 120.055 95.6699 110.09 95.3701 100.165C95.0143 88.3829 95.4257 76.5728 95.4087 64.7867C95.398 57.451 95.8462 49.8591 98.0234 42.8028C99.628 37.6027 101.742 32.302 101.79 26.8383C101.804 25.2845 100.795 26.8946 100.297 27.353C92.1576 34.8442 84.7751 42.7731 77.9739 51.5365C63.9276 69.6353 49.7297 88.3778 37.6838 107.9C36.0878 110.486 34.6509 113.178 33.1517 115.822C32.7278 116.569 31.0519 118.293 31.8802 118.064C34.3094 117.393 37.375 115.251 39.8176 114.235C46.9921 111.253 53.8906 107.692 61.122 104.772C70.3955 101.027 78.8871 96.6838 87.6826 92.0414C92.5209 89.4877 97.8716 88.2401 102.933 86.1926C107.959 84.1592 112.026 80.946 117.165 79.5261C122.953 77.927 128.696 74.4766 133.078 70.5296" stroke="white" stroke-width="2" stroke-linecap="round"/>
</svg>
