<svg width="421" height="421" viewBox="0 0 421 421" fill="none" xmlns="http://www.w3.org/2000/svg">
<path fill-rule="evenodd" clip-rule="evenodd" d="M0.545778 210.85C0.542778 206.25 4.2668 202.51 8.86681 202.51C181.784 202.25 200.379 43.2078 201.943 13.7389C201.982 10.5519 202.031 8.6159 202.089 8.20691C202.657 4.21091 205.072 2.83189 205.591 2.47089C207.201 1.34789 208.805 0.835895 210.398 0.858895C211.991 0.835895 213.595 1.34789 215.205 2.47089C215.724 2.83189 218.139 4.21091 218.707 8.20691C218.765 8.6159 218.814 10.5519 218.853 13.7389C220.417 43.2078 239.012 202.25 411.93 202.51C416.53 202.51 420.254 206.25 420.251 210.85C420.254 215.45 416.53 219.18 411.93 219.19C239.012 219.44 220.417 378.489 218.853 407.959C218.814 411.149 218.765 413.079 218.707 413.489C218.139 417.489 215.724 418.869 215.205 419.229C213.595 420.349 211.991 420.859 210.398 420.839C208.805 420.859 207.201 420.349 205.591 419.229C205.072 418.869 202.657 417.489 202.089 413.489C202.031 413.079 201.982 411.149 201.943 407.959C200.379 378.489 181.784 219.44 8.86681 219.19C4.2668 219.18 0.542778 215.45 0.545778 210.85Z" fill="url(#paint0_linear_5_11)"/>
<defs>
<linearGradient id="paint0_linear_5_11" x1="0.545778" y1="210.85" x2="420.251" y2="210.85" gradientUnits="userSpaceOnUse">
<stop stop-color="#EFEAA7"/>
<stop offset="1" stop-color="#D4C421"/>
</linearGradient>
</defs>
</svg>
